<?xml version="1.0" encoding="utf-8"?>
<!-- Generator: Adobe Illustrator 26.1.0, SVG Export Plug-In . SVG Version: 6.00 Build 0)  -->
<svg version="1.1" id="Layer_1" xmlns="http://www.w3.org/2000/svg" xmlns:xlink="http://www.w3.org/1999/xlink" x="0px" y="0px"
	 viewBox="0 0 1700 1000" style="enable-background:new 0 0 1700 1000;" xml:space="preserve">
<style type="text/css">
	.st0{fill:url(#SVGID_1_);stroke:#1D1D1B;stroke-width:13.7442;stroke-miterlimit:10;}
	
		.st1{fill:url(#SVGID_00000138570941826552742010000014476883731470569656_);stroke:#1D1D1B;stroke-width:13.7442;stroke-miterlimit:10;}
	
		.st2{fill:url(#SVGID_00000001650697760626593210000008789436933974100115_);stroke:#1D1D1B;stroke-width:13.7442;stroke-miterlimit:10;}
	.st3{fill:#009DDE;}
	.st4{fill:#E5007E;}
	.st5{fill:#F7E102;}
	.st6{fill:#181715;}
	
		.st7{fill:url(#SVGID_00000059298874549923166660000012532350950507496091_);stroke:#777777;stroke-width:4.5814;stroke-miterlimit:10;}
	
		.st8{fill:url(#SVGID_00000036239641751692587300000005649249468102869384_);stroke:#777777;stroke-width:4.5814;stroke-miterlimit:10;}
	
		.st9{fill:url(#SVGID_00000056398333782845398130000002226691531443455410_);stroke:#777777;stroke-width:4.5814;stroke-miterlimit:10;}
	.st10{fill:#6E6F6E;}
</style>
<g>
	<g>
		<g>
			<linearGradient id="SVGID_1_" gradientUnits="userSpaceOnUse" x1="395.2171" y1="-104.1888" x2="395.2171" y2="1146.9166">
				<stop  offset="0" style="stop-color:#000000"/>
				<stop  offset="0.0319" style="stop-color:#272727"/>
				<stop  offset="0.079" style="stop-color:#595959"/>
				<stop  offset="0.1284" style="stop-color:#858585"/>
				<stop  offset="0.1792" style="stop-color:#ABABAB"/>
				<stop  offset="0.2318" style="stop-color:#C9C9C9"/>
				<stop  offset="0.2868" style="stop-color:#E1E1E1"/>
				<stop  offset="0.3451" style="stop-color:#F2F2F2"/>
				<stop  offset="0.4091" style="stop-color:#FCFCFC"/>
				<stop  offset="0.4897" style="stop-color:#FFFFFF"/>
				<stop  offset="1" style="stop-color:#000000"/>
			</linearGradient>
			<path class="st0" d="M365.55,80.88h68.58l262.91,695.1h-99.61l-76.75-203.58H268.66l-71.85,203.58H93.39L365.55,80.88z
				 M301.32,488.58h192.15l-96.07-238.96L301.32,488.58z"/>
			
				<linearGradient id="SVGID_00000010268666734614375760000012954497673861860503_" gradientUnits="userSpaceOnUse" x1="939.1465" y1="-104.1888" x2="939.1465" y2="1146.9166">
				<stop  offset="0" style="stop-color:#000000"/>
				<stop  offset="0.0319" style="stop-color:#272727"/>
				<stop  offset="0.079" style="stop-color:#595959"/>
				<stop  offset="0.1284" style="stop-color:#858585"/>
				<stop  offset="0.1792" style="stop-color:#ABABAB"/>
				<stop  offset="0.2318" style="stop-color:#C9C9C9"/>
				<stop  offset="0.2868" style="stop-color:#E1E1E1"/>
				<stop  offset="0.3451" style="stop-color:#F2F2F2"/>
				<stop  offset="0.4091" style="stop-color:#FCFCFC"/>
				<stop  offset="0.4897" style="stop-color:#FFFFFF"/>
				<stop  offset="1" style="stop-color:#000000"/>
			</linearGradient>
			
				<path style="fill:url(#SVGID_00000010268666734614375760000012954497673861860503_);stroke:#1D1D1B;stroke-width:13.7442;stroke-miterlimit:10;" d="
				M971.93,411.83v76.75h151.32v186.7c0,0-66.41,31.57-129.55,31.57s-243.86-33.75-243.86-266.72S941.45,146.2,993.7,156
				c52.26,9.8,90.36,4.35,149.14,72.94l78.38-73.93c0,0-82.74-93.73-217.73-91.55c-134.99,2.18-337.48,69.67-346.19,360.34
				c-8.71,290.67,216.64,364.7,324.42,373.41c107.78,8.71,228.62-76.21,228.62-76.21V412.92L971.93,411.83z"/>
			
				<linearGradient id="SVGID_00000032637965625723065030000001353379901964188040_" gradientUnits="userSpaceOnUse" x1="1323.0178" y1="-104.1888" x2="1323.0178" y2="1146.9166">
				<stop  offset="0" style="stop-color:#000000"/>
				<stop  offset="1.629791e-03" style="stop-color:#020202"/>
				<stop  offset="0.0415" style="stop-color:#373737"/>
				<stop  offset="0.083" style="stop-color:#666666"/>
				<stop  offset="0.127" style="stop-color:#8F8F8F"/>
				<stop  offset="0.1729" style="stop-color:#B2B2B2"/>
				<stop  offset="0.2214" style="stop-color:#CECECE"/>
				<stop  offset="0.2732" style="stop-color:#E4E4E4"/>
				<stop  offset="0.3299" style="stop-color:#F3F3F3"/>
				<stop  offset="0.3954" style="stop-color:#FCFCFC"/>
				<stop  offset="0.4897" style="stop-color:#FFFFFF"/>
				<stop  offset="1" style="stop-color:#000000"/>
			</linearGradient>
			
				<rect x="1272.4" y="68.91" style="fill:url(#SVGID_00000032637965625723065030000001353379901964188040_);stroke:#1D1D1B;stroke-width:13.7442;stroke-miterlimit:10;" width="101.24" height="715.24"/>
		</g>
		<rect x="1442.22" y="58.02" class="st3" width="164.39" height="154.59"/>
		<rect x="1442.22" y="253.98" class="st4" width="164.39" height="154.59"/>
		<rect x="1442.22" y="442.31" class="st5" width="164.39" height="158.94"/>
		<rect x="1442.22" y="632.83" class="st6" width="164.39" height="160.03"/>
		<g>
			
				<linearGradient id="SVGID_00000171720332589811762780000006633100761787228351_" gradientUnits="userSpaceOnUse" x1="395.2171" y1="-104.1888" x2="395.2171" y2="1146.9166">
				<stop  offset="0" style="stop-color:#000000"/>
				<stop  offset="0.0319" style="stop-color:#272727"/>
				<stop  offset="0.079" style="stop-color:#595959"/>
				<stop  offset="0.1284" style="stop-color:#858585"/>
				<stop  offset="0.1792" style="stop-color:#ABABAB"/>
				<stop  offset="0.2318" style="stop-color:#C9C9C9"/>
				<stop  offset="0.2868" style="stop-color:#E1E1E1"/>
				<stop  offset="0.3451" style="stop-color:#F2F2F2"/>
				<stop  offset="0.4091" style="stop-color:#FCFCFC"/>
				<stop  offset="0.4897" style="stop-color:#FFFFFF"/>
				<stop  offset="1" style="stop-color:#000000"/>
			</linearGradient>
			
				<path style="fill:url(#SVGID_00000171720332589811762780000006633100761787228351_);stroke:#777777;stroke-width:4.5814;stroke-miterlimit:10;" d="
				M365.55,80.88h68.58l262.91,695.1h-99.61l-76.75-203.58H268.66l-71.85,203.58H93.39L365.55,80.88z M301.32,488.58h192.15
				l-96.07-238.96L301.32,488.58z"/>
			
				<linearGradient id="SVGID_00000147191585644764777890000002658915054994959507_" gradientUnits="userSpaceOnUse" x1="939.1465" y1="-104.1888" x2="939.1465" y2="1146.9166">
				<stop  offset="0" style="stop-color:#000000"/>
				<stop  offset="0.0319" style="stop-color:#272727"/>
				<stop  offset="0.079" style="stop-color:#595959"/>
				<stop  offset="0.1284" style="stop-color:#858585"/>
				<stop  offset="0.1792" style="stop-color:#ABABAB"/>
				<stop  offset="0.2318" style="stop-color:#C9C9C9"/>
				<stop  offset="0.2868" style="stop-color:#E1E1E1"/>
				<stop  offset="0.3451" style="stop-color:#F2F2F2"/>
				<stop  offset="0.4091" style="stop-color:#FCFCFC"/>
				<stop  offset="0.4897" style="stop-color:#FFFFFF"/>
				<stop  offset="1" style="stop-color:#000000"/>
			</linearGradient>
			
				<path style="fill:url(#SVGID_00000147191585644764777890000002658915054994959507_);stroke:#777777;stroke-width:4.5814;stroke-miterlimit:10;" d="
				M971.93,411.83v76.75h151.32v186.7c0,0-66.41,31.57-129.55,31.57s-243.86-33.75-243.86-266.72S941.45,146.2,993.7,156
				c52.26,9.8,90.36,4.35,149.14,72.94l78.38-73.93c0,0-82.74-93.73-217.73-91.55c-134.99,2.18-337.48,69.67-346.19,360.34
				c-8.71,290.67,216.64,364.7,324.42,373.41c107.78,8.71,228.62-76.21,228.62-76.21V412.92L971.93,411.83z"/>
			
				<linearGradient id="SVGID_00000162340836363769004700000004938862985897274805_" gradientUnits="userSpaceOnUse" x1="1323.0178" y1="-104.1888" x2="1323.0178" y2="1146.9166">
				<stop  offset="0" style="stop-color:#000000"/>
				<stop  offset="1.629791e-03" style="stop-color:#020202"/>
				<stop  offset="0.0415" style="stop-color:#373737"/>
				<stop  offset="0.083" style="stop-color:#666666"/>
				<stop  offset="0.127" style="stop-color:#8F8F8F"/>
				<stop  offset="0.1729" style="stop-color:#B2B2B2"/>
				<stop  offset="0.2214" style="stop-color:#CECECE"/>
				<stop  offset="0.2732" style="stop-color:#E4E4E4"/>
				<stop  offset="0.3299" style="stop-color:#F3F3F3"/>
				<stop  offset="0.3954" style="stop-color:#FCFCFC"/>
				<stop  offset="0.4897" style="stop-color:#FFFFFF"/>
				<stop  offset="1" style="stop-color:#000000"/>
			</linearGradient>
			
				<rect x="1272.4" y="68.91" style="fill:url(#SVGID_00000162340836363769004700000004938862985897274805_);stroke:#777777;stroke-width:4.5814;stroke-miterlimit:10;" width="101.24" height="715.24"/>
		</g>
	</g>
	<g>
		<path class="st10" d="M115.46,911.23l-9.65,29.24H93.39l31.58-92.95h14.48l31.72,92.95h-12.83l-9.93-29.24H115.46z M145.93,901.85
			l-9.1-26.75c-2.07-6.07-3.45-11.58-4.83-16.96h-0.28c-1.38,5.52-2.9,11.17-4.69,16.83l-9.1,26.89H145.93z"/>
		<path class="st10" d="M197.65,854.54v19.17h17.38v9.24h-17.38v35.99c0,8.28,2.34,12.96,9.1,12.96c3.17,0,5.52-0.41,7.03-0.83
			l0.55,9.1c-2.34,0.96-6.07,1.65-10.76,1.65c-5.65,0-10.21-1.79-13.1-5.1c-3.45-3.59-4.69-9.52-4.69-17.38v-36.41h-10.34v-9.24
			h10.34v-16L197.65,854.54z"/>
		<path class="st10" d="M243.29,854.54v19.17h17.38v9.24h-17.38v35.99c0,8.28,2.34,12.96,9.1,12.96c3.17,0,5.52-0.41,7.03-0.83
			l0.55,9.1c-2.34,0.96-6.07,1.65-10.76,1.65c-5.65,0-10.21-1.79-13.1-5.1c-3.45-3.59-4.69-9.52-4.69-17.38v-36.41h-10.34v-9.24
			h10.34v-16L243.29,854.54z"/>
		<path class="st10" d="M274.32,894.54c0-7.86-0.14-14.62-0.55-20.82h10.62l0.41,13.1h0.55c3.03-8.96,10.34-14.62,18.48-14.62
			c1.38,0,2.34,0.14,3.45,0.41v11.45c-1.24-0.27-2.48-0.41-4.14-0.41c-8.55,0-14.62,6.48-16.27,15.58
			c-0.28,1.66-0.55,3.59-0.55,5.66v35.58h-12V894.54z"/>
		<path class="st10" d="M324.79,909.3c0.27,16.41,10.76,23.17,22.89,23.17c8.69,0,13.93-1.52,18.48-3.45l2.07,8.69
			c-4.28,1.93-11.59,4.14-22.2,4.14c-20.55,0-32.82-13.52-32.82-33.65c0-20.13,11.86-35.99,31.31-35.99
			c21.79,0,27.58,19.17,27.58,31.45c0,2.48-0.28,4.41-0.41,5.65H324.79z M360.37,900.61c0.14-7.72-3.17-19.72-16.82-19.72
			c-12.27,0-17.65,11.31-18.62,19.72H360.37z"/>
		<path class="st10" d="M379.54,933.43l30.2-39.31c2.9-3.59,5.65-6.76,8.69-10.34v-0.28H382.3v-9.79h50.89l-0.14,7.58l-29.79,38.75
			c-2.76,3.72-5.52,7.03-8.55,10.48v0.28h39.03v9.65h-54.2V933.43z"/>
		<path class="st10" d="M438.56,933.43l30.2-39.31c2.9-3.59,5.65-6.76,8.69-10.34v-0.28h-36.13v-9.79h50.89l-0.14,7.58l-29.79,38.75
			c-2.76,3.72-5.52,7.03-8.55,10.48v0.28h39.03v9.65h-54.2V933.43z"/>
		<path class="st10" d="M542.13,940.46l-0.97-8.41h-0.41c-3.72,5.24-10.89,9.93-20.41,9.93c-13.51,0-20.41-9.52-20.41-19.17
			c0-16.14,14.34-24.96,40.13-24.83v-1.38c0-5.52-1.52-15.44-15.17-15.44c-6.21,0-12.69,1.93-17.38,4.96l-2.76-8
			c5.52-3.58,13.52-5.93,21.93-5.93c20.41,0,25.38,13.93,25.38,27.31v24.96c0,5.79,0.28,11.45,1.1,16H542.13z M540.34,906.4
			c-13.24-0.28-28.27,2.07-28.27,15.03c0,7.86,5.24,11.58,11.45,11.58c8.69,0,14.21-5.52,16.13-11.17c0.41-1.24,0.69-2.62,0.69-3.86
			V906.4z"/>
		<path class="st10" d="M585.71,854.54v19.17h17.38v9.24h-17.38v35.99c0,8.28,2.34,12.96,9.1,12.96c3.17,0,5.52-0.41,7.03-0.83
			l0.55,9.1c-2.34,0.96-6.07,1.65-10.76,1.65c-5.65,0-10.21-1.79-13.1-5.1c-3.45-3.59-4.69-9.52-4.69-17.38v-36.41H563.5v-9.24
			h10.34v-16L585.71,854.54z"/>
		<path class="st10" d="M672.59,922.26c0,6.9,0.14,12.96,0.55,18.2h-10.76l-0.69-10.89h-0.28c-3.17,5.38-10.21,12.41-22.07,12.41
			c-10.48,0-23.03-5.79-23.03-29.24v-39.03h12.14v36.96c0,12.69,3.86,21.24,14.89,21.24c8.14,0,13.79-5.65,16-11.03
			c0.69-1.79,1.1-4,1.1-6.21v-40.96h12.14V922.26z"/>
		<path class="st10" d="M692.72,894.54c0-7.86-0.14-14.62-0.55-20.82h10.62l0.41,13.1h0.55c3.03-8.96,10.34-14.62,18.48-14.62
			c1.38,0,2.34,0.14,3.45,0.41v11.45c-1.24-0.27-2.48-0.41-4.14-0.41c-8.55,0-14.62,6.48-16.27,15.58
			c-0.28,1.66-0.55,3.59-0.55,5.66v35.58h-12V894.54z"/>
		<path class="st10" d="M743.19,909.3c0.27,16.41,10.76,23.17,22.89,23.17c8.69,0,13.93-1.52,18.48-3.45l2.07,8.69
			c-4.28,1.93-11.59,4.14-22.2,4.14c-20.55,0-32.82-13.52-32.82-33.65c0-20.13,11.86-35.99,31.31-35.99
			c21.79,0,27.58,19.17,27.58,31.45c0,2.48-0.28,4.41-0.41,5.65H743.19z M778.77,900.61c0.14-7.72-3.17-19.72-16.82-19.72
			c-12.27,0-17.65,11.31-18.62,19.72H778.77z"/>
		<path class="st10" d="M905.92,936.33c-5.38,1.93-16,5.1-28.55,5.1c-14.07,0-25.65-3.58-34.75-12.27
			c-8-7.72-12.96-20.13-12.96-34.62c0.14-27.72,19.17-47.99,50.34-47.99c10.76,0,19.17,2.34,23.17,4.27l-2.9,9.79
			c-4.97-2.21-11.17-4-20.55-4c-22.62,0-37.37,14.07-37.37,37.37c0,23.58,14.21,37.51,35.86,37.51c7.86,0,13.24-1.1,16-2.48V901.3
			H875.3v-9.65h30.62V936.33z"/>
		<path class="st10" d="M923.84,894.54c0-7.86-0.14-14.62-0.55-20.82h10.62l0.41,13.1h0.55c3.03-8.96,10.34-14.62,18.48-14.62
			c1.38,0,2.34,0.14,3.45,0.41v11.45c-1.24-0.27-2.48-0.41-4.14-0.41c-8.55,0-14.62,6.48-16.27,15.58
			c-0.28,1.66-0.55,3.59-0.55,5.66v35.58h-12V894.54z"/>
		<path class="st10" d="M1005.21,940.46l-0.97-8.41h-0.41c-3.72,5.24-10.89,9.93-20.41,9.93c-13.51,0-20.41-9.52-20.41-19.17
			c0-16.14,14.34-24.96,40.13-24.83v-1.38c0-5.52-1.52-15.44-15.17-15.44c-6.21,0-12.69,1.93-17.38,4.96l-2.76-8
			c5.52-3.58,13.52-5.93,21.93-5.93c20.41,0,25.38,13.93,25.38,27.31v24.96c0,5.79,0.28,11.45,1.1,16H1005.21z M1003.41,906.4
			c-13.24-0.28-28.27,2.07-28.27,15.03c0,7.86,5.24,11.58,11.45,11.58c8.69,0,14.21-5.52,16.13-11.17c0.41-1.24,0.69-2.62,0.69-3.86
			V906.4z"/>
		<path class="st10" d="M1035.96,940.46v-57.51h-9.38v-9.24h9.38v-3.59c0-17.65,10.34-29.1,29.1-29.1c6.21,0,13.52,1.93,16.96,4.41
			l-3.45,9.24c-2.9-2.07-8.14-3.86-14.07-3.86c-12.82,0-16.55,8.96-16.55,19.58v3.31h38.75v66.75h-12v-57.51h-26.75v57.51H1035.96z"
			/>
		<path class="st10" d="M1154.42,937.98c-3.17,1.66-10.21,3.86-19.17,3.86c-20.13,0-33.24-13.65-33.24-34.06
			c0-20.55,14.07-35.44,35.86-35.44c7.17,0,13.52,1.79,16.83,3.45l-2.76,9.38c-2.9-1.66-7.45-3.17-14.07-3.17
			c-15.31,0-23.58,11.31-23.58,25.24c0,15.45,9.93,24.96,23.17,24.96c6.9,0,11.45-1.79,14.89-3.31L1154.42,937.98z"/>
		<path class="st10" d="M1168.62,842.55h12.14v41.65h0.28c1.93-3.45,4.97-6.48,8.69-8.55c3.58-2.07,7.86-3.45,12.41-3.45
			c8.97,0,23.31,5.52,23.31,28.55v39.72h-12.14v-38.34c0-10.76-4-19.86-15.45-19.86c-7.86,0-14.07,5.52-16.27,12.14
			c-0.69,1.66-0.83,3.45-0.83,5.79v40.27h-12.14V842.55z"/>
		<path class="st10" d="M1251.92,909.3c0.27,16.41,10.76,23.17,22.89,23.17c8.69,0,13.93-1.52,18.48-3.45l2.07,8.69
			c-4.28,1.93-11.59,4.14-22.2,4.14c-20.55,0-32.82-13.52-32.82-33.65c0-20.13,11.86-35.99,31.31-35.99
			c21.79,0,27.58,19.17,27.58,31.45c0,2.48-0.28,4.41-0.41,5.65H1251.92z M1287.5,900.61c0.14-7.72-3.17-19.72-16.82-19.72
			c-12.27,0-17.65,11.31-18.62,19.72H1287.5z"/>
		<path class="st10" d="M1355.89,847.51v92.95h-12v-92.95H1355.89z"/>
		<path class="st10" d="M1393.26,854.54v19.17h17.38v9.24h-17.38v35.99c0,8.28,2.34,12.96,9.1,12.96c3.17,0,5.52-0.41,7.03-0.83
			l0.55,9.1c-2.34,0.96-6.07,1.65-10.76,1.65c-5.65,0-10.21-1.79-13.1-5.1c-3.45-3.59-4.69-9.52-4.69-17.38v-36.41h-10.34v-9.24
			h10.34v-16L1393.26,854.54z"/>
		<path class="st10" d="M1461.25,940.46l-0.97-8.41h-0.41c-3.72,5.24-10.89,9.93-20.41,9.93c-13.51,0-20.41-9.52-20.41-19.17
			c0-16.14,14.34-24.96,40.13-24.83v-1.38c0-5.52-1.52-15.44-15.17-15.44c-6.21,0-12.69,1.93-17.38,4.96l-2.76-8
			c5.52-3.58,13.52-5.93,21.93-5.93c20.41,0,25.38,13.93,25.38,27.31v24.96c0,5.79,0.28,11.45,1.1,16H1461.25z M1459.46,906.4
			c-13.24-0.28-28.27,2.07-28.27,15.03c0,7.86,5.24,11.58,11.45,11.58c8.69,0,14.21-5.52,16.13-11.17c0.41-1.24,0.69-2.62,0.69-3.86
			V906.4z"/>
		<path class="st10" d="M1490.76,842.55h12.14v97.92h-12.14V842.55z"/>
		<path class="st10" d="M1536.82,854.96c0.14,4.14-2.9,7.45-7.72,7.45c-4.28,0-7.31-3.31-7.31-7.45c0-4.27,3.17-7.58,7.59-7.58
			C1533.93,847.37,1536.82,850.68,1536.82,854.96z M1523.31,940.46v-66.75h12.14v66.75H1523.31z"/>
		<path class="st10" d="M1592.54,940.46l-0.97-8.41h-0.41c-3.72,5.24-10.89,9.93-20.41,9.93c-13.51,0-20.41-9.52-20.41-19.17
			c0-16.14,14.34-24.96,40.13-24.83v-1.38c0-5.52-1.52-15.44-15.17-15.44c-6.21,0-12.69,1.93-17.38,4.96l-2.76-8
			c5.52-3.58,13.52-5.93,21.93-5.93c20.41,0,25.38,13.93,25.38,27.31v24.96c0,5.79,0.28,11.45,1.1,16H1592.54z M1590.74,906.4
			c-13.24-0.28-28.27,2.07-28.27,15.03c0,7.86,5.24,11.58,11.45,11.58c8.69,0,14.21-5.52,16.13-11.17c0.41-1.24,0.69-2.62,0.69-3.86
			V906.4z"/>
	</g>
</g>
</svg>
