<?xml version="1.0" encoding="utf-8"?>
<!-- Generator: Adobe Illustrator 27.0.0, SVG Export Plug-In . SVG Version: 6.00 Build 0)  -->
<svg version="1.1" id="Layer_1" xmlns="http://www.w3.org/2000/svg" xmlns:xlink="http://www.w3.org/1999/xlink" x="0px" y="0px"
	 viewBox="0 0 1700 1000" style="enable-background:new 0 0 1700 1000;" xml:space="preserve">
<style type="text/css">
	.st0{fill-rule:evenodd;clip-rule:evenodd;fill:#166EA8;}
</style>
<g>
	<polygon class="st0" points="1610,392.7 1667.2,392.7 1667.2,607.3 1610,607.3 1610,392.7 	"/>
	<polygon class="st0" points="827.3,392.7 884.5,392.7 884.5,480.3 885.1,480.3 949.6,392.7 1018.5,392.7 939.2,492.6 1024.6,607.3 
		951.8,607.3 885.1,509.8 884.5,509.8 884.5,607.3 827.3,607.3 827.3,392.7 	"/>
	<path class="st0" d="M1148.1,520.9h-53.8l27.7-83.9h0.6L1148.1,520.9L1148.1,520.9z M1006.1,607.3h58.1l16.9-45.8h80.5l16,45.8
		h62.7l-82.7-214.6h-70.1L1006.1,607.3L1006.1,607.3z"/>
	<path class="st0" d="M1248.5,554.3c14.7,8.1,35.3,14.2,59,14.2c18.2,0,35.4-3.7,35.4-21c0-40-101.4-14.7-101.4-92.8
		c0-51.6,50.4-65.7,93.5-65.7c20.6,0,40.9,3.1,55.3,8l-3.7,44.3c-14.7-6.8-31.4-9.8-47.6-9.8c-14.5,0-38.5,1.2-38.5,19.9
		c0,34.8,101.4,11.3,101.4,88.8c0,55.6-46.8,70.7-94.4,70.7c-19.9,0-44.9-3.1-63.9-9.3L1248.5,554.3L1248.5,554.3z"/>
	<polygon class="st0" points="1426.1,392.7 1577.5,392.7 1577.5,433.3 1483.3,433.3 1483.3,477.5 1572.2,477.5 1572.2,518.1 
		1483.3,518.1 1483.3,566.7 1580.8,566.7 1580.8,607.3 1426.1,607.3 1426.1,392.7 	"/>
	<path class="st0" d="M156.7,392.7h-32.3L32.8,607.3H65l21.9-54.2H192l21.8,54.2h33.6L156.7,392.7L156.7,392.7z M96.7,527.9
		l42.7-106.3l42.8,106.3H96.7L96.7,527.9z"/>
	<path class="st0" d="M263.9,576.5c11.4,7.4,27.7,11.1,36,11.1c13.2,0,29.5-5.5,29.5-22.4c0-28.6-67.9-26.2-67.9-70.1
		c0-32.6,24.3-48.3,55.4-48.3c13.5,0,24.6,2.8,35.9,6.1l-2.4,25.2c-6.4-4-23.7-8-30.4-8c-14.8,0-27.7,6.1-27.7,19
		c0,32,67.9,22.8,67.9,72.9c0,33.4-26.7,48.9-54.7,48.9c-14.8,0-29.8-1.5-43.1-8.7L263.9,576.5L263.9,576.5z"/>
	<path class="st0" d="M488.4,546.3c0,23.4-15.1,41.2-43.7,41.2c-13.2,0-29.2-8.9-29.2-25.5c0-27.7,38.7-30.2,54.4-30.2
		c6.1,0,12.3,0.6,18.5,0.6V546.3L488.4,546.3z M404.1,486.1c11.7-9.8,29.2-16,45.5-16c28.9,0,38.8,13.8,38.8,40.8
		c-11.4-0.6-19.4-0.6-30.8-0.6c-29.8,0-72.9,12.3-72.9,51.7c0,34.1,23.7,48.9,57.6,48.9c26.4,0,41.8-14.5,48.5-24h0.6v20.4h27.1
		c-0.6-4.7-1.2-13-1.2-30.8v-64.8c0-42.8-18.2-64.9-63-64.9c-20,0-37.2,6.1-51.6,14.7L404.1,486.1L404.1,486.1z"/>
	<path class="st0" d="M559.8,392.5h28.9v80.5h0.6c10.5-16.6,28.6-26.1,50.4-26.1c40.6,0,58.8,25.3,58.8,67.3v93.2h-28.9v-81.2
		c0-36.6-8-54.4-33.2-55.9c-32.9,0-47.6,26.4-47.6,64.5v72.6h-28.9V392.5L559.8,392.5z"/>
	<path class="st0" d="M741.2,450.5h28.9v156.8h-28.9V450.5L741.2,450.5L741.2,450.5z M739.4,392.3H772v32.6h-32.6V392.3L739.4,392.3
		z"/>
</g>
</svg>
