<?xml version="1.0" encoding="utf-8"?>
<!-- Generator: Adobe Illustrator 27.0.0, SVG Export Plug-In . SVG Version: 6.00 Build 0)  -->
<svg version="1.1" id="Layer_1" xmlns="http://www.w3.org/2000/svg" xmlns:xlink="http://www.w3.org/1999/xlink" x="0px" y="0px"
	 viewBox="0 0 1700 1000" style="enable-background:new 0 0 1700 1000;" xml:space="preserve">
<style type="text/css">
	.st0{fill:#1A171B;}
	.st1{fill:#E1001A;}
</style>
<g>
	<path class="st0" d="M674.5,315h60l-1.3,72.7h1.3c1.4-6.9,5.2-12.9,8.5-18.9l29.7-53.8h67.2l-53,81.6l58.6,86.1h-71.5L744.9,432
		c-3.6-6.4-9-12.7-10.3-19.6h-1.3l1.3,70.3h-60V315z"/>
	<path class="st0" d="M1023.7,398.3c0,55.5-43.4,88.8-96.7,88.8c-53.3,0-96.6-33.3-96.6-88.8c0-54.4,43.6-89.7,96.6-89.7
		C980.1,308.6,1023.7,343.9,1023.7,398.3 M895.3,398.8c0,19.7,12.5,34.8,31.7,34.8c19.2,0,30.9-15,30.9-34.8
		c0-18.4-10.7-35.6-30.9-35.6C906.9,363.2,895.3,380.5,895.3,398.8"/>
	<path class="st0" d="M1165.2,370.6c-11.7-6.5-26.9-7.4-35.9-7c-18.7,0.9-32.4,14.6-32.4,33.5c0,19.1,13.4,35.6,32.1,35.6
		c14.4,0,26.5-1.7,36.1-9.6v57.4c-10,4.8-34.3,6.6-45.5,6.6c-49.1,0-87.4-38.5-87.4-88.1c0-50.7,39.5-91.3,89.9-91.3
		c14.1,0,29.7,3.2,42.9,7.8V370.6z"/>
	<polygon class="st0" points="1182.3,315 1244.6,315 1244.6,371.5 1284.2,371.5 1284.2,315 1346.4,315 1346.4,482.7 1284.2,482.7 
		1284.2,424.4 1244.6,424.4 1244.6,482.7 1182.3,482.7 	"/>
	<polygon class="st0" points="1364.9,315 1482.3,315 1482.3,357.3 1429.7,357.3 1429.7,376.8 1477.8,376.8 1477.8,420.4 
		1429.7,420.4 1429.7,440.4 1484.1,440.4 1484.1,482.7 1364.9,482.7 	"/>
	<path class="st0" d="M1659,482.7h-71l-27-53.8h-1.1v53.8h-60.2V315h81.3c40.1,0.7,71,7.7,71,50c0,25.4-11,42-33.9,49.5v1.3
		L1659,482.7z M1559.9,392.7h4.3c17.8,0,25.2-5,25.2-17.5c0-12.9-7.4-17.9-24.8-17.9h-4.7V392.7z"/>
	<path class="st0" d="M881.5,519.4h73.1c33.5,0,67.6,7.8,67.6,46.5c0,14.7-7.6,29.1-22.7,33.8v1.3c18.8,6.5,30.7,19.8,30.7,39.8
		c0,34.5-33,46.3-63.3,46.3h-85.5V519.4z M945.5,583.9c9.2,0,19.5-0.9,19.5-12.5c0-12.5-11.7-11.6-20.9-11.6h-4.4v24H945.5z
		 M939.7,647.1h7.1c10.3,0,25.2-0.2,25.2-14c0-14-16.1-13.8-26.1-13.8h-6.2V647.1z"/>
	<polygon class="st0" points="1044.6,519.4 1160.9,519.4 1160.9,561.7 1107.5,561.7 1107.5,581.2 1156.4,581.2 1156.4,624.8 
		1107.5,624.8 1107.5,644.8 1162.7,644.8 1162.7,687.1 1044.6,687.1 	"/>
	<path class="st0" d="M1324.9,520.2h59.4l-1.3,72.8h1.3c1.3-6.9,5.1-12.9,8.5-18.9l29.4-53.8h66.5l-52.5,81.7l58.1,86.1h-70.8
		l-28.9-50.7c-3.6-6.5-8.9-12.7-10.2-19.6h-1.3l1.3,70.3h-59.4V520.2z"/>
	<path class="st0" d="M1305.4,575.6c-11.7-6.5-27-7.4-35.9-7c-18.7,0.9-32.4,14.6-32.4,33.5c0,19.1,13.4,35.6,32.1,35.6
		c14.4,0,26.5-1.7,36.1-9.6v57.4c-10,4.9-34.3,6.6-45.4,6.6c-49.1,0-87.4-38.5-87.4-88c0-50.7,39.5-91.3,89.9-91.3
		c14.2,0,29.7,3.2,42.9,7.9V575.6z"/>
	<polygon class="st1" points="840.3,598.4 760.9,598.4 760.9,519.7 752,519.7 752,598.4 673.3,598.4 673.3,607.3 752,607.3 
		752,686.7 760.9,686.7 760.9,607.3 840.3,607.3 	"/>
	<path class="st0" d="M434.3,314.8c48,0,87.7,38.1,87.7,86c0,48-38.9,86-86.9,86H276.6c48,0,86.9-38.9,86.9-86.9
		c0-48-38.9-85.1-86.9-85.1H434.3z"/>
	<path class="st1" d="M76.9,314.8l123.6,123.8c-5.2-11.3-8.1-24.4-7.9-39c0.3-40.5,29.2-75.4,64-84.8H76.9z"/>
	<path class="st0" d="M276.6,420.7c11.3,0,20.4-9.1,20.4-20.4c0-11.3-9.1-20.4-20.4-20.4c-11.2,0-20.4,9.1-20.4,20.4
		C256.3,411.6,265.4,420.7,276.6,420.7"/>
	<path class="st0" d="M276.6,621.6c11.3,0,20.4-9.1,20.4-20.4c0-11.3-9.1-20.4-20.4-20.4c-11.2,0-20.4,9.1-20.4,20.4
		C256.3,612.5,265.4,621.6,276.6,621.6"/>
	<path class="st0" d="M434.3,687.7c16.9,0,39.8-8.5,39.8-8.5L340.2,545.3c12.7,13.6,27.1,34.7,25.4,56.4c-3.1,40.4-30.5,87.2-89,86
		H434.3z"/>
	<path class="st1" d="M448.9,495.2c17.2,0,37.3,7.6,53.4,20.3C518.4,528.3,674.8,688,674.8,688H530.7c0,0-160.6-162.3-167.4-169.1
		c-14.8-14.8-33.4-23.7-33.4-23.7H448.9z"/>
	<path class="st0" d="M517.3,687.7c0,0-136.3-138.3-163.4-163.8c-34.1-32-56.7-27.2-77.3-27.3c-18.9-0.1-44.1-13.2-47.2-16
		c-9.5-8.3-165.5-165.9-165.5-165.9H41c0,0,145.2,145.3,164.6,165c28.6,29,57.4,30.7,70.9,30.7c17,0,40.7,2.5,54,13
		c9.5,7.4,163.8,164.2,163.8,164.2H517.3z"/>
</g>
</svg>
