<?xml version="1.0" encoding="utf-8"?>
<!-- Generator: Adobe Illustrator 27.0.0, SVG Export Plug-In . SVG Version: 6.00 Build 0)  -->
<svg version="1.1" id="Layer_1" xmlns="http://www.w3.org/2000/svg" xmlns:xlink="http://www.w3.org/1999/xlink" x="0px" y="0px"
	 viewBox="0 0 1700 1000" style="enable-background:new 0 0 1700 1000;" xml:space="preserve">
<style type="text/css">
	.st0{fill:#C8D419;}
	.st1{fill:#78B238;}
	.st2{fill:#71B654;}
</style>
<g>
	<path class="st0" d="M121.8,462.5c40.1,8.7,80,12.4,121,11.2c11.8-16.6,23-33.1,34-50c-17.7-34-48.3-58.4-83.7-68.5
		c-24.1,31.4-46.6,63.7-66.8,98C124.8,456.3,123.4,459.4,121.8,462.5"/>
	<path class="st1" d="M140.8,563c-18-2.2-35.9-5.1-53.6-8.7c-14.9-3.1-29.8-7-44.4-11.2c2.8-6.7,5.3-13.5,8.4-20.2
		c6.7-15.7,14.3-30.9,22.2-46c10.1-19.7,21.1-38.7,32.6-57.5c6.5-10.7,13.2-21.1,20.2-31.2c2.8-4.8,5.6-9.3,8.4-13.8
		c7-11.2,14.3-22.5,21.6-33.4c-17.1-1.4-34.8,0.6-52.2,5.9C31.6,369.5-8.5,446.7,14.2,519.2s99.9,112.6,172.4,89.8
		c25.3-7.9,46.9-22.7,62.9-41.3c-17.7,0.6-35.1,0.8-52.8,0C177.9,566.6,159.4,565.2,140.8,563"/>
	<rect x="95.6" y="502.9" class="st0" width="43.5" height="32.6"/>
	<rect x="128.2" y="488.6" class="st1" width="43.5" height="32.6"/>
	<rect x="157.1" y="515.8" class="st0" width="43.5" height="32.6"/>
	<rect x="186" y="492.2" class="st1" width="43.5" height="32.6"/>
	<polygon points="288.5,569.7 288.5,425.4 311.5,425.4 311.5,549.8 416.8,549.8 416.8,569.7 	"/>
	<path d="M476,451.2v101.1h83.4V451.2H581v90.7c0,10.9-2,18.2-5.9,22.2c-3.9,3.9-11.2,5.9-22.2,5.9h-70.5c-10.7,0-18-2-21.9-5.9
		c-3.9-3.9-5.9-11.2-5.9-22.2v-90.7H476z"/>
	<path d="M652,475.1c1.1,7,1.7,14,1.7,21.3V570h-19.9V451.5h16.3l83.7,77.5c5.1,4.8,9.8,10.4,13.8,16.3c-1.1-7-2-14.3-2-22.2v-71.6
		h19.9V570h-14.6l-85.3-78.6C659.6,486,655.4,480.7,652,475.1"/>
	<path d="M892.9,451.2c21.1,0,36.5,3.1,45.8,9.3c16.6,10.9,24.7,27.5,24.7,49.7c0,39.9-23.6,59.5-70.5,59.5h-65.7V451.2H892.9z
		 M890.4,468.9h-41.8v83.4h41.8c18,0,30.9-3.1,39-9.3c8.1-6.2,12.4-17.1,12.4-32.8c0-15.2-4.2-25.8-12.9-32.3
		C921,471.7,908.1,468.9,890.4,468.9"/>
	<path d="M1014.5,569.7V451.2h96.3c16.6,0,25,7.9,25,23.3v13.8c0,11.8-6.7,18.8-19.9,20.5c13.8,1.4,20.8,9.3,20.8,23V547
		c0,15.4-10.9,23.3-33.1,23.3h-89V569.7z M1114.1,489.4v-10.9c0-6.5-3.9-9.5-12.1-9.5h-66.3v30h66.3c4.5,0,7.6-0.6,9.5-1.7
		C1113.3,495.9,1114.1,493.3,1114.1,489.4 M1035.8,516.4v35.9h66.3c4.8,0,8.1-0.8,10.1-2.8c2-2,2.8-5.3,2.8-10.4v-9.3
		c0-9-4.2-13.2-12.9-13.2h-66.3V516.4z"/>
	<polygon points="1184.3,569.7 1184.3,451.2 1299.1,451.2 1299.1,468.9 1205.9,468.9 1205.9,499.2 1262.1,499.2 1262.1,516.9 
		1205.9,516.9 1205.9,552.6 1300.2,552.6 1300.2,569.7 	"/>
	<path d="M1340.7,569.7V451.2h91.8c16,0,23.9,7.6,23.9,23v26.7c0,15.2-7.9,22.7-23.9,22.7h-15.2l50.2,46.3h-28.9l-45.5-46.3h-31.4
		V570h-21.1V569.7z M1422.9,468.9H1362v38.2h60.9c5.6,0,9.3-1.4,10.7-4.2c0.8-1.7,1.4-4.2,1.4-7.9v-14
		C1435,472.8,1431,468.9,1422.9,468.9"/>
	<path d="M1614.4,468.9h-90.1v83.4h90.1v-32.6h-46.6v-16.3h67.9v38.2c0,10.9-2,18.2-5.9,22.2c-3.9,3.9-11.2,5.9-22.2,5.9h-77.2
		c-10.9,0-18.2-2-22.2-5.9s-5.9-11.2-5.9-22.2v-62.3c0-10.9,2-18.2,5.9-22.2c3.9-3.9,11.2-5.9,22.2-5.9h77.2c10.1,0,17.4,2,21.6,5.6
		c4.2,3.9,6.2,10.7,6.2,20.8v3.4l-21.6,3.9v-16H1614.4z"/>
	<polygon points="1654.2,554.3 1692.1,553.7 1692.1,557.6 1654.2,558.2 1654.5,568.3 1647.8,568.6 1647.5,543.9 1653.9,543.9 	"/>
	<polygon points="1691.8,537.1 1647.2,538 1646.9,516.1 1653.7,516.1 1653.9,533.8 1665.2,533.5 1665.2,522.8 1671.6,522.8 
		1671.9,533.5 1685.1,533.2 1684.8,515.2 1691.6,515.2 	"/>
	<path d="M1653.1,489.7l0.3,15.2l31.2-0.6l-0.3-15.2l-10.7,0.3l1.4-4.2h5.3c3.9,0,6.7,0.3,8.1,1.1c1.4,0.8,2.2,2.2,2.2,4.2l0.3,12.6
		c0,2-0.6,3.4-2,4.2c-1.4,0.8-4.2,1.1-8.4,1.1l-23.3,0.3c-4.2,0-7-0.3-8.4-0.8c-1.4-0.8-2.2-2-2.2-4.2l-0.3-12.6
		c0-2,0.6-3.4,2.2-4.2c1.4-0.8,4.2-1.1,8.4-1.1h4.2l1.4,3.9H1653.1z"/>
	<polygon points="1691,476.2 1646.6,476.8 1646.4,472.8 1664.3,472.6 1664,455.4 1646.1,455.7 1646.1,451.5 1690.4,451 
		1690.4,454.9 1670.8,455.2 1671.1,472.6 1690.7,472.3 	"/>
	<path class="st2" d="M310.7,595.2c9,0,14.6,1.4,17.1,4.5c2.5,3.1,3.9,9.5,3.9,19.9c0,11.2-1.4,18.2-3.9,21.3
		c-2.5,2.8-8.7,4.5-18.8,4.5c-9,0-14.6-1.4-17.1-4.2c-2.5-2.8-3.9-9.3-3.9-19.1c0-11.8,1.4-19.1,3.9-21.9
		C294.4,596.6,300.6,595.2,310.7,595.2 M310.1,603.1c-6.2,0-9.8,0.8-10.9,2.5c-1.1,1.7-1.7,7-1.7,16.6c0,7,0.6,11.2,2,12.6
		c1.1,1.4,4.8,2.2,10.9,2.2c5.9,0,9.3-0.8,10.4-2.5c1.1-1.7,1.7-6.5,1.7-14.6c0-8.1-0.6-12.9-1.7-14.6
		C319.7,603.9,316,603.1,310.1,603.1"/>
	<path class="st2" d="M369.4,610.1v34.2h-8.1l0.6-5.9h-0.3c-1.7,4.2-5.3,6.2-10.9,6.2c-7.9,0-11.8-3.9-11.8-11.8v-22.7h8.1v21.1
		c0,2.8,0.3,4.8,1.1,5.9c0.8,1.1,2.5,1.4,5.1,1.4c5.3,0,7.9-3.1,7.9-9.5v-18.8H369.4z"/>
	<path class="st2" d="M378.9,610.1h8.1l-0.6,4.8h0.3c2-3.6,5.1-5.3,9.3-5.3c5.9,0,9,3.9,9,11.5v2.5h-7.9c0-0.8,0.3-1.4,0.3-2
		c0-3.6-1.4-5.6-4.2-5.6c-3.9,0-6.2,2.8-6.2,8.1v20.2h-8.1L378.9,610.1L378.9,610.1z"/>
	<path class="st2" d="M478,610.1l-7.6,34.2h-12.1l-3.4-15.4c-0.6-2.5-1.1-4.8-1.4-6.2l-0.6-3.1l-0.6-3.1h-0.3l-0.6,3.1l-0.6,3.1
		c-0.3,1.4-0.6,3.4-1.4,5.9l-3.4,15.4h-12.6l-7.6-34.2h8.4l3.4,16c0.3,2,0.8,4.2,1.1,6.5l0.6,3.1l0.6,3.1h0.3l0.8-3.1l0.6-3.1
		c0.3-1.7,0.8-3.6,1.4-6.5l3.6-16h10.4l3.6,16c0.6,3.1,1.1,5.1,1.4,6.5l0.6,3.1l0.6,3.1h0.3l0.6-3.1l0.6-3.1
		c0.3-2.2,0.8-4.2,1.1-6.5l3.4-16h8.7V610.1z"/>
	<path class="st2" d="M491.7,620.2h-8.4c0-4.2,0.8-6.7,2.8-8.1c2-1.4,5.6-2,11.5-2c6.2,0,10.4,0.8,12.6,2.5c2.2,1.7,3.4,5.1,3.4,9.8
		v22.5h-8.1l0.3-4.8h-0.3c-1.7,3.4-5.3,5.1-10.9,5.1c-8.4,0-12.4-3.6-12.4-10.7c0-7,4.2-10.7,12.6-10.7c5.6,0,9,1.4,10.4,3.9h0.3
		v-5.6c0-2.8-0.6-4.5-1.4-5.3c-0.8-0.8-2.8-1.4-5.6-1.4C494,615.5,491.7,616.9,491.7,620.2 M497.4,629.2c-4.8,0-7,1.7-7,4.8
		c0,2.2,0.6,3.6,1.4,4.5c0.8,0.6,3.1,1.1,5.9,1.1c5.1,0,7.6-1.7,7.6-5.1C505.2,630.9,502.7,629.2,497.4,629.2"/>
	<path class="st2" d="M551.3,619.7h-8.1v-0.6c-0.3-1.7-0.6-2.8-1.4-3.1s-2.5-0.6-5.6-0.6c-4.2,0-6.5,1.4-6.5,4.2
		c0,2,0.3,3.1,1.1,3.4c0.8,0.3,3.4,0.6,7.6,0.8c5.9,0.3,9.5,1.1,11.5,2.2c1.7,1.4,2.5,3.9,2.5,7.9c0,4.2-1.1,7-3.6,8.7
		c-2.2,1.7-6.5,2.5-12.6,2.5c-5.9,0-9.8-0.8-12.1-2.2s-3.1-4.2-3.1-8.1V634h8.4c0,0.6-0.3,0.8-0.3,1.1c-0.3,3.1,2,4.5,7,4.5
		s7.9-1.4,7.9-4.5c0-2.8-1.7-4.2-4.8-4.2c-7.3,0-12.1-0.6-14.6-2c-2.2-1.4-3.4-4.2-3.4-8.7c0-3.9,1.1-6.5,3.1-7.9
		c2.2-1.4,6.2-2,12.4-2c5.6,0,9.5,0.6,11.5,2C550.1,613.2,551.3,615.7,551.3,619.7"/>
	<path class="st2" d="M582.1,610.1v6.2h-13.2v17.1c0,3.1,1.1,4.8,3.6,4.8c2.5,0,3.9-2,3.9-5.9v-1.4h7v1.7c0,1.7,0,2.8-0.3,3.9
		c-0.6,5.3-4.5,7.9-11.8,7.9c-7.3,0-10.9-3.4-10.9-10.1v-18.5H556v-5.6h4.5v-7.6h8.1v7.6H582.1z"/>
	<path class="st2" d="M611.1,633.7h8.1v1.4c0,6.7-5.1,10.1-15.2,10.1c-6.7,0-11.2-1.1-13.5-3.4c-2.2-2.2-3.1-7.3-3.1-14.9
		c0-6.7,1.1-11.2,3.4-13.5c2.2-2.2,6.5-3.4,12.9-3.4c6.2,0,10.1,1.1,12.4,3.4c2,2.2,3.1,6.7,3.1,13.2v2.5h-23.3c0,0.8,0,1.4,0,1.4
		c0,3.4,0.6,5.6,1.7,6.7c1.1,1.1,3.1,1.7,6.2,1.7c3.1,0,5.1-0.3,5.9-1.1C610.8,637.1,611.1,635.7,611.1,633.7 M611.3,623.9v-1.4
		c0-2.8-0.6-4.5-1.4-5.3c-0.8-0.8-3.1-1.1-6.2-1.1s-5.1,0.6-5.9,1.4c-0.8,0.8-1.4,3.1-1.4,6.5H611.3z"/>
	<path class="st2" d="M654.8,595.5v20.2h0.3c1.4-3.9,5.1-6.2,10.7-6.2c8.1,0,12.1,3.9,12.1,11.5v23.3h-8.4v-21.1v-1.1
		c0-3.9-2-5.9-6.2-5.9c-5.6,0-8.4,2.8-8.4,8.7v19.4h-8.1v-48.8H654.8z"/>
	<path class="st2" d="M695.3,620.2h-8.4c0-4.2,0.8-6.7,2.8-8.1c2-1.4,5.6-2,11.5-2c6.2,0,10.4,0.8,12.6,2.5c2.2,1.7,3.4,5.1,3.4,9.8
		v22.5h-8.4l0.3-4.8h-0.3c-1.7,3.4-5.3,5.1-10.9,5.1c-8.4,0-12.4-3.6-12.4-10.7c0-7,4.2-10.7,12.6-10.7c5.6,0,9,1.4,10.4,3.9h0.3
		v-5.6c0-2.8-0.6-4.5-1.4-5.3c-0.8-0.8-2.8-1.4-5.6-1.4C697.5,615.5,695.3,616.9,695.3,620.2 M700.9,629.2c-4.8,0-7,1.7-7,4.8
		c0,2.2,0.6,3.6,1.4,4.5c0.8,0.6,3.1,1.1,5.9,1.1c5.1,0,7.6-1.7,7.6-5.1C708.7,630.9,706.2,629.2,700.9,629.2"/>
	<path class="st2" d="M726.2,610.1h8.1L734,616h0.3c1.7-4.2,5.1-6.2,10.7-6.2c8.1,0,12.1,3.6,12.1,11.2v23.3h-8.1v-20.8v-1.4
		l-0.3-2.5c-0.3-2.5-2.5-3.9-5.9-3.9c-5.6,0-8.4,2.5-8.4,7.9v20.2h-8.1L726.2,610.1L726.2,610.1z"/>
	<path class="st2" d="M796.6,595.5v48.8h-8.1l0.3-5.6h-0.3c-1.7,3.9-5.1,5.9-10.4,5.9c-5.3,0-9-1.1-10.7-3.6
		c-1.7-2.5-2.5-7.6-2.5-15.2c0-6.2,0.8-10.4,2.8-12.6c2-2.2,5.3-3.6,10.1-3.6c5.6,0,9,1.7,10.4,5.3h0.3v-19.7h8.1V595.5z
		 M780.6,616.3c-3.1,0-5.1,0.6-5.9,2c-0.8,1.4-1.4,4.2-1.4,8.4c0,5.1,0.6,8.1,1.4,9.5c0.8,1.4,2.8,2.2,6.2,2.2s5.3-0.8,6.5-2.2
		c0.8-1.4,1.4-4.8,1.4-9.8c0-4.2-0.6-7-1.4-8.4C785.9,617.1,783.7,616.3,780.6,616.3"/>
	<rect x="805.9" y="595.5" class="st2" width="8.1" height="48.8"/>
	<path class="st2" d="M831.4,602.5h-8.1v-6.7h8.1V602.5z M831.4,644.7h-8.1v-34.5h8.1V644.7z"/>
	<path class="st2" d="M840.4,610.1h8.1l-0.3,5.9h0.3c1.7-4.2,5.1-6.2,10.7-6.2c8.1,0,12.1,3.6,12.1,11.2v23.3h-8.1v-20.8v-1.4
		l-0.3-2.5c-0.3-2.5-2.5-3.9-5.9-3.9c-5.6,0-8.4,2.5-8.4,7.9v20.2h-8.1V610.1z"/>
	<path class="st2" d="M911.1,610.1v34.8c0,5.6-1.1,9.5-3.4,11.5c-2.2,2-6.5,3.1-12.6,3.1c-5.9,0-9.8-0.8-11.8-2.2
		c-2-1.7-3.1-4.8-3.1-9.3h7.9c0,2.2,0.6,3.6,1.1,4.2c0.8,0.6,2.8,0.8,5.6,0.8c5.1,0,7.6-2,7.6-6.2v-7.6h-0.3
		c-1.4,3.6-4.8,5.6-10.1,5.6c-5.1,0-8.7-1.1-10.7-3.6c-2-2.5-2.8-7.3-2.8-14c0-6.5,0.8-10.9,2.8-13.5c2-2.5,5.3-3.6,10.4-3.6
		c5.3,0,9,2,10.7,6.2h0.3l-0.3-5.6h8.7V610.1z M894.9,616.3c-3.1,0-5.1,0.6-6.2,2c-0.8,1.4-1.4,4.2-1.4,8.7c0,4.8,0.6,7.9,1.4,9.3
		c0.8,1.4,3.1,2,6.2,2c3.4,0,5.3-0.6,6.2-2c0.8-1.4,1.4-4.5,1.4-9.3c0-4.5-0.6-7.6-1.4-8.7C900.5,617.1,898.2,616.3,894.9,616.3"/>
	<polygon class="st2" points="947.9,595.5 947.9,623.6 949.9,623.6 959.2,610.1 968.7,610.1 956.9,626.4 971.2,644.7 961.1,644.7 
		949.9,629.2 947.9,629.2 947.9,644.7 939.5,644.7 939.5,595.5 	"/>
	<path class="st2" d="M998.2,633.7h8.1v1.4c0,6.7-5.1,10.1-15.2,10.1c-6.7,0-11.2-1.1-13.5-3.4c-2.2-2.2-3.1-7.3-3.1-14.9
		c0-6.7,1.1-11.2,3.4-13.5c2.2-2.2,6.5-3.4,12.9-3.4c6.2,0,10.1,1.1,12.4,3.4c2,2.2,3.1,6.7,3.1,13.2v2.5H983c0,0.8,0,1.4,0,1.4
		c0,3.4,0.6,5.6,1.7,6.7c1.1,1.1,3.1,1.7,6.2,1.7c3.1,0,5.1-0.3,5.9-1.1C997.6,637.1,998.2,635.7,998.2,633.7 M998.2,623.9v-1.4
		c0-2.8-0.6-4.5-1.4-5.3c-0.8-0.8-3.1-1.1-6.2-1.1s-5.1,0.6-5.9,1.4c-0.8,0.8-1.4,3.1-1.4,6.5H998.2z"/>
	<path class="st2" d="M1036.4,633.7h8.1v1.4c0,6.7-5.1,10.1-15.2,10.1c-6.7,0-11.2-1.1-13.5-3.4c-2.2-2.2-3.1-7.3-3.1-14.9
		c0-6.7,1.1-11.2,3.4-13.5c2.2-2.2,6.5-3.4,12.9-3.4c6.2,0,10.1,1.1,12.4,3.4c2,2.2,3.1,6.7,3.1,13.2v2.5h-23.3c0,0.8,0,1.4,0,1.4
		c0,3.4,0.6,5.6,1.7,6.7c1.1,1.1,3.1,1.7,6.2,1.7c3.1,0,5.1-0.3,5.9-1.1C1035.8,637.1,1036.4,635.7,1036.4,633.7 M1036.4,623.9v-1.4
		c0-2.8-0.6-4.5-1.4-5.3c-0.8-0.8-3.1-1.1-6.2-1.1c-3.1,0-5.1,0.6-5.9,1.4c-0.8,0.8-1.4,3.1-1.4,6.5H1036.4z"/>
	<path class="st2" d="M1052.4,610.1h8.4l-0.3,5.1h0.3c2-3.6,5.6-5.6,11.2-5.6c5.1,0,8.4,1.1,10.4,3.6s2.8,7,2.8,13.5
		c0,6.7-0.8,11.5-2.8,14s-5.3,3.9-10.4,3.9c-5.3,0-9-1.7-10.7-5.3h-0.3V659h-8.7V610.1z M1068.6,616.3c-3.1,0-5.1,0.8-6.2,2.2
		c-0.8,1.4-1.4,4.5-1.4,9s0.6,7.3,1.4,9c1.1,1.4,3.1,2.2,6.2,2.2c3.1,0,5.3-0.6,6.2-2c0.8-1.4,1.4-4.5,1.4-9c0-4.8-0.6-7.6-1.4-9
		C1074.2,617.1,1072,616.3,1068.6,616.3"/>
	<path class="st2" d="M1121.4,619.7h-8.1v-0.6c-0.3-1.7-0.6-2.8-1.4-3.1c-0.8-0.3-2.5-0.6-5.6-0.6c-4.2,0-6.5,1.4-6.5,4.2
		c0,2,0.3,3.1,1.1,3.4c0.8,0.3,3.4,0.6,7.6,0.8c5.9,0.3,9.5,1.1,11.5,2.2c1.7,1.4,2.5,3.9,2.5,7.9c0,4.2-1.1,7-3.6,8.7
		c-2.2,1.7-6.5,2.5-12.6,2.5c-5.9,0-9.8-0.8-12.1-2.2c-2.2-1.4-3.1-4.2-3.1-8.1V634h8.4c0,0.6-0.3,0.8-0.3,1.1c-0.3,3.1,2,4.5,7,4.5
		s7.9-1.4,7.9-4.5c0-2.8-1.7-4.2-4.8-4.2c-7.3,0-12.1-0.6-14.6-2c-2.2-1.4-3.4-4.2-3.4-8.7c0-3.9,1.1-6.5,3.1-7.9
		c2.2-1.4,6.2-2,12.4-2c5.6,0,9.5,0.6,11.5,2C1120.3,613.2,1121.4,615.7,1121.4,619.7"/>
	<path class="st2" d="M1149.5,610.1h8.4l-0.3,5.1h0.3c2-3.6,5.6-5.6,11.2-5.6c5.1,0,8.4,1.1,10.4,3.6s2.8,7,2.8,13.5
		c0,6.7-0.8,11.5-2.8,14s-5.3,3.9-10.4,3.9c-5.3,0-9-1.7-10.7-5.3h-0.3V659h-8.7V610.1z M1165.8,616.3c-3.1,0-5.1,0.8-6.2,2.2
		c-0.8,1.4-1.4,4.5-1.4,9s0.6,7.3,1.4,9c1.1,1.4,3.1,2.2,6.2,2.2c3.1,0,5.3-0.6,6.2-2c0.8-1.4,1.4-4.5,1.4-9c0-4.8-0.6-7.6-1.4-9
		C1171.1,617.1,1169.1,616.3,1165.8,616.3"/>
	<path class="st2" d="M1190.2,610.1h8.1l-0.6,4.8h0.3c2-3.6,5.1-5.3,9.3-5.3c5.9,0,9,3.9,9,11.5v2.5h-7.9c0-0.8,0.3-1.4,0.3-2
		c0-3.6-1.4-5.6-4.2-5.6c-3.9,0-6.2,2.8-6.2,8.1v20.2h-8.1V610.1z"/>
	<path class="st2" d="M1236.8,609.8c6.7,0,10.9,1.1,12.9,3.1c2,2.2,3.1,6.5,3.1,13.5c0,7.6-1.1,12.6-3.1,14.9s-6.2,3.6-12.6,3.6
		c-7,0-11.5-1.1-13.8-3.4s-3.1-7-3.1-14.6c0-7.3,1.1-11.8,3.1-14C1225.6,611,1230.1,609.8,1236.8,609.8 M1236.8,616.3
		c-3.4,0-5.6,0.6-6.5,2c-0.8,1.1-1.4,4.2-1.4,8.7c0,5.1,0.6,8.4,1.4,9.8c0.8,1.4,3.1,2,6.7,2c3.4,0,5.6-0.6,6.5-2
		c0.8-1.4,1.4-4.8,1.4-9.8c0-4.5-0.6-7.3-1.4-8.4C1242.4,616.9,1240.2,616.3,1236.8,616.3"/>
	<path class="st2" d="M1291.5,595.5v48.8h-8.1l0.3-5.6h-0.3c-1.7,3.9-5.1,5.9-10.4,5.9c-5.3,0-9-1.1-10.7-3.6
		c-1.7-2.5-2.5-7.6-2.5-15.2c0-6.2,0.8-10.4,2.8-12.6c2-2.2,5.3-3.6,10.1-3.6c5.6,0,9,1.7,10.4,5.3h0.3v-19.7h8.1V595.5z
		 M1275.2,616.3c-3.1,0-5.1,0.6-5.9,2c-0.8,1.4-1.4,4.2-1.4,8.4c0,5.1,0.6,8.1,1.4,9.5c0.8,1.4,2.8,2.2,6.2,2.2
		c3.4,0,5.3-0.8,6.5-2.2c0.8-1.4,1.4-4.8,1.4-9.8c0-4.2-0.6-7-1.4-8.4C1280.6,617.1,1278.6,616.3,1275.2,616.3"/>
	<path class="st2" d="M1331.1,610.1v34.2h-8.1l0.6-5.9h-0.3c-1.7,4.2-5.3,6.2-10.9,6.2c-7.9,0-11.8-3.9-11.8-11.8v-22.7h8.1v21.1
		c0,2.8,0.3,4.8,1.1,5.9c0.8,0.8,2.5,1.4,5.1,1.4c5.3,0,7.9-3.1,7.9-9.5v-18.8H1331.1z"/>
	<path class="st2" d="M1362.3,631.5h8.1v1.1l-0.6,5.3c-1.1,4.8-5.9,7-14.6,7c-6.5,0-10.7-1.1-12.9-3.4c-2.2-2.2-3.1-7-3.1-14
		s1.1-11.5,3.1-14c2.2-2.5,6.2-3.6,12.4-3.6c5.9,0,9.8,0.8,12.1,2.5c2.2,1.7,3.1,5.1,3.1,9.8h-8.1c0-3.9-2.2-5.9-7-5.9
		c-3.4,0-5.3,0.6-6.2,2c-0.8,1.4-1.1,4.5-1.1,9.3c0,4.8,0.6,7.9,1.4,9c0.8,1.1,3.1,2,6.7,2c2.8,0,4.8-0.6,5.3-1.4
		C1361.7,636.2,1362.3,634.5,1362.3,631.5"/>
	<path class="st2" d="M1399.6,610.1v6.2h-13.2v17.1c0,3.1,1.1,4.8,3.6,4.8c2.5,0,3.9-2,3.9-5.9v-1.4h7v1.7c0,1.7,0,2.8-0.3,3.9
		c-0.6,5.3-4.5,7.9-11.8,7.9c-7.3,0-10.9-3.4-10.9-10.1v-18.5h-4.5v-5.6h4.5v-7.6h8.1v7.6H1399.6z"/>
	<path class="st2" d="M1414.8,602.5h-8.1v-6.7h8.1V602.5z M1414.8,644.7h-8.1v-34.5h8.1V644.7z"/>
	<path class="st2" d="M1438.9,609.8c6.7,0,10.9,1.1,12.9,3.1c2,2.2,3.1,6.5,3.1,13.5c0,7.6-1.1,12.6-3.1,14.9
		c-2,2.2-6.2,3.6-12.6,3.6c-7,0-11.5-1.1-13.8-3.4c-2-2.2-3.1-7-3.1-14.6c0-7.3,1.1-11.8,3.1-14
		C1427.7,611,1432.2,609.8,1438.9,609.8 M1438.9,616.3c-3.4,0-5.6,0.6-6.5,2c-0.8,1.1-1.4,4.2-1.4,8.7c0,5.1,0.6,8.4,1.4,9.8
		c0.8,1.4,3.1,2,6.7,2c3.4,0,5.6-0.6,6.5-2c0.8-1.4,1.4-4.8,1.4-9.8c0-4.5-0.6-7.3-1.4-8.4C1444.2,616.9,1442.3,616.3,1438.9,616.3"
		/>
	<path class="st2" d="M1462.8,610.1h8.1l-0.3,5.9h0.3c1.7-4.2,5.1-6.2,10.7-6.2c8.1,0,12.1,3.6,12.1,11.2v23.3h-8.1v-20.8v-1.4
		l-0.3-2.5c-0.3-2.5-2.5-3.9-5.9-3.9c-5.6,0-8.4,2.5-8.4,7.9v20.2h-8.1V610.1z"/>
	<path class="st2" d="M1552.9,610.1v34.8c0,5.6-1.1,9.5-3.4,11.5s-6.5,3.1-12.6,3.1c-5.9,0-9.8-0.8-11.8-2.2c-2-1.7-3.1-4.8-3.1-9.3
		h7.9c0,2.2,0.6,3.6,1.1,4.2c0.8,0.6,2.8,0.8,5.6,0.8c5.1,0,7.6-2,7.6-6.2v-7.6h-0.3c-1.4,3.6-4.8,5.6-10.1,5.6
		c-5.1,0-8.7-1.1-10.7-3.6s-2.8-7.3-2.8-14c0-6.5,0.8-10.9,2.8-13.5s5.3-3.6,10.4-3.6c5.3,0,9,2,10.7,6.2h0.3l-0.3-5.6h8.7V610.1z
		 M1536.9,616.3c-3.1,0-5.1,0.6-6.2,2c-0.8,1.4-1.4,4.2-1.4,8.7c0,4.8,0.6,7.9,1.4,9.3c0.8,1.4,3.1,2,6.2,2c3.4,0,5.3-0.6,6.2-2
		c0.8-1.4,1.4-4.5,1.4-9.3c0-4.5-0.6-7.6-1.4-8.7C1542.2,617.1,1540,616.3,1536.9,616.3"/>
	<path class="st2" d="M1577,609.8c6.7,0,10.9,1.1,12.9,3.1c2,2.2,3.1,6.5,3.1,13.5c0,7.6-1.1,12.6-3.1,14.9c-2,2.2-6.2,3.6-12.6,3.6
		c-7,0-11.5-1.1-13.8-3.4c-2-2.2-3.1-7-3.1-14.6c0-7.3,1.1-11.8,3.1-14C1565.8,611,1570.3,609.8,1577,609.8 M1577,616.3
		c-3.4,0-5.6,0.6-6.5,2c-0.8,1.1-1.4,4.2-1.4,8.7c0,5.1,0.6,8.4,1.4,9.8c0.8,1.4,3.1,2,6.7,2c3.4,0,5.6-0.6,6.5-2
		c0.8-1.4,1.4-4.8,1.4-9.8c0-4.5-0.6-7.3-1.4-8.4C1582.6,616.9,1580.4,616.3,1577,616.3"/>
	<path class="st2" d="M1609.3,602.5h-8.1v-6.7h8.1V602.5z M1609.3,644.7h-8.1v-34.5h8.1V644.7z"/>
	<path class="st2" d="M1618.6,610.1h8.1l-0.3,5.9h0.3c1.7-4.2,5.1-6.2,10.7-6.2c8.1,0,12.1,3.6,12.1,11.2v23.3h-8.1v-20.8v-1.4
		l-0.3-2.5c-0.3-2.5-2.5-3.9-5.9-3.9c-5.6,0-8.4,2.5-8.4,7.9v20.2h-8.1V610.1z"/>
	<path class="st2" d="M1689,610.1v34.8c0,5.6-1.1,9.5-3.4,11.5s-6.5,3.1-12.6,3.1c-5.9,0-9.8-0.8-11.8-2.2c-2-1.7-3.1-4.8-3.1-9.3
		h7.9c0,2.2,0.6,3.6,1.1,4.2c0.8,0.6,2.8,0.8,5.6,0.8c5.1,0,7.6-2,7.6-6.2v-7.6h-0.3c-1.4,3.6-4.8,5.6-10.1,5.6
		c-5.1,0-8.7-1.1-10.7-3.6s-2.8-7.3-2.8-14c0-6.5,0.8-10.9,2.8-13.5s5.3-3.6,10.4-3.6c5.3,0,9,2,10.7,6.2h0.3l-0.3-5.6h8.7V610.1z
		 M1673,616.3c-3.1,0-5.1,0.6-6.2,2c-0.8,1.4-1.4,4.2-1.4,8.7c0,4.8,0.6,7.9,1.4,9.3c0.8,1.4,3.1,2,6.2,2c3.4,0,5.3-0.6,6.2-2
		c0.8-1.4,1.4-4.5,1.4-9.3c0-4.5-0.6-7.6-1.4-8.7C1678.4,617.1,1676.1,616.3,1673,616.3"/>
</g>
</svg>
