<?xml version="1.0" encoding="utf-8"?>
<!-- Generator: Adobe Illustrator 26.1.0, SVG Export Plug-In . SVG Version: 6.00 Build 0)  -->
<svg version="1.1" id="Layer_1" xmlns="http://www.w3.org/2000/svg" xmlns:xlink="http://www.w3.org/1999/xlink" x="0px" y="0px"
	 viewBox="0 0 1700 1000" style="enable-background:new 0 0 1700 1000;" xml:space="preserve">
<style type="text/css">
	.st0{clip-path:url(#SVGID_00000005952339117536996750000006270912152390943154_);}
	.st1{clip-path:url(#SVGID_00000178897326430640652510000001609719190252566402_);}
	.st2{clip-path:url(#SVGID_00000078015497275487874610000018410105404352334997_);fill:#8C2332;}
	.st3{clip-path:url(#SVGID_00000129908415524319775510000000649878167271809952_);fill:#8C2332;}
	.st4{clip-path:url(#SVGID_00000110449860332900317460000012238629256251520384_);fill:#8C2332;}
	.st5{clip-path:url(#SVGID_00000129206048591311314850000014648018905684395942_);}
	.st6{clip-path:url(#SVGID_00000158738539064256476150000014194412057595801789_);}
	.st7{clip-path:url(#SVGID_00000054258092714506537780000004854067338335326606_);}
	.st8{clip-path:url(#SVGID_00000160173362161122206490000007438449426993291403_);}
	.st9{clip-path:url(#SVGID_00000058575356728367567830000007425454727877061806_);}
	.st10{clip-path:url(#SVGID_00000107556785964557198890000017170857175114709936_);}
	.st11{clip-path:url(#SVGID_00000166655007637614393280000016604857812676976313_);}
</style>
<g>
	<g>
		<g>
			<defs>
				<rect id="SVGID_1_" x="19.41" y="427.7" width="1661.18" height="144.6"/>
			</defs>
			<clipPath id="SVGID_00000113331063088310786300000008254745771755926966_">
				<use xlink:href="#SVGID_1_"  style="overflow:visible;"/>
			</clipPath>
		</g>
		<g>
			<defs>
				<rect id="SVGID_00000053510931985629539800000000530382072521177020_" x="19.41" y="427.7" width="1661.18" height="144.6"/>
			</defs>
			<defs>
				<rect id="SVGID_00000165196712143539974780000017063161192450192771_" x="19.41" y="427.7" width="1661.18" height="144.6"/>
			</defs>
			<clipPath id="SVGID_00000056422851837779842340000015710241698804868999_">
				<use xlink:href="#SVGID_00000053510931985629539800000000530382072521177020_"  style="overflow:visible;"/>
			</clipPath>
			
				<clipPath id="SVGID_00000026148004582724113310000007333764377142155165_" style="clip-path:url(#SVGID_00000056422851837779842340000015710241698804868999_);">
				<use xlink:href="#SVGID_00000165196712143539974780000017063161192450192771_"  style="overflow:visible;"/>
			</clipPath>
			<g style="clip-path:url(#SVGID_00000026148004582724113310000007333764377142155165_);">
				<g>
					<defs>
						<rect id="SVGID_00000108988639883559736580000003729469845497259393_" x="19.41" y="427.7" width="1661.18" height="144.6"/>
					</defs>
					<clipPath id="SVGID_00000127747802043652314270000015951354108463612296_">
						<use xlink:href="#SVGID_00000108988639883559736580000003729469845497259393_"  style="overflow:visible;"/>
					</clipPath>
					<path style="clip-path:url(#SVGID_00000127747802043652314270000015951354108463612296_);fill:#8C2332;" d="M355.88,521.03
						c0,23.33-19.65,45.74-43.59,50.04c-23.95,4.3-43.29-11.05-43.29-34.38c0-23.33,19.65-45.74,43.59-50.04
						C336.54,482.35,355.88,497.7,355.88,521.03"/>
				</g>
				<g>
					<defs>
						<rect id="SVGID_00000039092318563172158720000011897501096981829271_" x="19.41" y="427.7" width="1661.18" height="144.6"/>
					</defs>
					<clipPath id="SVGID_00000085947450331805043320000011677583704754283193_">
						<use xlink:href="#SVGID_00000039092318563172158720000011897501096981829271_"  style="overflow:visible;"/>
					</clipPath>
					<path style="clip-path:url(#SVGID_00000085947450331805043320000011677583704754283193_);fill:#8C2332;" d="M258.26,523.18
						h-9.52c-7.98-0.31-6.75-2.15-5.83-6.75c0,0,0-0.61,0.31-1.54c8.9-46.97,13.51-74.29,13.51-74.29
						c2.15-10.44-3.07-10.44-17.81-10.44h-50.04c-18.42,0-21.18,2.76-23.64,8.29c1.23-7.06-2.15-8.6-15.96-8.6
						c-52.5,0-52.8-1.84-58.64,10.13l1.23-5.22c0.31-1.23,0-2.46-0.92-3.38s-2.15-1.54-3.68-1.23H55.02c-3.07,0-5.83,1.84-6.45,4.91
						l-26.4,127.1c-0.31,1.23,0.31,2.76,1.23,3.68c0.92,0.92,2.15,1.54,3.68,1.54h34.08c3.07,0,5.83-2.15,6.75-4.91l16.27-82.58
						c0.61-2.76,1.23-3.99,2.76-4.61c2.46-0.61,4.91-0.92,7.06-0.61h17.5c12.89,0,10.13,1.23,7.37,17.19l-14.43,70
						c-0.31,1.23,0.31,2.46,0.92,3.38c0.92,0.92,2.15,1.53,3.68,1.53h30.39h3.68c3.07,0,5.83-2.15,6.45-4.91l11.36-54.95l5.53-27.02
						c1.23-5.22,3.07-5.22,10.13-5.22h17.5c12.89,0,10.13,1.23,7.37,17.19l-14.43,70c-0.31,1.23,0.31,2.76,1.23,3.68
						c0.92,0.92,2.46,1.54,3.68,1.54h5.22c15.66,0,42.06,0.31,49.43-0.31c3.07-0.31,5.83-2.15,6.75-5.22l6.75-34.08
						C261.63,524.1,261.02,522.87,258.26,523.18"/>
				</g>
				<g>
					<defs>
						<rect id="SVGID_00000136389917663839967450000005159176818961812364_" x="19.41" y="427.7" width="1661.18" height="144.6"/>
					</defs>
					<clipPath id="SVGID_00000114076034490632676040000014298569165761539483_">
						<use xlink:href="#SVGID_00000136389917663839967450000005159176818961812364_"  style="overflow:visible;"/>
					</clipPath>
					<path style="clip-path:url(#SVGID_00000114076034490632676040000014298569165761539483_);fill:#8C2332;" d="M481.45,523.18
						h-44.21c-20.26,0-20.26-12.89-19.03-19.34c0,0,0.92-4.3,1.23-5.22c8.9-46.66,10.44-58.02,10.44-58.02
						c1.84-10.44-3.38-10.44-18.11-10.44H287.73c-3.68-0.31-6.75,2.15-7.68,5.22l-6.75,34.38c-0.61,3.07,2.76,5.22,6.45,5.22h1.84
						c11.67,0,38.68,0,75.83,0c2.15,0,3.68,0,5.22,0c10.13,0.61,12.89,5.53,10.13,19.34l-11.36,55.26
						c-3.68,17.5,16.58,17.5,22.1,17.19h5.22c15.66,0,75.83,0.31,81.66,0c3.38-0.31,6.14-2.46,6.75-5.53l6.75-34.08
						C484.52,524.1,483.9,522.87,481.45,523.18"/>
				</g>
				<g>
					<defs>
						<rect id="SVGID_00000119807121279676893900000015132069631541604495_" x="19.41" y="427.7" width="1661.18" height="144.6"/>
					</defs>
					<clipPath id="SVGID_00000044859674386004783610000000665630494301688225_">
						<use xlink:href="#SVGID_00000119807121279676893900000015132069631541604495_"  style="overflow:visible;"/>
					</clipPath>
					<path style="clip-path:url(#SVGID_00000044859674386004783610000000665630494301688225_);" d="M951.46,500.77
						c3.38-3.07,5.53-7.06,6.45-11.36l2.15-11.97c2.15-12.89-11.67-23.64-25.48-23.64h-60.17c-14.43,0.61-26.71,10.13-29.47,23.64
						l-2.15,10.74h-6.75l2.15-10.74c2.46-12.89-6.75-23.64-20.57-23.64h-78.9c-10.13,0.31-19.03,7.37-20.88,16.58l-1.53,7.98h76.75
						c2.76,0,5.22,0.92,7.06,2.76c1.84,1.84,2.46,4.3,2.15,6.75h-64.47c-9.82,0.31-19.03,4.91-24.87,12.59
						c-2.46,3.38-4.3,7.06-4.91,11.05l-2.15,11.97c-2.15,12.89,6.75,23.64,20.57,23.64h73.37c14.43-0.61,26.71-10.13,29.47-23.64
						l2.15-10.74h6.75l-6.45,34.69h33.77l6.45-34.38h39.91l6.75,34.38h33.77l-7.06-41.44C947.47,504.45,949.62,502.92,951.46,500.77
						 M784.76,522.56h-45.13c-1.23,0-2.46-0.61-3.38-1.54c-0.92-0.92-1.23-2.15-0.92-3.38c0.61-2.76,3.07-4.61,5.83-4.61h55.87
						C796.12,518.57,790.9,522.56,784.76,522.56 M919.23,488.18h-42.67l0.92-4.61c0.61-2.76,3.07-4.6,6.14-4.91h37.45
						c1.23,0,2.46,0.31,3.38,1.54s1.23,2.15,0.92,3.38C924.75,486.03,921.99,488.18,919.23,488.18"/>
				</g>
				<g>
					<defs>
						<rect id="SVGID_00000003099074426645541270000009682683645561725344_" x="19.41" y="427.7" width="1661.18" height="144.6"/>
					</defs>
					<clipPath id="SVGID_00000019659326340338281060000004613270625274748847_">
						<use xlink:href="#SVGID_00000003099074426645541270000009682683645561725344_"  style="overflow:visible;"/>
					</clipPath>
					<path style="clip-path:url(#SVGID_00000019659326340338281060000004613270625274748847_);" d="M1074.57,500.77
						c3.38-3.07,5.53-7.06,6.45-11.36l6.75-35.61h-33.46l-4.91,26.4c-0.92,3.38-5.22,7.98-7.98,7.98h-41.45l6.45-34.38h-33.77
						l-8.9,46.97l-8.9,46.66h33.77l6.45-34.38h39.91l6.45,34.38h33.77l-7.06-41.44C1070.58,504.45,1072.73,502.92,1074.57,500.77"/>
				</g>
				<g>
					<defs>
						<rect id="SVGID_00000000202193969347968490000016210039525319418026_" x="19.41" y="427.7" width="1661.18" height="144.6"/>
					</defs>
					<clipPath id="SVGID_00000086669499336534370730000004320650579782104739_">
						<use xlink:href="#SVGID_00000000202193969347968490000016210039525319418026_"  style="overflow:visible;"/>
					</clipPath>
					<path style="clip-path:url(#SVGID_00000086669499336534370730000004320650579782104739_);" d="M688.06,454.1H561.57
						c-10.13,0.31-18.73,7.37-20.88,16.58l-5.53,30.09l-5.53,30.09c-0.92,3.99,0,8.29,2.76,11.67c2.76,3.38,7.06,5.22,11.67,4.91
						h15.96l8.6-46.66l2.15-11.67c1.23-5.83,6.45-10.13,12.89-10.13h12.28c2.76,0,5.53,0.92,7.06,3.07
						c1.54,2.15,2.46,4.61,1.84,7.37l-2.15,11.67l-5.53,30.09c-0.92,3.99,0,8.29,2.76,11.67c2.76,3.38,7.06,5.22,11.67,4.91h15.96
						l8.6-46.66l2.15-11.67c1.23-5.83,6.45-10.13,12.89-10.13h12.28c2.76,0,5.53,0.92,7.37,3.07c1.84,2.15,2.46,4.6,1.84,7.37
						l-2.15,11.67l-8.6,46.05h33.77l8.6-46.66l4.3-23.33C711.08,464.54,701.87,454.1,688.06,454.1"/>
				</g>
				<g>
					<defs>
						<rect id="SVGID_00000175309071342865085390000011440818149939606173_" x="19.41" y="427.7" width="1661.18" height="144.6"/>
					</defs>
					<clipPath id="SVGID_00000170984087264212584680000006054460624642659510_">
						<use xlink:href="#SVGID_00000175309071342865085390000011440818149939606173_"  style="overflow:visible;"/>
					</clipPath>
					<path style="clip-path:url(#SVGID_00000170984087264212584680000006054460624642659510_);" d="M1384.95,454.1h-85.96
						c-10.13,0.31-19.03,7.37-20.88,16.58l-5.83,30.09l-5.53,30.09c-0.92,3.99,0,8.29,2.76,11.67c2.76,3.38,7.06,5.22,11.67,4.91
						h15.96l8.6-46.66l2.15-11.67c1.23-5.83,6.45-10.13,12.89-10.13h39.6c2.76,0,5.53,0.92,7.06,3.07c1.84,2.15,2.46,4.61,1.84,7.37
						l-2.15,11.67l-5.83,30.09l0.31-0.31c-0.92,3.99,0,8.29,2.76,11.67s7.06,5.22,11.67,4.91h15.96l8.6-46.66l4.3-23.33
						C1407.97,464.54,1398.76,454.1,1384.95,454.1"/>
				</g>
				<g>
					<defs>
						<rect id="SVGID_00000109744606717230103490000006988392393419473342_" x="19.41" y="427.7" width="1661.18" height="144.6"/>
					</defs>
					<clipPath id="SVGID_00000183247934498507224610000015439682468513421959_">
						<use xlink:href="#SVGID_00000109744606717230103490000006988392393419473342_"  style="overflow:visible;"/>
					</clipPath>
					<path style="clip-path:url(#SVGID_00000183247934498507224610000015439682468513421959_);" d="M1645.28,454.1l-4.6,23.95
						c-1.23,5.83-6.45,10.13-12.89,10.13h-39.6c-2.76,0-5.53-0.92-7.37-3.07c-1.84-2.15-2.46-4.61-1.84-7.37l4.6-23.95h-33.77
						l-6.45,35.61c-0.92,3.68-0.31,7.67,0.92,11.36c3.07,7.67,11.05,12.59,19.65,12.28h22.41l-3.38,17.81
						c-0.92,3.99,0,8.29,2.76,11.67c2.76,3.38,7.06,5.22,11.36,4.91h15.96l6.45-34.38h22.41c9.82-0.31,18.73-4.91,24.56-12.28
						c2.46-3.38,4.3-7.06,5.22-11.36l6.75-35.61h-33.16V454.1L1645.28,454.1z"/>
				</g>
				<g>
					<defs>
						<rect id="SVGID_00000049942858463364882140000005023155913661286555_" x="19.41" y="427.7" width="1661.18" height="144.6"/>
					</defs>
					<clipPath id="SVGID_00000129922759563306105730000012150715091478228371_">
						<use xlink:href="#SVGID_00000049942858463364882140000005023155913661286555_"  style="overflow:visible;"/>
					</clipPath>
					<path style="clip-path:url(#SVGID_00000129922759563306105730000012150715091478228371_);" d="M1519.72,454.1h-78.59
						c-14.43,0.61-26.71,10.13-29.47,23.64l-4.3,23.33l-8.9,46.36h34.08l8.6-46.66l2.15-11.67c1.23-5.83,6.45-10.13,12.89-10.13
						h38.99c2.76,0,5.53,0.92,7.37,3.07c1.84,2.15,2.46,4.61,1.84,7.37l-2.15,11.67l-2.15,11.67c-1.23,5.83-6.45,9.82-12.59,10.13
						h-44.21l-4.6,24.87h63.55c14.43-0.61,26.71-10.13,29.47-23.64l4.3-23.02l4.3-23.33C1542.75,464.54,1533.54,454.1,1519.72,454.1
						"/>
				</g>
				<g>
					<defs>
						<rect id="SVGID_00000059276955585756242390000016336683040904422583_" x="19.41" y="427.7" width="1661.18" height="144.6"/>
					</defs>
					<clipPath id="SVGID_00000070101264651722231270000016190511818917689789_">
						<use xlink:href="#SVGID_00000059276955585756242390000016336683040904422583_"  style="overflow:visible;"/>
					</clipPath>
					<path style="clip-path:url(#SVGID_00000070101264651722231270000016190511818917689789_);" d="M1249.87,454.1h-78.9
						c-10.13,0.31-18.73,7.06-20.88,16.27l-1.54,8.29h77.06c2.76,0,5.53,0.92,7.37,3.07c1.84,2.15,2.46,4.61,1.84,7.06l-2.15,11.97
						l-2.15,11.67c-1.23,5.83-6.75,10.13-12.89,10.13h-45.13c-1.23,0-2.46-0.61-3.38-1.54c-0.92-0.92-1.23-2.15-0.92-3.38
						c0.61-2.76,3.07-4.6,6.14-4.6h45.44l2.15-12.28l2.15-12.59h-54.34c-9.82,0.31-19.03,4.91-24.87,12.59
						c-2.46,3.38-4.3,7.06-4.91,11.05l-2.15,11.97c-2.46,12.89,6.75,23.64,20.57,23.64h73.68c14.43-0.61,26.71-10.13,29.78-23.64
						l4.3-23.02l4.3-23.33C1272.89,464.54,1263.68,454.1,1249.87,454.1"/>
				</g>
			</g>
		</g>
	</g>
</g>
</svg>
