<?xml version="1.0" encoding="utf-8"?>
<!-- Generator: Adobe Illustrator 27.0.0, SVG Export Plug-In . SVG Version: 6.00 Build 0)  -->
<svg version="1.1" id="Layer_1" xmlns="http://www.w3.org/2000/svg" xmlns:xlink="http://www.w3.org/1999/xlink" x="0px" y="0px"
	 viewBox="0 0 1700 1000" style="enable-background:new 0 0 1700 1000;" xml:space="preserve">
<style type="text/css">
	.st0{fill:#AAAAAA;}
	.st1{fill:#019EE2;}
	.st2{fill:#FEFEFE;}
	.st3{fill:#919191;}
	.st4{fill:#FFFFFF;}
</style>
<g>
	<path class="st0" d="M241.6,256.2c70.3,0,132.8,33.4,172.5,85.3c14.7,19.3,26.3,41.1,34,64.6c6.9,21.2,10.6,43.8,10.6,67.2
		c0,119.9-97.2,217.1-217.1,217.1S24.5,593.3,24.5,473.4c0-23.6,3.8-46.3,10.7-67.6c7.6-23.4,19.1-45,33.8-64.1
		C108.7,289.7,171.3,256.2,241.6,256.2z"/>
	<polygon class="st1" points="543.8,651.8 602.1,651.8 604.8,360 743.1,460 885.2,361.7 885.2,651.8 944.6,651.8 944.6,298.8 
		885.2,298.8 744.2,400.2 605.3,298.8 543.8,298.8 	"/>
	<rect x="973.2" y="298.8" class="st1" width="56.2" height="353.1"/>
	<polygon class="st1" points="1267.9,646 1470.4,304.6 1672.9,646 1608.2,646 1470.4,406.4 1329.4,646 	"/>
	<circle class="st1" cx="1470.8" cy="589" r="62.5"/>
	<path class="st1" d="M1049.6,475.1c0-56.4,0.1-112.7-0.1-169c0-6.3,1.8-7.6,7.7-7.4c22.6,0.6,45.2-0.4,67.8,1.2
		c36.5,2.5,68.9,15.5,97.2,38.6c36.8,30.1,58.4,69.2,63.9,116.2c10.9,93.4-51.8,175.8-139,193.5c-16.6,3.3-33.2,3.6-50,3.5
		c-13.8-0.1-27.4-0.2-41.2,0.1c-5.1,0.1-6.4-1.3-6.4-6.3C1049.7,588.6,1049.6,531.9,1049.6,475.1z M1114.2,575.8
		c0,19.5,0,19.6,19.6,16.1c68.4-12.4,107.2-77.7,93.6-141.2c-11.7-54.3-52.5-88.9-107.7-93.2c-5.1-0.4-5.6,1.5-5.6,5.7
		c0.1,37.4,0.1,74.8,0.1,112.1C1114.2,508.8,1114.2,542.3,1114.2,575.8z"/>
	<circle class="st2" cx="242.5" cy="379.7" r="55"/>
	<g>
		<g>
			<path class="st3" d="M1311.5,684.2c2.2-1.7,4.5-2.8,7-3.4c6.1-1.3,11.8-0.8,16.6,3.5c0.6,0.5,1,0.2,1.4-0.1
				c3.1-2.2,6.6-3.5,10.4-3.9c3.8-0.3,7.6-0.2,11.3,1.3c5.9,2.3,9.6,7.5,9.7,13.8c0.1,9.3,0,18.6,0,27.9c0,0.9-0.3,1-1.1,1
				c-4.5,0-9,0-13.5,0c-0.9,0-1-0.3-1-1.1c0-8.4,0-16.8,0-25.2c0-2.9-1.7-5-4.4-5.6c-3.4-0.7-6.4,0.6-7.5,3.3
				c-0.4,1-0.5,2.1-0.5,3.1c0,8.1,0,16.1,0,24.2c0,0.9-0.1,1.3-1.2,1.3c-4.4-0.1-8.9-0.1-13.3,0c-0.9,0-1.1-0.2-1.1-1.1
				c0-8.2,0-16.4,0-24.6c0-2.6-0.8-4.7-3.3-5.7c-2.3-1-4.6-0.9-6.7,0.4c-1.7,1-2.4,2.7-2.4,4.6c0,8.4,0,16.7,0,25.1
				c0,1-0.3,1.3-1.3,1.3c-4.4-0.1-8.9,0-13.3,0c-0.8,0-1-0.2-1-1c0-13.9,0-27.8,0-41.7c0-0.7,0.2-1,1-1c4.4,0,8.9,0,13.3,0
				c0.8,0,1,0.2,1,1C1311.4,682.4,1311.5,683.2,1311.5,684.2z"/>
			<path class="st3" d="M1467.4,691.1c4,0,8.1,0,12.1,0c0.4,0,1-0.2,1,0.6c-0.1,4.5,0.1,9-0.4,13.5c-0.8,8.5-5.5,14.3-13.2,17.3
				c-9.2,3.6-18.6,3.6-27.6-1.2c-6.6-3.5-10.2-9.2-10.7-16.7c-0.4-5.9-0.3-11.8,0-17.7c0.5-10.6,7.2-16.9,16-19.4
				c7.8-2.3,15.7-1.9,23.2,1.4c6.8,3,10.8,8.4,12.5,15.7c0.1,0.6,0,0.9-0.7,0.9c-5,0-10.1,0-15.1,0c-0.4,0-0.8,0-0.9-0.5
				c-1.6-4.8-5.2-6.1-9.7-5.9c-4.9,0.1-7.6,2.4-8.2,7.3c-0.8,6.4-0.9,12.8,0.1,19.2c0.7,4.3,3.1,6.4,7.5,6.8
				c1.8,0.1,3.6-0.1,5.3-0.6c3.5-1.1,5.6-4.1,5.5-7.7c0-0.7-0.2-0.8-0.9-0.8c-2.7,0-5.4,0-8.1,0c-0.7,0-1-0.2-1-0.9
				c0-3.4,0-6.7,0-10.1c0-0.8,0.3-0.9,1-0.9C1459.2,691.1,1463.3,691.1,1467.4,691.1z"/>
			<path class="st3" d="M1606.9,720.9c-2.2,1.6-4.4,2.8-6.8,3.3c-6.2,1.3-12,0.9-17-3.5c-3.1-2.7-4.5-6.2-4.6-10.2
				c-0.1-9.6,0-19.2-0.1-28.9c0-0.7,0.3-0.9,0.9-0.9c4.5,0,9.1,0,13.6,0c0.9,0,1.1,0.3,1.1,1.1c0,8.2,0,16.3,0,24.5
				c0,2.3,0.5,4.4,2.7,5.6c2.4,1.3,4.8,1.3,7.2-0.1c1.9-1.1,2.6-2.8,2.6-4.9c0-8.3,0-16.6,0-25c0-0.9,0.2-1.2,1.2-1.2
				c4.5,0.1,8.9,0.1,13.4,0c0.9,0,1.1,0.2,1.1,1.1c0,13.8,0,27.6,0,41.5c0,0.8-0.1,1.1-1,1.1c-4.4-0.1-8.8,0-13.2,0
				c-0.8,0-1.1-0.2-1-1C1606.9,722.6,1606.9,721.8,1606.9,720.9z"/>
			<path class="st3" d="M1405,720.9c-2.8,2.2-5.9,3.4-9.2,3.8c-5.4,0.6-10.5-0.2-14.7-4.1c-3-2.8-4.4-6.3-4.5-10.3
				c-0.1-9.6,0-19.2-0.1-28.7c0-0.7,0.2-0.8,0.8-0.8c4.6,0,9.2,0,13.9,0c1,0,0.9,0.5,0.9,1.1c0,8.2,0,16.3,0,24.5
				c0,2.3,0.5,4.4,2.8,5.6c2.4,1.2,4.8,1.2,7.2-0.2c1.7-1,2.4-2.6,2.4-4.5c0-6.3,0-12.5,0-18.8c0-2.3,0-4.6,0-6.9
				c0-0.6,0.2-0.9,0.8-0.9c4.7,0,9.3,0,14,0c0.7,0,0.8,0.3,0.8,0.9c0,2.8,0,5.6,0,8.5c0,11,0,22.1,0,33.1c0,1-0.2,1.2-1.2,1.2
				c-4.3-0.1-8.6,0-12.9,0c-0.9,0-1.2-0.2-1.1-1.1C1405,722.6,1405,721.8,1405,720.9z"/>
			<path class="st3" d="M1193.4,692.1c0-8.9,0-17.9,0-26.8c0-0.9,0.2-1.2,1.2-1.2c4.8,0.1,9.7,0.1,14.6,0c1.1,0,1.4,0.3,1.4,1.4
				c0,14.7,0,29.4,0,44.1c0,1.1,0.3,1.3,1.3,1.3c8.9,0,17.8,0,26.7,0c0.9,0,1.2,0.2,1.1,1.1c-0.1,3.7-0.1,7.3,0,11
				c0,1-0.3,1.3-1.3,1.3c-10-0.1-20.1-0.1-30.1-0.1c-3.1,0-6.1,0-9.2,0c-2.6,0-4.7-1.5-5.5-3.7c-0.2-0.6-0.2-1.2-0.2-1.8
				C1193.4,709.7,1193.4,700.9,1193.4,692.1z"/>
			<path class="st3" d="M1504.1,684.1c7.6-5.6,18.9-4.8,23.9,0.2c-2.1,1.8-4.2,3.6-6.2,5.4c-1.5,1.3-3.1,2.5-4.5,3.9
				c-0.7,0.7-1.2,0.8-2,0.1c-1.9-1.5-4.1-1.9-6.4-1.3c-2.8,0.7-4.4,2.8-4.4,5.7c0,8.3,0,16.6,0,24.9c0,1-0.3,1.2-1.3,1.2
				c-4.4-0.1-8.9,0-13.3,0c-0.9,0-1.1-0.2-1.1-1.1c0-13.8,0-27.6,0-41.5c0-0.9,0.2-1.1,1.1-1.1c4.4,0,8.8,0,13.2,0
				c0.7,0,1,0.2,1,0.9C1504.1,682.4,1504.1,683.2,1504.1,684.1z"/>
			<path class="st3" d="M1675.5,696.1c0,3.9,0,7.8,0,11.7c-0.2,2.5-0.2,5-1.1,7.3c-1.5,4.2-4.2,7.1-8.5,8.5
				c-5.9,1.8-11.7,1.9-17.2-1.3c-0.4-0.3-0.9-0.6-1.3-0.9c-0.2,0.5-0.1,0.9-0.1,1.3c0,6.6,0,13.2,0,19.8c0,1-0.2,1.3-1.2,1.3
				c-4.4-0.1-8.9,0-13.3,0c-0.8,0-1.1-0.1-1.1-1c0-20.3,0.1-40.7,0-61c0-0.8,0.3-0.9,1-0.9c4.4,0,8.8,0,13.2,0c0.8,0,1,0.3,1,1.1
				c-0.1,0.7,0,1.4,0,2.3c2-1.5,4-2.7,6.2-3.2c4.9-1.2,9.8-0.9,14.4,1.1c4.9,2.2,7.1,6.4,7.8,11.4
				C1675.3,694.4,1675.4,695.2,1675.5,696.1z M1645.9,707.2c0,0.8,0.2,1.6,0.5,2.4c1,2.3,3,3.2,5.3,3.6c3.1,0.6,6.7-0.8,7.5-4.6
				c0.2-1.2,0.3-2.3,0.4-3.4c0.1-2.9,0.3-5.8-0.2-8.6c-0.3-1.4-0.9-2.6-2.2-3.5c-1.8-1.3-3.9-1.5-5.9-1.2c-2.5,0.4-4.4,1.6-5,4.5
				c-0.5,2.3-0.4,4.6-0.4,6.9C1645.9,704.5,1645.9,705.9,1645.9,707.2z"/>
			<path class="st3" d="M1273.7,706.9c-4.7,0-9.4,0-14.1,0c-0.9,0-1.2,0.1-1,1.1c0.8,3.1,3,4.7,5.9,5.2c4.6,0.8,9,0.5,12.7-2.7
				c0.5-0.5,0.9-0.5,1.4,0c2.6,2.3,5.2,4.5,7.9,6.8c0.7,0.6,0.5,0.8-0.1,1.3c-5,4.2-10.8,6.1-17.2,6.2c-4.1,0.1-8.1-0.1-12-1.2
				c-7.5-2.2-12.1-7.1-13.5-14.8c-0.9-4.6-0.9-9.2,0.4-13.7c2.1-7.2,6.9-11.8,14.1-13.8c6.3-1.7,12.6-1.6,18.6,1
				c8,3.4,11.7,9.9,12.1,18.5c0.1,1.7,0,3.4,0,5.2c0,0.8-0.2,1-1,1C1283.2,706.9,1278.4,706.9,1273.7,706.9z M1272.8,698
				c0.6,0,0.9-0.1,0.8-0.8c-0.4-2.7-1.8-4.6-4.5-5.4c-1.7-0.5-3.5-0.6-5.3-0.2c-2.8,0.6-4.7,2.6-5.2,5.4c-0.1,0.7,0,1.1,0.9,1.1
				c2.2-0.1,4.4,0,6.6,0C1268.3,698,1270.5,697.9,1272.8,698z"/>
			<path class="st3" d="M1571.1,701.9c0,4.1-0.1,7.6-1.3,10.9c-1.8,5-5.5,8.3-10.4,10.1c-7.5,2.8-15.1,2.7-22.4-0.8
				c-5.4-2.6-8.7-6.9-9.5-13c-0.6-4.6-0.6-9.2,0.1-13.8c0.8-5.2,3.6-9.3,8.2-11.8c8.6-4.6,17.4-4.6,26.1-0.2c5.7,2.9,8.5,7.9,9,14.2
				C1571,699.2,1571.2,700.9,1571.1,701.9z M1543,707.2c0.4,3.5,2,5.3,5.3,5.6c3.9,0.4,6.3-1,6.9-4.9c0.6-3.7,0.6-7.4-0.1-11
				c-0.4-2.2-1.6-3.8-3.9-4.3c-1.1-0.2-2.3-0.3-3.4-0.1c-2.3,0.3-3.7,1.5-4.4,3.7c-0.7,2.1-0.7,4.3-0.7,6.8
				C1542.7,704,1542.8,705.6,1543,707.2z"/>
		</g>
	</g>
	<path class="st4" d="M242.5,513.8L69,341.7c0,0-21.5,22.9-33.8,64.1l207.2,203.6l205.7-203.3c0,0-8.8-33.1-34-64.6L242.5,513.8z"/>
</g>
</svg>
