<?xml version="1.0" encoding="utf-8"?>
<!-- Generator: Adobe Illustrator 26.1.0, SVG Export Plug-In . SVG Version: 6.00 Build 0)  -->
<svg version="1.1" id="Layer_1" xmlns="http://www.w3.org/2000/svg" xmlns:xlink="http://www.w3.org/1999/xlink" x="0px" y="0px"
	 viewBox="0 0 1700 1000" style="enable-background:new 0 0 1700 1000;" xml:space="preserve">
<style type="text/css">
	.st0{fill:#2C3B58;}
	.st1{fill:#3D648F;}
	.st2{fill:#3E6490;}
	.st3{fill:#2D3B58;}
	.st4{fill:#3F6590;}
	.st5{fill:#32405C;}
</style>
<g>
	<path class="st0" d="M738.08,519.17c7.1-22.68,13.4-41.61,18.86-60.78c2.17-7.61,5.44-11.11,13.79-10.43
		c9.45,0.77,19.02,0.06,28.53,0.25c3.02,0.06,7.22-1.36,8.16,3.34c0.76,3.76-1.73,7.16-4.78,7.91c-9.5,2.34-7.74,8.52-6.81,15.4
		c2.6,19.32,4.51,38.73,7,58.06c1.13,8.79-0.55,18.4,12.83,21.63c6.34,1.53,1.31,8.6-3.08,9.41c-16.44,3.04-33.22,2-49.7,0.76
		c-7.03-0.53-2.96-7.5,0.39-8.83c10.26-4.09,8.73-11.77,7.84-19.85c-1.6-14.42-2.91-28.88-7.34-43.86
		c-7.04,20.24-14.19,40.44-21.05,60.75c-2.32,6.87-3.58,12.8-13.65,12.88c-10.13,0.07-12.73-5.03-15.37-12.81
		c-7.09-20.86-14.75-41.51-25-61.75c-1.42,17.25-2.7,34.52-4.35,51.75c-0.57,6.01,1.63,8.69,7.54,9.48c2.92,0.39,7.28,0.29,7.18,5.1
		c-0.08,3.85-3.02,6.66-6.23,6.84c-11.84,0.65-23.87,1.74-35.52,0.27c-6.59-0.83-3.23-7.69,0.16-9.31
		c9.76-4.66,9.16-13.38,10.11-21.61c2.38-20.78,4.65-41.58,6.84-62.39c0.42-3.97,2.65-8.74-3.64-10.58
		c-2.82-0.83-7.75,0.26-6.65-5.03c0.8-3.86,3.73-7.06,7.94-7.18c12.36-0.35,24.73-0.34,37.09-0.27c5.88,0.04,5.95,5.4,7.29,9.13
		C723.34,476.64,729.97,495.92,738.08,519.17z"/>
	<path class="st1" d="M117.25,515.9c0-15.48-0.15-30.97,0.07-46.45c0.09-6.38-3.69-8.11-8.84-8.84c-3.36-0.47-6.88-0.78-6.73-5.47
		c0.15-4.62,3.27-7.29,7.22-7.47c11.38-0.53,22.88-1.28,34.16-0.15c7.51,0.75,6.32,7.3,1.43,9.76c-8.36,4.2-7.63,10.79-7.6,17.91
		c0.11,24.26,0.23,48.52-0.07,72.78c-0.09,6.95,3.4,15.65-7.67,18.74c-10.1,2.82-18.09-0.46-24.07-7.95
		c-8.3-10.39-15.66-21.53-23.47-32.32c-8.24-11.38-16.53-22.73-27.73-33.25c0,16.38,0.22,32.77-0.1,49.15
		c-0.15,7.44,4.93,8.21,10.06,9.42c3.12,0.73,7.18,0.4,6.99,5.23c-0.17,4.41-3.31,7.6-7.09,7.81c-11.85,0.67-23.88,1.57-35.58,0.19
		c-7.75-0.92-4.83-8.46-0.86-10.15c10.27-4.37,8.38-12.52,8.41-20.34c0.07-18.55,0.32-37.11-0.12-55.65
		c-0.18-7.59,3.73-16.17-8.55-20.84c-6.19-2.36-0.17-8.81,5.04-10.52c16.12-5.31,32.8,0.53,42.81,14.55
		c12.98,18.18,25.97,36.34,38.96,54.51C115.02,516.33,116.13,516.11,117.25,515.9z"/>
	<path class="st0" d="M1033.94,491.46c7.67-4.28,13.42-8.52,19.86-10.89c18.59-6.86,33.65,3.45,34.33,23.32
		c0.44,12.83,0.16,25.69,0.11,38.54c-0.02,4.83-0.58,9.64,6.18,10.69c2.66,0.41,5.88,1.24,5.47,5.19c-0.41,3.85-3.12,6.41-6.52,6.53
		c-12.82,0.46-25.7,0.96-38.49,0.21c-7.01-0.41-4.78-5.61-2.07-9.18c11.41-15.09,6.15-31.36,2.67-47.02
		c-1.45-6.52-8.64-8.04-15.47-6.95c-7.88,1.25-5.94,7.28-6.01,12.18c-0.15,9.99-0.11,19.98,0,29.97c0.03,3.18-1.12,7.13,2.7,8.89
		c3.63,1.67,7.65,2.79,4.93,7.89c-1.99,3.74-5.79,4.56-9.81,4.55c-10.94-0.03-21.89,0.03-32.83,0c-2.82-0.01-6.3,0.35-7.16-3.08
		c-0.89-3.59,1.22-7.17,4.44-8.08c8.62-2.45,8.24-8.75,8.19-15.59c-0.17-24.26-0.11-48.53-0.04-72.79
		c0.02-6.79,1.07-13.96-9.32-13.61c-2.56,0.09-4.64-1.09-4.49-4.15c0.15-3.04,1.37-6.25,4.24-6.84c11.6-2.41,23.25-4.84,35.01-6.09
		c6.02-0.64,3.93,5.39,3.98,8.6C1034.08,459.18,1033.94,474.68,1033.94,491.46z"/>
	<path class="st1" d="M275.16,533.5c5.46-16.51,10.59-30.24,14.43-44.33c2.16-7.93,6.79-8.71,13.62-8.91
		c6.97-0.2,10.09,2.35,12.01,8.96c3.96,13.67,8.8,27.09,13.84,42.34c6.02-11.42,6.19-22.75,9.45-33.14c0.57-1.82,0.39-4-1.79-4.83
		c-4.22-1.61-8.45-3.15-5.44-8.93c2.43-4.67,7.04-4.14,11.31-4.2c2.38-0.03,4.81-0.32,7.13,0.05c5.4,0.85,12.42-3.06,15.96,2.58
		c4.32,6.89-5.02,8.95-6.77,13.71c-5.91,16.06-11.24,32.33-16.42,48.64c-2.07,6.52-4.59,12.51-10.17,16.74
		c-12.71,9.64-20.98,7.18-26.08-7.63c-3.49-10.16-7.08-20.29-11-31.53c-6.45,8.04-7,16.86-9.74,24.76
		c-2.27,6.53-5.28,12.22-11.15,16.04c-11.16,7.25-15.87,5.24-21.13-6.74c-9.44-21.49-11.94-45.65-26.48-65.36
		c-3.61-4.89,2.45-10.57,9.19-11.02c6.64-0.44,13.33-0.25,19.99-0.11c9.75,0.19,21.89-4.03,11.2,14.92
		C261.84,504.84,270.88,518.93,275.16,533.5z"/>
	<path class="st0" d="M1210.07,491.07c4.61-3.05,8.36-6.01,12.51-8.2c21.51-11.33,39.49-0.72,39.95,23.55
		c0.22,11.41,0.1,22.83,0.04,34.24c-0.03,5.68-1.1,11.71,7.2,12.78c2.3,0.3,4.67,1.34,4.42,4.49c-0.25,3.15-1.99,6.17-4.83,6.3
		c-13.73,0.63-27.52,1.34-41.22,0.64c-5.78-0.3-3.87-5.57-1.4-8.6c11.79-14.45,5.58-30.55,3.69-45.86
		c-0.92-7.39-8.38-9.57-15.82-8.61c-7.83,1.01-6.22,6.96-6.26,11.96c-0.08,9.99-0.13,19.98,0.04,29.96
		c0.06,3.55-1.42,7.94,3.59,9.72c2.71,0.96,5.77,1.59,4.65,5.6c-1,3.61-3.74,5.88-7.2,5.97c-12.83,0.32-25.73,0.99-38.49-0.01
		c-8.23-0.65-5.76-8-1.64-9.59c11.81-4.57,9.1-13.84,9.22-22.42c0.12-8.56-0.05-17.12,0.05-25.68c0.06-5.39,0.56-10.68-7.28-11.04
		c-3.23-0.15-7.05-0.98-6.31-5.75c0.56-3.62,3.08-6.12,6.55-6.76c10.75-1.98,21.51-4.54,32.36-5.07
		C1212.24,478.28,1205.76,487.29,1210.07,491.07z"/>
	<path class="st2" d="M1442.89,509.15c0-9.99,0.03-19.97-0.01-29.96c-0.03-7.38,1.84-15.66-9.08-17.67
		c-2.39-0.44-3.63-2.97-2.68-5.69c1.21-3.5,4.06-5.84,7.39-5.92c16.15-0.4,32.31-0.37,48.47-0.42c2.73-0.01,4.34,1.61,4.55,4.36
		c0.31,3.97-1.93,6.78-5.46,7.18c-13.16,1.51-11.79,10.92-11.7,20.07c0.17,19.02,0.01,38.05,0.09,57.07
		c0.02,5.02-1.27,12.08,6.95,10.7c7.83-1.32,18.15,8.77,23.47-4.68c0.52-1.33,0.81-2.77,1.48-4.01c3.06-5.63,4.87-14.96,12.95-12.52
		c9.53,2.88,2.86,11.45,1.82,16.96c-3.85,20.5-4.24,20.43-24.89,20.42c-19.02-0.01-38.05,0.05-57.07-0.06
		c-3.11-0.02-7.34,1.09-8.25-3.34c-0.38-1.84,1.08-5.55,2.52-6.04c12.51-4.28,9.53-14.53,9.6-23.61c0.07-7.61,0.01-15.22,0.01-22.83
		C1442.99,509.15,1442.94,509.15,1442.89,509.15z"/>
	<path class="st1" d="M400.19,565.33c-6.66,0-13.33-0.01-19.99,0c-3.45,0.01-6.9-0.05-7.55-4.55c-0.47-3.33,1.31-5.75,4.29-6.47
		c8.16-1.98,7.84-7.98,7.71-14.39c-0.23-11.42-0.06-22.84-0.07-34.27c0-4.8,0.41-9.4-6.27-10.84c-8.93-1.92-6.37-8.69-1.68-10.75
		c8.63-3.79,7.8-10.56,9.06-17.38c4.56-24.61,24.4-37.62,48.45-32.02c6.43,1.5,11.81,4.29,11.63,12.12
		c-0.09,4.09-2.37,7.25-5.47,9.62c-4,3.05-5.8-1.15-8.2-2.98c-3.8-2.89-7.57-6.66-12.69-3.91c-5.13,2.76-3.81,8.26-3.83,12.85
		c-0.05,9.48-3.13,21.35,13.75,18.62c3.4-0.55,5.08,2.06,5.1,5.36c0.02,5.02-3.22,9.16-7.37,9.21
		c-15.03,0.18-12.52,10.44-12.42,19.65c0.08,7.61,0.52,15.27-0.12,22.83c-0.76,8.99,1.34,14.7,11.63,15.11
		c2.88,0.12,7.47,0.44,6.84,5.31c-0.48,3.68-3.66,5.67-7.15,5.95c-8.52,0.68-17.07,0.95-25.61,1.38
		C400.2,565.64,400.2,565.49,400.19,565.33z"/>
	<path class="st3" d="M1391.05,568.66c-11.19,0.67-18.74-0.17-25.64-3.83c-8.21-4.36-11.05-11.43-9.1-20.37
		c1.31-6.03,6.18-8.18,11.48-9.15c5.77-1.06,5.27,4.03,6.49,7.35c1.92,5.22,5.35,8.81,10.87,10.35c6.35,1.77,13.29,2.44,16.39-4.13
		c3.5-7.42-4.21-9.41-8.85-11.98c-6.62-3.67-13.85-6.26-20.41-10.01c-9.03-5.16-13.36-13.23-12.38-23.81
		c0.99-10.64,7.12-17.37,16.68-21.11c12.81-5.01,25.83-5.48,39.09-1.46c5.66,1.71,9.59,4.29,8.56,10.89
		c-0.97,6.17-2.04,12.61-9,14.93c-5.33,1.78-9.75,0.45-9.61-6.3c0.2-9.68-6.82-8.71-12.83-8.87c-4.13-0.11-7.44,1.67-7.95,6.4
		c-0.79,7.28,4.09,9.99,9.81,11.94c4.04,1.38,8.17,2.52,12.13,4.1c16.29,6.52,23.07,15.61,21.16,28.07
		c-2.29,14.95-13,25.02-28.99,26.93C1395.22,569.04,1391.37,568.66,1391.05,568.66z"/>
	<path class="st1" d="M634.03,493.43c0,14.72-0.08,29.45,0.04,44.17c0.06,6.67-2.5,14.77,8.28,16.24c2.71,0.37,3.59,2.8,2.76,5.48
		c-0.95,3.08-3.51,4.99-6.29,5.08c-13.74,0.45-27.56,1.37-41.22,0.34c-7.73-0.59-5.64-7.99-1.52-10.02
		c10.2-5.04,8.52-13.53,8.55-21.83c0.09-22.8,0.02-45.59,0.21-68.39c0.05-6.55,0.26-12.63-8.81-12.91c-3.27-0.1-5.15-2.2-4.76-5.69
		c0.36-3.15,2.21-5.42,5.23-5.98c10.73-1.97,21.46-4.06,32.28-5.35c7.25-0.87,5.08,5.37,5.14,9
		C634.16,460.19,634.03,476.81,634.03,493.43z"/>
	<path class="st1" d="M1531.66,525.6c0-6.18,0-12.37,0-18.55c0-4.37-0.11-7.9-5.78-9.73c-10.74-3.46-8.03-10.37-0.45-13.1
		c7.48-2.7,8.72-6.27,9.09-13.23c0.78-14.52,13.84-12.36,22.5-13.51c9.79-1.3,5.58,8.15,5.47,12.51
		c-0.22,8.94,2.03,13.57,11.85,12.43c3.69-0.43,7.97-0.39,8.3,5.2c0.32,5.42-3.61,8.82-7.61,8.73
		c-14.05-0.32-12.76,8.86-12.47,17.98c0.21,6.65,0.25,13.32,0.01,19.98c-0.34,9.51,0.14,17.86,13.53,14.89
		c2.85-0.63,5.87-0.38,6.35,3.57c0.43,3.52-0.42,6.83-3.4,8.88c-10.98,7.54-22.9,8.15-35.43,4.61
		c-10.9-3.08-10.53-12.49-11.53-20.72c-0.8-6.56-0.16-13.3-0.16-19.95C1531.82,525.6,1531.74,525.6,1531.66,525.6z"/>
	<path class="st0" d="M953.61,569c-15.46-0.9-29.46-5.7-36.05-22.04c-8.08-20.01-4-38.35,9.77-54.43
		c10.59-12.37,30.16-17.5,44.19-12.33c7.51,2.77,13.74,7.11,14.26,15.92c0.41,7.04-3.79,11.63-10,14.08
		c-5.11,2.02-10.41,3.66-10.67-5.28c-0.14-4.89-1.68-9.92-7.55-10.52c-6.61-0.68-8.82,4.89-10.67,9.7
		c-3.5,9.1-4.05,18.63-1.49,28.02c4.01,14.68,16.1,19.29,33.02,13.11c2.75-1,5.73-5.14,8.54-0.89c1.88,2.84,0.95,6.47-0.79,9.48
		C979.03,566.18,967.01,568.25,953.61,569z"/>
	<path class="st4" d="M572.64,516.93c0.01,9.02,0.01,18.05,0.01,27.07c0,3.85-0.22,7.63,5.02,8.73c2.48,0.52,6.27,0.81,5.79,4.73
		c-0.44,3.6-3.43,6.05-6.66,6.72c-14.08,2.9-28.42,1.93-42.5,0.69c-6.29-0.55-4.19-7.73-0.37-9.17c10.61-4,8.28-12.34,8.36-20.04
		c0.11-9.97-0.12-19.95,0.07-29.92c0.11-5.78-0.56-10.47-7.84-10.89c-2.88-0.17-5.89-1.05-5.14-5.03c0.57-3.04,2.73-5.42,5.57-5.9
		c10.75-1.84,21.54-3.46,32.37-4.73c5.97-0.7,5.22,4.2,5.27,7.83C572.71,496.98,572.63,506.95,572.64,516.93z"/>
	<path class="st0" d="M1148.35,516.06c0.01,9.51,0.07,19.02-0.01,28.52c-0.04,4,0.01,7.5,5.3,8.28c2.49,0.36,6.27,0.44,5.96,4.49
		c-0.28,3.74-3.28,6.18-6.45,6.86c-14.07,3.04-28.43,1.84-42.55,0.85c-6.85-0.48-4.36-7.89-0.95-9.12c11.36-4.12,8.75-13,8.83-21.13
		c0.1-9.51-0.08-19.02,0.05-28.52c0.08-5.57-0.05-10.7-7.46-11.25c-2.9-0.22-6.02-0.71-5.68-4.65c0.26-3.03,2.17-5.78,5.05-6.3
		c11.21-2,22.47-3.8,33.78-5.11c5.43-0.63,3.95,4.28,4.02,7.14C1148.47,496.09,1148.33,506.07,1148.35,516.06z"/>
	<path class="st5" d="M1132.57,430.54c9.77,1.04,15.45,6,15.62,15.56c0.17,9.73-5.86,15.38-14.97,15.56
		c-9.88,0.2-16.29-5.75-16.02-16.01C1117.44,436.14,1123.71,431.5,1132.57,430.54z"/>
	<path class="st4" d="M556.23,461.42c-9.41-0.95-14.98-6.11-14.71-15.72c0.27-9.56,6-14.99,15.63-14.75
		c9.68,0.23,15.16,6.26,14.99,15.55C571.96,455.94,565.86,460.9,556.23,461.42z"/>
	<path class="st1" d="M1674.35,494.19c0.01,16.18,0.08,32.35-0.04,48.53c-0.04,5.07-0.05,9.53,6.84,9.89
		c2.56,0.13,6.22,0.52,5.58,4.64c-0.45,2.92-2.53,6.03-5.34,6.04c-12.31,0.06-25.16,11.92-36.99-1.63c-2.55-2.92-5,0.7-7.29,1.69
		c-26.98,11.56-50.13-3.14-51.22-32.58c-1.12-30.5,18.1-50.68,48.48-50.7c5.19,0,11.49,1.71,10.38-6.84
		c-0.85-6.53,5.33-16.13-7.14-18.23c-3.6-0.61-8.32-0.2-7.84-5.91c0.43-5.16,4.49-6.83,8.83-7.93c0.46-0.12,0.93-0.19,1.4-0.3
		c34.34-7.86,34.34-7.86,34.34,27.63C1674.34,477.07,1674.34,485.63,1674.35,494.19z M1645.52,507.25
		c-0.18-4.46,1.74-10.39-4.82-11.75c-5.48-1.14-11.16-1.59-15.95,3.2c-10.88,10.87-10.19,36.75,1.66,46.74
		c4.42,3.72,9.39,6.97,15.51,4.29c5.94-2.59,3.17-8.22,3.55-12.58c0.41-4.71,0.09-9.48,0.09-14.23
		C1645.57,517.69,1645.73,512.46,1645.52,507.25z"/>
	<path class="st1" d="M476.23,567.2c-29.41,0.03-43.15-13.51-43-42.34c0.14-26.45,21.15-46.9,48.47-47.15
		c27.09-0.25,45.85,16.93,45.61,41.76C527.01,550.5,509.17,567.17,476.23,567.2z M468.8,542.87c3.61,6.29,8.98,9.71,16.41,8.81
		c7.07-0.86,8.62-6.69,10.01-12.21c1.88-7.44,1.67-15.07,0.23-22.53c-2.09-10.8-4.26-23.89-18.49-22.43
		c-13.81,1.42-11.88,14.72-12.55,23.56C464.52,527.5,464.63,535.59,468.8,542.87z"/>
	<path class="st0" d="M902.27,525.25c0.82,8.46-3.7,21,8.79,29.7c4.17,2.9-0.87,6.54-3.11,9.05c-2.58,2.88-6.69,5.76-10.02,4.47
		c-16.16-6.25-31.96-1.33-48.09-0.49c-14.38,0.75-23.48-9.16-24.41-21.18c-1.11-14.28,8.04-20.37,19.85-23.94
		c5.45-1.65,11.06-2.73,16.63-3.97c5.37-1.19,11.94-0.58,10.99-9.45c-0.66-6.21-0.14-12.91-7.96-14.93
		c-7.87-2.04-12.69,2.03-15.64,8.93c-1.72,4.01-1.04,10.13-8.45,8.86c-4.37-0.75-8.84-1.69-10.45-6.23
		c-2.35-6.62,0.3-12.64,5.41-16.52c15.5-11.78,33.33-14.76,51.26-8.1c15.92,5.92,15.27,21.19,15.21,35.19
		C902.27,518.54,902.27,520.44,902.27,525.25z M868.05,529.74c-6.96,0.64-14.18,4.02-13.72,13.14c0.33,6.58,4.67,10.12,11.31,9.92
		c9.07-0.27,6.28-7.44,7.18-13.6C869.62,537.26,876.79,528.93,868.05,529.74z"/>
	<path class="st0" d="M1324.77,523.91c-3.33,0.01-6.74-0.43-9.97,0.12c-4.19,0.71-10.44-3.16-12.1,3.54
		c-1.33,5.35,1.49,10.52,5.78,13.85c10.07,7.82,21.1,6.95,32.42,2.79c2.65-0.97,5.34-5.66,8.44-1.35c2.64,3.67,0.27,7.3-1.86,10.48
		c-14.71,22.05-54.47,21.32-69.23-1.25c-9.4-14.36-7.53-41.11,3.96-56.75c10.73-14.61,28.19-20.33,46.99-15.42
		c16.37,4.28,25.82,21.74,20.85,38.03c-1.33,4.37-3.66,6.18-8.17,6.01C1336.19,523.74,1330.48,523.9,1324.77,523.91z
		 M1324.95,506.09c-0.36-6.83-3.23-13.59-11.6-13.6c-7.7-0.02-9.87,6.27-10.94,12.63c-1.58,9.42,5.73,6.05,10.62,7.01
		C1316.55,509.6,1325.51,516.66,1324.95,506.09z"/>
	<path class="st1" d="M221.26,540.32c2.72,6.07,1.29,9.76-1.45,13.45c-15.39,20.69-52.34,20.17-67.48-1.02
		c-10.44-14.61-9.02-41.44,3.06-57.91c11.01-15.01,29.44-20.7,48.39-14.95c15.84,4.81,24.77,23.97,18.76,39.22
		c-1.99,5.05-5.66,4.24-9.24,4.3c-9.51,0.14-19.05,0.45-28.54-0.04c-11.4-0.59-10.2,5.66-7.08,12.5
		c4.45,9.76,19.37,13.85,32.96,9.31C214.17,543.99,217.46,542.08,221.26,540.32z M198.28,505.69c-0.6-6.47-3.03-13.57-11.46-13.67
		c-8.56-0.09-10.51,6.75-11.33,13.5c-1.18,9.79,6.8,4.49,11.5,6.74C189.62,508.34,199.29,516.67,198.28,505.69z"/>
</g>
</svg>
