<?xml version="1.0" encoding="utf-8"?>
<!-- Generator: Adobe Illustrator 26.1.0, SVG Export Plug-In . SVG Version: 6.00 Build 0)  -->
<svg version="1.1" id="Layer_1" xmlns="http://www.w3.org/2000/svg" xmlns:xlink="http://www.w3.org/1999/xlink" x="0px" y="0px"
	 viewBox="0 0 1700 1000" style="enable-background:new 0 0 1700 1000;" xml:space="preserve">
<style type="text/css">
	.st0{fill-rule:evenodd;clip-rule:evenodd;fill:#FFFFFF;}
	.st1{fill-rule:evenodd;clip-rule:evenodd;fill:#E20613;}
	.st2{fill-rule:evenodd;clip-rule:evenodd;fill:#009CDE;}
</style>
<g>
	<polygon class="st0" points="31.51,274.35 1669.69,274.35 1669.69,725.68 31.51,725.68 31.51,274.35 	"/>
	<path class="st1" d="M31.57,274.32h1535.07c0,0-84.2,194.96-279.43,210.69c20.78,35.64-15.92,240.67-130.07,240.67H31.57V274.32
		L31.57,274.32z"/>
	<path class="st2" d="M1577.51,274.32h92.19v451.36h-464.24C1422.91,608.21,1577.51,274.32,1577.51,274.32L1577.51,274.32z"/>
	<path class="st0" d="M248.97,326.17h68.52l-12.21,57.7l122.04,0.03l-32.88,56.31H291.22l-25.82,105.14c0,0-14.06,38.46,13.61,48.33
		c53.04,17.34,99.03-21.12,99.03-21.12l11.73,54.91c0,0-48.34,38-113.1,31.43c-51.16-1.4-90.1-33.8-85.41-81.65
		c5.16-38.49,31.43-137.98,31.43-137.98H118.53l31.46-55.86h84.92L248.97,326.17L248.97,326.17z"/>
	<path class="st0" d="M461.08,538.77c0,0-15,54.92,48.34,60.55c55.85,3.73,64.3-35.22,64.76-35.22c70.41,0,70.41,0,70.41,0
		s-18.31,100.92-147.35,94.32c-63.82,0.03-120.16-49.73-104.19-142.17c0,0,9.85-143.62,161.9-138.92
		c71.8,5.15,101.83,41.76,106.98,86.34c3.76,34.28-8.88,75.09-8.88,75.09H461.08L461.08,538.77z"/>
	<path class="st0" d="M1087.55,483.85c0,0-100.86-9.85-142.17,22.55c-52.55,41.76-42.24,96.65-42.24,96.65
		c13.6,57.74,76.49,56.79,76.49,56.79c51.61-1.39,80.25-24.4,80.25-24.4l2.82,18.3h64.28c0,0-4.32-27.4,0-38.49
		c-1.39-1.88,33.34-150.19,33.34-150.19s17.82-48.34-35.67-72.25c-40.36-21.61-85.4-12.69-85.4-12.69s-78.86,2.82-94.8,79.8h74.13
		c0,0,5.63-31.92,46.45-29.58C1116.64,428.95,1087.55,483.85,1087.55,483.85L1087.55,483.85z"/>
	<path class="st0" d="M1212.19,392.6c-5.02,5.05-7.52,11.11-7.52,18.25c0,7.19,2.5,13.32,7.46,18.36
		c5.02,5.08,11.08,7.59,18.25,7.59c7.17,0,13.23-2.52,18.25-7.59c4.99-5.04,7.51-11.17,7.51-18.36c0-7.14-2.52-13.21-7.51-18.25
		c-5.05-5.07-11.12-7.59-18.25-7.59C1223.27,385.01,1217.21,387.53,1212.19,392.6L1212.19,392.6z M1251.61,432.11
		c-5.85,5.87-12.93,8.83-21.23,8.83c-8.29,0-15.35-2.96-21.18-8.83c-5.8-5.85-8.7-12.94-8.7-21.26c0-8.24,2.93-15.3,8.75-21.15
		c5.85-5.83,12.89-8.73,21.13-8.73c8.29,0,15.37,2.9,21.23,8.73c5.85,5.82,8.78,12.88,8.78,21.15
		C1260.39,419.15,1257.46,426.23,1251.61,432.11L1251.61,432.11z M1236.03,399.5c-1.46-0.81-3.79-1.24-6.98-1.24h-4.94v11.92h5.21
		c2.47,0,4.29-0.24,5.52-0.73c2.26-0.88,3.39-2.6,3.39-5.12C1238.22,401.94,1237.5,400.33,1236.03,399.5L1236.03,399.5z
		 M1229.83,394.32c4.08,0,7.06,0.4,8.96,1.18c3.41,1.42,5.1,4.19,5.1,8.32c0,2.95-1.07,5.1-3.22,6.49
		c-1.15,0.73-2.74,1.26-4.78,1.61c2.6,0.4,4.48,1.48,5.69,3.22c1.18,1.75,1.79,3.44,1.79,5.11v2.41c0,0.75,0,1.56,0.05,2.44
		c0.05,0.86,0.16,1.46,0.3,1.69l0.21,0.43h-5.42c-0.03-0.11-0.08-0.21-0.08-0.33c-0.02-0.11-0.05-0.23-0.08-0.37l-0.14-1.07v-2.6
		c0-3.81-1.05-6.31-3.09-7.55c-1.23-0.72-3.41-1.07-6.47-1.07h-4.57v13h-5.8v-32.91H1229.83L1229.83,394.32z"/>
	<path class="st1" d="M471.42,481.97h119.65c0,0,15.97-52.2-48.79-51.15C485.03,430.34,471.42,481.97,471.42,481.97L471.42,481.97z"
		/>
	<path class="st1" d="M1076.3,532.65c0.46,0.48-105.13-13.12-101.83,53.51C991.84,627.94,1075.85,595.56,1076.3,532.65
		L1076.3,532.65z"/>
	<path class="st0" d="M660.53,564.1h68.52c0,0-12.21,43.94,45.98,41.31c52.09-2.36,37.55-35.22,37.06-34.73
		c-4.69-23.46-88.22-29.09-117.77-84.95c-23.46-77.91,64.77-103.25,68.5-102.79c82.13-18.3,128.14,12.67,128.14,12.67
		c37.52,19.73,30.49,63.85,30.49,63.85H853.4c0,0,5.15-30.51-42.71-31c-49.28,0.49-40.37,30.06-40.37,30.06
		c6.12,22.52,81.19,37.55,101.38,63.35c53.78,70.64-11.81,134.98-79.31,137.98c-103.71,3.76-116.7-24.53-119.2-25.36
		C643.86,606.43,660.53,564.1,660.53,564.1L660.53,564.1z"/>
</g>
</svg>
