<?xml version="1.0" encoding="utf-8"?>
<!-- Generator: Adobe Illustrator 27.0.0, SVG Export Plug-In . SVG Version: 6.00 Build 0)  -->
<svg version="1.1" id="Layer_1" xmlns="http://www.w3.org/2000/svg" xmlns:xlink="http://www.w3.org/1999/xlink" x="0px" y="0px"
	 viewBox="0 0 1700 1000" style="enable-background:new 0 0 1700 1000;" xml:space="preserve">
<style type="text/css">
	.st0{clip-path:url(#SVGID_00000048477662729427329020000011466669545369758852_);fill:#E01B22;}
</style>
<g>
	<defs>
		<rect id="SVGID_1_" x="-22.9" width="1721.6" height="1116.4"/>
	</defs>
	<clipPath id="SVGID_00000110441673569788627520000003112247709521916839_">
		<use xlink:href="#SVGID_1_"  style="overflow:visible;"/>
	</clipPath>
	<path style="clip-path:url(#SVGID_00000110441673569788627520000003112247709521916839_);fill:#E01B22;" d="M1626.7,674.6h-96.4
		l0-191.8c0-13.2-10.8-24-24-24c-13.3,0-24,10.7-24,24l0,191.8h-96.1V458.9h-64l92.3-43.9c6.3-2.4,12.6-4.1,19.8-4.1
		c24,0,43.9,17.6,47.4,40.6l76.5-36.2c6.2-2.4,12.9-4.3,20-4.3c26.5,0,48.4,21.5,48.4,47.9V674.6z M1026.4,674.5H930l0.1-191.8
		c0-13.2-10.8-24-24-24c-13.2,0-24,10.7-24,24v191.8h-96V458.8h-64l92.3-43.9c6.3-2.4,12.6-4.1,19.8-4.1c24,0,43.9,17.6,47.5,40.6
		l76.5-36.2c6.2-2.4,12.9-4.3,20-4.3c26.5,0,48.3,21.5,48.3,47.9V674.5z M437,441l-131,77.3l69.2-112.3
		c-20-12.3-42.1-18.7-69.4-18.7c-72.7-0.1-132,57.8-131.7,131.2c-0.2,73.2,59.1,131.9,132.1,131.9c47.5,0,89.2-25,112.4-62.6
		l6.2,19.2c-32.1,42.5-92.6,75.7-172.6,75.7C120.9,682.7,49.6,603,49.7,518.5c-0.1-84.7,74.8-163.7,202.5-163.7
		C341.9,354.8,399.1,388,437,441 M1058.3,546.7c0-75,60.9-135.9,136.1-135.9c75.1,0,136.1,60.9,136.1,135.9
		c0,75.1-60.9,135.9-136.1,135.9C1119.2,682.6,1058.3,621.8,1058.3,546.7 M1226.2,662.1c16.2-4.7,24.8-20.1,20.5-36L1199,451.3
		c-4.1-15.5-19.7-24.8-36.1-20.2c-15.4,4.3-24.6,19.9-20.1,35.9l48,174.8C1194.7,657.6,1210.5,666.3,1226.2,662.1 M585.8,643.7
		c27.2,0,49.2-22,49.2-49.2c0-27.2-22-49.2-49.2-49.2c-27.2,0-49.2,22-49.2,49.2C536.5,621.7,558.6,643.7,585.8,643.7 M698.2,469.8
		l57.2,204.9l-96.2,0l-12.4-45.3c-19.8,28.3-59.7,51.2-108.8,51.2c-44,0.1-99.5-34.4-99.6-86.3c0.2-51.8,55.6-85.7,99.8-85.8
		c31.3,0.1,59.3,8.2,82.2,26.4l-21.4-76.4H474.2L587,416.6C644,395.4,688.8,434.9,698.2,469.8"/>
</g>
</svg>
