<?xml version="1.0" encoding="utf-8"?>
<!-- Generator: Adobe Illustrator 26.1.0, SVG Export Plug-In . SVG Version: 6.00 Build 0)  -->
<svg version="1.1" id="Layer_1" xmlns="http://www.w3.org/2000/svg" xmlns:xlink="http://www.w3.org/1999/xlink" x="0px" y="0px"
	 viewBox="0 0 1700 1000" style="enable-background:new 0 0 1700 1000;" xml:space="preserve">
<style type="text/css">
	.st0{fill:#DB8A3B;}
	.st1{fill:#DA8B3C;}
	.st2{fill:#D98C3C;}
	.st3{fill:#626262;}
	.st4{fill:#616362;}
</style>
<g>
	<path class="st0" d="M135.07,416.85l9.66-33.39c0,0-21.84-7.98-45.57-7.98s-82.32,14.91-83.16,86.93s50.82,85.88,81.9,85.88
		s45.99-6.09,45.99-6.09l-8.61-32.55c0,0-19.95,5.88-33.39,5.88s-40.32-7.56-40.32-52.08s25.2-52.5,43.47-52.5
		S135.07,416.85,135.07,416.85z"/>
	<path class="st1" d="M153.97,379.26l0.42,169.04h45.78v-99.11c0,0-1.26-30.66,23.52-30.66s28.77,0,28.77,0v-39.27
		c0,0-41.37-3.15-54.6,23.73l-4.83-23.84L153.97,379.26z"/>
	<path class="st2" d="M291.93,446.04c0,0-2.52-35.49,30.45-35.49s33.6,35.49,33.6,35.49H291.93z M326.58,375.48
		c-19.53,0-79.59,10.29-80.85,89.45c-1.26,79.17,60.27,86.93,92.18,86.93s51.03-9.66,51.03-9.66l-5.88-35.07
		c-10.71,8.19-45.36,9.03-45.36,9.03c-53.13,0-45.82-38.22-45.82-38.22h105.46C407.43,386.61,346.11,375.48,326.58,375.48z"/>
	<path class="st2" d="M469.57,375.48c62.15-3.57,68.47,55.23,68.47,55.23v110.45l-56.7,10.71c0,0-78.54,11.55-80.22-55.65
		s95.75-56.28,95.75-56.28c-1.26-23.94-14.7-28.98-32.34-29.4s-41.58,6.3-41.58,6.3l-10.5-30.66
		C412.47,386.19,407.43,379.05,469.57,375.48z M441.86,494.13c-0.84,32.34,52.92,20.16,52.92,20.16v-44.52
		C494.78,469.77,442.7,461.79,441.86,494.13z"/>
	<path class="st1" d="M538.04,413.07v-10.08l59.64-73.5h8.82v49.65h102.47V548.3h-45.36V414.33l-57.54-0.42l0.84,78.8
		c0,0-2.94,29.55,41.16,18.63l3.78,31.5c0,0-1.26,5.46-34.02,5.46c-32.76,0-56.7-16.38-57.12-42c-0.42-25.62-0.42-92.81-0.42-92.81
		L538.04,413.07z"/>
	<polygon class="st1" points="879.9,378.63 832.02,378.63 795.48,502.94 758.53,378.63 708.97,379.15 771.54,548.3 817.74,548.3 	
		"/>
	<path class="st3" d="M1363.29,543.26c-8.82,3.78-63.63,8.19-63.63,8.19s-89.45,9.45-88.82-90.71s106.46-82.11,106.46-82.11v-71.61
		h45.99V543.26z M1319.19,412.86c0,0-63-15.96-63,50.61s63,47.67,63,47.67V412.86z"/>
	<path class="st2" d="M913.5,444.76c0,0-2.52-35.49,30.45-35.49s33.6,35.49,33.6,35.49H913.5z M948.14,374.2
		c-19.53,0-79.59,10.29-80.85,89.45c-1.26,79.17,60.27,86.93,92.18,86.93c31.92,0,51.03-9.66,51.03-9.66l-5.88-35.07
		c-10.71,8.19-45.36,9.03-45.36,9.03c-53.13,0-45.82-38.22-45.82-38.22h105.46C1028.99,385.33,967.67,374.2,948.14,374.2z"/>
	<path class="st3" d="M1099.13,446.34c0,0-2.52-35.49,30.45-35.49s33.6,35.49,33.6,35.49H1099.13z M1133.78,375.78
		c-19.53,0-79.59,10.29-80.85,89.45s60.27,86.93,92.18,86.93s51.03-9.66,51.03-9.66l-5.88-35.07c-10.71,8.19-45.36,9.03-45.36,9.03
		c-53.13,0-45.82-38.22-45.82-38.22h105.46C1214.63,386.91,1153.31,375.78,1133.78,375.78z"/>
	<path class="st3" d="M1577.48,444.76c0,0-2.52-35.49,30.45-35.49c32.97,0,33.6,35.49,33.6,35.49H1577.48z M1612.12,374.2
		c-19.53,0-79.59,10.29-80.85,89.45s60.27,86.93,92.18,86.93s51.03-9.66,51.03-9.66l-5.88-35.07c-10.71,8.19-45.36,9.03-45.36,9.03
		c-53.13,0-45.82-38.22-45.82-38.22h105.46C1692.97,385.33,1631.65,374.2,1612.12,374.2z"/>
	<path class="st4" d="M1540.47,377.74v37.48h-26.14c0,0,23.94,73.39-64.89,77.64l-25.83-0.94c0,0-18.58,10.24,0,28.82h57.8
		c0,0,54.33,1.1,53.7,46.3s-50.55,60-92.13,59.37c-41.58-0.63-70.71-9.13-70.56-41.11c0.16-31.97,25.67-41.42,25.67-41.42
		s-16.85-8.03-17.17-28.51c-0.31-20.47,21.26-33.55,21.26-33.55s-25.2-15.75-25.2-47.09s27.4-58.11,73.23-59.22
		c45.83-1.1,50.55,17.8,50.55,17.8S1510.86,377.27,1540.47,377.74z M1422.35,434.6c0.47,29.93,17.95,30.08,26.93,30.24
		c8.98,0.16,27.4-4.25,27.4-30.87s-27.4-29.61-27.4-29.61S1421.88,404.67,1422.35,434.6z M1431.64,552.17
		c0,0-20.16,2.75-19.53,22.59c0.63,19.84,21.42,19.53,21.42,19.53h31.5c0,0,29.29-9.13,28.03-24.57
		c-1.26-15.43-16.38-17.55-16.38-17.55H1431.64z"/>
	<g>
		<g>
			<path class="st3" d="M28.85,685.31c2.45,0.89,5.01,1.67,7.68,2.34c2.67,0.67,5.94,1,9.8,1c6.09,0,10.63-1.24,13.64-3.73
				c3.01-2.49,4.51-5.84,4.51-10.08c0-2.08-0.32-3.86-0.95-5.35c-0.63-1.48-1.58-2.76-2.84-3.84c-1.26-1.07-2.84-2.06-4.73-2.95
				c-1.89-0.89-4.1-1.86-6.62-2.9l-6.35-2.56c-2.15-0.89-4.12-1.87-5.9-2.95c-1.78-1.07-3.32-2.39-4.62-3.95
				c-1.3-1.56-2.32-3.36-3.06-5.4c-0.74-2.04-1.11-4.47-1.11-7.29c0-6.76,2.3-12.04,6.9-15.87c4.6-3.82,11.06-5.73,19.38-5.73
				c3.56,0,6.94,0.3,10.13,0.89c3.19,0.59,6.01,1.34,8.46,2.23c-0.37,3.12-1.19,6.2-2.45,9.24c-2.01-0.74-4.33-1.41-6.96-2
				c-2.64-0.59-5.62-0.89-8.96-0.89c-4.68,0-8.28,0.95-10.8,2.84c-2.53,1.9-3.79,4.73-3.79,8.52c0,1.56,0.31,2.95,0.95,4.18
				c0.63,1.22,1.47,2.3,2.51,3.23c1.04,0.93,2.26,1.76,3.67,2.51c1.41,0.74,2.89,1.41,4.45,2l6.24,2.45
				c2.97,1.19,5.6,2.43,7.91,3.73c2.3,1.3,4.27,2.82,5.9,4.56c1.63,1.75,2.88,3.81,3.73,6.18c0.85,2.37,1.28,5.16,1.28,8.35
				c0,7.65-2.64,13.68-7.9,18.1c-5.27,4.42-12.66,6.62-22.16,6.62c-2.3,0-4.38-0.08-6.24-0.22c-1.86-0.15-3.58-0.37-5.18-0.67
				c-1.6-0.3-3.14-0.67-4.62-1.11c-1.49-0.45-3.01-0.93-4.57-1.45c0.15-1.63,0.48-3.3,1-5.01C27.7,688.61,28.25,686.94,28.85,685.31
				z"/>
		</g>
	</g>
	<g>
		<g>
			<path class="st3" d="M225.79,698.78c-5.79,0-10.8-1.02-15.03-3.06c-4.23-2.04-7.74-4.9-10.52-8.57
				c-2.78-3.67-4.86-8.03-6.24-13.08c-1.37-5.05-2.06-10.58-2.06-16.59c0-6.01,0.69-11.54,2.06-16.59
				c1.37-5.05,3.45-9.41,6.24-13.08c2.78-3.68,6.29-6.55,10.52-8.63c4.23-2.08,9.24-3.12,15.03-3.12s10.8,1.04,15.03,3.12
				c4.23,2.08,7.74,4.95,10.52,8.63c2.78,3.67,4.84,8.04,6.18,13.08c1.34,5.05,2,10.58,2,16.59c0,6.01-0.67,11.54-2,16.59
				c-1.34,5.05-3.4,9.41-6.18,13.08c-2.78,3.68-6.29,6.53-10.52,8.57C236.59,697.76,231.58,698.78,225.79,698.78z M225.79,688.98
				c3.71,0,6.92-0.72,9.63-2.17c2.71-1.45,4.96-3.54,6.74-6.29c1.78-2.75,3.12-6.05,4.01-9.91c0.89-3.86,1.34-8.24,1.34-13.14
				c0-4.83-0.45-9.19-1.34-13.09c-0.89-3.9-2.23-7.2-4.01-9.91c-1.78-2.71-4.03-4.79-6.74-6.23c-2.71-1.45-5.92-2.17-9.63-2.17
				c-3.71,0-6.92,0.72-9.63,2.17c-2.71,1.45-4.95,3.53-6.74,6.23c-1.78,2.71-3.12,6.01-4.01,9.91c-0.89,3.9-1.34,8.26-1.34,13.09
				c0,4.9,0.45,9.28,1.34,13.14c0.89,3.86,2.23,7.16,4.01,9.91c1.78,2.75,4.03,4.84,6.74,6.29
				C218.87,688.26,222.08,688.98,225.79,688.98z"/>
		</g>
	</g>
	<g>
		<g>
			<path class="st3" d="M380.64,617.39h41.87c0.15,0.74,0.26,1.54,0.33,2.39c0.07,0.86,0.11,1.69,0.11,2.51
				c0,0.82-0.04,1.67-0.11,2.56c-0.08,0.89-0.19,1.71-0.33,2.45h-30.51v23.49h25.5c0.15,0.82,0.26,1.65,0.33,2.51
				c0.07,0.85,0.11,1.69,0.11,2.51s-0.04,1.65-0.11,2.5c-0.08,0.86-0.19,1.69-0.33,2.51h-25.5v36.64c-0.89,0.15-1.8,0.26-2.73,0.33
				c-0.93,0.07-1.91,0.11-2.95,0.11c-0.97,0-1.95-0.04-2.95-0.11c-1-0.08-1.91-0.19-2.73-0.33V617.39z"/>
		</g>
	</g>
	<g>
		<g>
			<path class="st3" d="M558.05,627.3h-20.82c-0.15-0.74-0.26-1.56-0.33-2.45c-0.07-0.89-0.11-1.74-0.11-2.56
				c0-0.81,0.04-1.65,0.11-2.51c0.08-0.85,0.19-1.65,0.33-2.39h53c0.15,0.74,0.26,1.52,0.33,2.34c0.07,0.82,0.11,1.63,0.11,2.45
				s-0.04,1.69-0.11,2.62c-0.08,0.93-0.19,1.76-0.33,2.51h-20.82v70.15c-1.71,0.22-3.57,0.33-5.57,0.33c-2.08,0-4.01-0.11-5.79-0.33
				V627.3z"/>
		</g>
	</g>
	<g>
		<g>
			<path class="st3" d="M699.37,617.39c0.81-0.15,1.84-0.26,3.06-0.33c1.23-0.07,2.35-0.11,3.4-0.11c1.04,0,2.1,0.04,3.17,0.11
				c1.07,0.08,2.06,0.19,2.95,0.33l13.69,66.7l16.48-66.7c0.89-0.15,1.87-0.26,2.95-0.33c1.08-0.07,2.1-0.11,3.07-0.11
				c0.89,0,1.89,0.04,3,0.11c1.11,0.08,2.08,0.19,2.9,0.33l16.59,67.37l13.92-67.37c0.81-0.15,1.69-0.26,2.62-0.33
				c0.93-0.07,1.84-0.11,2.73-0.11c1.04,0,2.1,0.04,3.17,0.11c1.08,0.08,2.02,0.19,2.84,0.33l-19.27,80.06
				c-0.89,0.15-1.93,0.26-3.12,0.33c-1.19,0.07-2.26,0.11-3.23,0.11c-1.04,0-2.19-0.04-3.45-0.11c-1.26-0.08-2.41-0.19-3.45-0.33
				l-15.81-62.69l-16.03,62.69c-1.04,0.15-2.17,0.26-3.4,0.33c-1.23,0.07-2.36,0.11-3.4,0.11c-0.89,0-1.91-0.04-3.06-0.11
				c-1.15-0.08-2.17-0.19-3.06-0.33L699.37,617.39z"/>
		</g>
	</g>
	<g>
		<g>
			<path class="st3" d="M951.94,678.96h-30.4l-5.45,18.49c-0.97,0.15-1.93,0.26-2.9,0.33c-0.97,0.07-1.93,0.11-2.9,0.11
				c-1.04,0-2.06-0.04-3.06-0.11c-1-0.08-1.91-0.19-2.73-0.33l26.06-80.06c0.96-0.15,2.01-0.26,3.12-0.33
				c1.11-0.07,2.26-0.11,3.45-0.11c1.04,0,2.12,0.04,3.23,0.11c1.11,0.08,2.19,0.19,3.23,0.33l25.94,80.06
				c-0.89,0.15-1.89,0.26-3.01,0.33c-1.11,0.07-2.19,0.11-3.23,0.11c-0.97,0-1.95-0.04-2.95-0.11c-1-0.08-1.95-0.19-2.84-0.33
				L951.94,678.96z M924.54,669.05h24.39l-12.25-40.86L924.54,669.05z"/>
		</g>
	</g>
	<g>
		<g>
			<path class="st3" d="M1087.26,617.28c1.63-0.15,3.12-0.3,4.46-0.45c1.34-0.15,2.65-0.28,3.95-0.39c1.3-0.11,2.65-0.2,4.06-0.28
				c1.41-0.07,2.97-0.11,4.68-0.11c3.79,0,7.54,0.37,11.25,1.11c3.71,0.75,7.01,2.04,9.91,3.9c2.9,1.86,5.25,4.36,7.07,7.52
				c1.82,3.16,2.73,7.15,2.73,11.97c0,2.9-0.48,5.53-1.45,7.91c-0.96,2.37-2.19,4.49-3.67,6.34c-1.49,1.86-3.17,3.47-5.07,4.85
				c-1.89,1.37-3.73,2.5-5.51,3.39l-1.34,0.67l23.27,33.74c-2.01,0.22-4.27,0.33-6.79,0.33c-2,0-4.01-0.11-6.01-0.33l-25.61-37.08
				v-0.45l0.89-0.22c2.01-0.52,4.12-1.23,6.35-2.12c2.23-0.89,4.29-2.06,6.18-3.51c1.9-1.45,3.47-3.19,4.73-5.23
				c1.26-2.04,1.9-4.51,1.9-7.41c0-5.34-1.58-9.31-4.73-11.91c-3.16-2.6-7.4-3.9-12.75-3.9c-1.26,0-2.43,0.04-3.51,0.11
				c-1.08,0.08-2.28,0.19-3.62,0.33v71.38c-0.82,0.07-1.73,0.15-2.73,0.22c-1,0.07-1.95,0.11-2.84,0.11s-1.86-0.02-2.9-0.06
				c-1.04-0.04-2.01-0.13-2.9-0.28V617.28z"/>
		</g>
	</g>
	<g>
		<g>
			<path class="st3" d="M1259.22,617.39h43.98c0.22,1.48,0.33,3.12,0.33,4.9c0,0.82-0.02,1.67-0.06,2.56
				c-0.04,0.89-0.13,1.71-0.28,2.45h-32.62v22.94h26.06c0.15,0.74,0.26,1.54,0.33,2.39c0.07,0.86,0.11,1.69,0.11,2.51
				c0,0.82-0.04,1.67-0.11,2.56c-0.08,0.89-0.19,1.71-0.33,2.45h-26.06v27.39h33.51c0.22,1.49,0.33,3.12,0.33,4.9
				c0,0.82-0.02,1.67-0.06,2.56c-0.04,0.89-0.13,1.71-0.28,2.45h-44.88V617.39z"/>
		</g>
	</g>
	<circle class="st3" cx="687.55" cy="326.84" r="25.62"/>
</g>
</svg>
