<?xml version="1.0" encoding="utf-8"?>
<!-- Generator: Adobe Illustrator 26.1.0, SVG Export Plug-In . SVG Version: 6.00 Build 0)  -->
<svg version="1.1" id="Layer_1" xmlns="http://www.w3.org/2000/svg" xmlns:xlink="http://www.w3.org/1999/xlink" x="0px" y="0px"
	 viewBox="0 0 1700 1000" style="enable-background:new 0 0 1700 1000;" xml:space="preserve">
<style type="text/css">
	.st0{fill:#C7C7C7;}
	.st1{fill:#E20815;}
	.st2{fill:#030303;}
	.st3{fill:#020202;}
	.st4{fill:#040404;}
	.st5{fill:#E20916;}
	.st6{fill:#E30B17;}
	.st7{fill:#070707;}
	.st8{fill:#080808;}
	.st9{fill:#050505;}
	.st10{fill:#0C0C0C;}
	.st11{fill:#0F0F0F;}
	.st12{fill:#0E0E0E;}
	.st13{fill:#0B0B0B;}
	.st14{fill:#009540;}
	.st15{fill:#FEFEFE;}
	.st16{fill:#E20613;}
	.st17{fill:#F1F1F1;}
	.st18{fill:#DDDDDD;}
	.st19{fill:#FAD8DA;}
	.st20{fill:#EBEBEB;}
	.st21{fill:#FCECED;}
	.st22{fill:#6D6D6D;}
</style>
<g>
	<g>
		<path class="st0" d="M415.53,104.24c6.3,0,12.6,0,18.9,0c384.83,0,769.65-0.01,1154.48,0c54.42,0,86.48,32.29,86.48,87.05
			c0.01,144.53,0.01,289.06,0,433.59c-0.01,50.36-33.63,84.31-84.1,84.32c-387.16,0.08-774.32,0.04-1161.47,0.04
			c-4.94,0-9.87,0-19.78,0c21.27-16.33,41.97-23.23,59.16-35.54c25.01-17.92,52.45-20.89,82.42-20.83
			c341.68,0.67,683.36,0.42,1025.04,0.42c37.95,0,42.78-4.9,42.78-43.41c0-137.54,0-275.07,0-412.61c0-29.79-7.19-37.07-36.82-37.07
			c-345.18-0.01-690.35-0.17-1035.53,0.32c-26.25,0.04-50.22-2.5-72.72-17.78c-19.03-12.93-40.08-22.89-60.23-34.16
			C414.58,107.14,415.05,105.69,415.53,104.24z"/>
		<path class="st1" d="M1276.78,839.6c12.72-0.8,23.68-1.4,34.62-2.22c5.28-0.39,11.24-1.82,11.89,5.93
			c0.56,6.64-4.15,8.92-9.97,9.55c-8.07,0.87-16.36,3.44-24.16,2.36c-15.92-2.2-23.31,4.81-26.97,19.24
			c-2.41,9.51-6.4,18.62-9.55,27.95c-1.73,5.12-0.57,13.7-8.84,12.2c-7.69-1.39-11.28-8.2-8.57-16.22
			c6.46-19.12,12.53-38.43,20.35-56.99c4.04-9.6,7.86-19.24,11.47-29c2.39-6.46,5.89-13.03-6.38-10.63
			c-3.22,0.63-6.15-0.89-6.03-4.39c0.15-4.3,2.83-6.79,7.01-8.87c25.03-12.48,51.51-4.13,77.26-5.8c5.46-0.35,8.02,3.92,8.03,9.33
			c0.02,7.13-5.16,6.41-9.79,6.43c-1.74,0.01-3.48-0.18-5.22-0.3C1293.7,795.66,1288.78,799.18,1276.78,839.6z"/>
		<path class="st2" d="M263.65,866.53c-15.69,6.46-25.15,16.53-34.39,26.98c-3.7,4.18-7.15,10.18-14.29,6.75
			c-7.21-3.46-7.45-10.45-5.7-16.62c5.37-18.96,11.3-37.77,17.44-56.49c3.97-12.11,8.66-23.98,13.08-35.94
			c1.9-5.14,2.52-13.12,10.63-9.99c7.41,2.86,9.27,9.84,6.38,17.53c-7.91,21.01-15.83,42.03-21.4,65.53
			c6.35-5.03,12.59-10.21,19.09-15.05c5.57-4.15,11.35-8.91,18.91-4.97c7.75,4.04,8.93,11.24,9.02,19.29
			c0.1,8.38-7.86,18.51,6.41,24.56c3.21,1.36-3.37,8.54-8.4,10.29c-6.7,2.33-12.53,1.58-15.83-5.99
			C261.19,884.6,264.62,876.42,263.65,866.53z"/>
		<path class="st3" d="M603.35,887.49c-8.29,5.55-14.72,19.03-26.02,13.28c-11.67-5.93-9.76-20.09-9.12-31.55
			c0.45-8.04,2.82-16,4.49-23.95c1.3-6.16,4.07-11.75,11.47-10.1c7.55,1.67,7.3,8.65,6.22,14.25c-1.84,9.59-4.39,19.01-3.59,30.45
			c11.4-9.07,16.49-20.58,20.96-32.34c2.31-6.08,5.05-11.11,12.37-8.62c7.18,2.45,7.01,8.88,5.14,14.63
			c-3,9.26-8.64,17.88-5.62,29.27c15-3.88,19.17-17.42,25.88-28.2c3.16-5.07,5.32-11.92,12.39-8.62c6.26,2.92,4.22,9.79,2.89,15.45
			c-3.41,14.49-13.6,24.21-24.44,32.94C621.66,906.24,612.89,904.05,603.35,887.49z"/>
		<path class="st4" d="M188.38,825.8c5.52,0,10.12-0.55,14.51,0.17c3.81,0.62,5.44,4.38,5.65,7.89c0.29,4.79-3.68,5.71-7.13,5.28
			c-27.59-3.45-32.21,16.49-36.61,36.14c-1.16,5.19-5.16,11.93,0.69,16.08c4.97,3.53,11.2-0.51,16.84-0.71
			c5.73-0.2,11.27-13.89,16.41-1.78c3.89,9.15-5.36,13.03-12.21,15.91c-10.21,4.3-21.22,8.12-31.4,0.82
			c-11.19-8.02-9.87-20.32-7.78-31.87c1.33-7.35,2.37-16.45,7.13-21.13c10.32-10.17-12.56-16.37-2.29-22.49
			c6.95-4.14,15.59-4.01,19.82-13.5c3.75-8.42,8.76-22.13,20.55-15.28C203.42,807.68,187.87,815.63,188.38,825.8z"/>
		<path class="st2" d="M981.12,875.02c-2.07,0.11-7.23-4.04-9.9,2.48c-1.69,4.11-0.81,8.4,2.25,11.31c4.45,4.23,9.47,3.04,14.2-0.19
			c2.38-1.63,4.85-3.13,7.3-4.66c3.47-2.17,6.81-1.54,9.45,1.22c2.89,3.03,2.07,6.22-0.43,9.3c-8.69,10.7-19.45,16.89-33.47,13.31
			c-13.66-3.49-17.07-13.86-16.61-26.84c0.54-15.34,6.71-28.12,16.83-38.98c10.02-10.76,22.33-14.37,36.13-7.52
			c7.78,3.86,10.34,10.67,7.64,19C1009.61,868.55,999.44,876.24,981.12,875.02z"/>
		<path class="st2" d="M464.97,870.07c-13.06,6.72-24.37,15.46-34.3,26.01c-3.73,3.96-7.04,8.61-12.96,4.36
			c-4.89-3.51-8.67-8.28-6.31-14.87c5.48-15.23,11.19-30.37,17.03-45.46c1.5-3.87,4.87-4.48,8.73-3.29
			c4.97,1.54,8.66,4.68,8.07,9.92c-0.68,6.1-2.76,12.05-4.72,20.03c8.35-6,15.15-11.76,22.75-16.14
			c12.21-7.04,19.88-2.39,20.83,11.7c0.66,9.75-2.02,19.7,1.92,29.28c2.51,6.12,0,10.75-6.08,11.87c-6.36,1.17-10.6-2.02-12.78-8.76
			C464.65,886.94,470.84,878.75,464.97,870.07z"/>
		<path class="st4" d="M1157.57,869.72c-14.85,6.36-25.17,15.51-34.93,25.26c-4.16,4.16-7.32,9.99-14.2,5.47
			c-5.84-3.84-8.8-9.72-6.27-16.59c5.41-14.68,11.37-29.16,17.16-43.7c1.58-3.97,4.47-4.8,8.41-3.33c5.36,2,9.71,5.17,8.63,11.36
			c-1.04,5.96-3.45,11.69-5.81,19.3c8.24-5.93,14.85-11.31,22.06-15.75c13.74-8.47,21.97-3.86,22.46,12.08
			c0.27,8.68-1.23,17.98,1.41,25.89c2.93,8.75-0.08,13.36-6.99,14c-6.47,0.6-12.05-3.84-11.95-11.99
			C1157.63,884.98,1157.57,878.24,1157.57,869.72z"/>
		<path class="st2" d="M328.5,875.05c-2.1,0.13-7.5-4.31-10.13,1.84c-1.83,4.27-1.55,9.55,2.83,12.7c4.97,3.57,9.8,1.62,14.48-1.48
			c5.02-3.33,10.95-10.01,16.1-2c4.64,7.21-3.03,11.46-7.73,15.26c-9.81,7.93-20.86,10.36-32.33,3.8
			c-11.34-6.49-12.64-17.51-10.75-28.92c2.22-13.42,7.66-25.66,17.56-35.24c10.01-9.69,21.98-13.39,34.98-6.81
			c8.03,4.06,11.36,10.94,7.69,20.43C355.7,868.81,346.04,876.08,328.5,875.05z"/>
		<path class="st5" d="M1366.85,880.89c0.68-17.77,7.71-32.74,21.9-43.51c9.95-7.54,21.32-9.14,32.51-1.87
			c6.72,4.37,8.3,10.76,5.85,18.27c-4.2,12.86-12.56,20.69-26.48,21.45c-2.85,0.16-5.78-0.45-8.62-0.99
			c-6.14-1.16-8.86,1.58-8.43,7.46c0.42,5.75,2.49,10.08,9.58,9.63c5.72-0.36,9.24-4.54,13.72-7.06c4.02-2.26,7.81-2.08,10.8,1.83
			c2.86,3.74,0.22,6.79-1.89,9.3c-8.9,10.58-20,16.31-33.92,11.9C1369.25,903.32,1365.69,893.29,1366.85,880.89z"/>
		<path class="st2" d="M529.12,874.82c-4.36-0.45-9.51-3.14-11.47,3.64c-1.03,3.57-0.01,6.89,2.25,9.78
			c3.6,4.63,8.24,3.67,12.55,1.66c3.62-1.68,6.76-4.37,10.27-6.33c2.76-1.55,5.81-1.26,8.02,0.98c2.8,2.83,2.72,6.45,0.43,9.44
			c-8.36,10.92-19.1,17.29-33.2,13.95c-13.59-3.22-18.13-13.6-17.52-26.39c0.68-14.33,6.05-27.03,15.67-37.76
			c10.23-11.42,22.3-16.53,37.2-9.59c7.9,3.68,10.7,10.27,8.71,18.66C558.5,867.71,546.71,875.5,529.12,874.82z"/>
		<path class="st3" d="M838.59,856c-0.34,18.5-17.03,42.43-34.1,48.9c-18.04,6.84-32.08-3.53-29.8-22.56
			c2.45-20.49,13.89-35.47,31.74-44.93C823.87,828.17,838.93,837.33,838.59,856z"/>
		<path class="st1" d="M1559.92,857.25c-0.81,21.37-20.61,45.45-40.22,48.91c-13.89,2.45-22.28-4.06-23.32-18.11
			c-1.44-19.33,15.81-45.73,34.04-52.12C1548.22,829.69,1560.63,838.66,1559.92,857.25z"/>
		<path class="st2" d="M921.87,848.88c-11.95,4.51-14.69,14.73-17.48,24.64c-1.6,5.7-6.71,13.09,0.29,17.1
			c6,3.44,11.88-2.39,16.85-6.37c2.68-2.15,4.8-5.05,7.62-6.95c4.41-2.97,8.92-2.14,12.64,1.51c4.5,4.41-0.15,7.39-2.28,10.27
			c-11.86,16.02-35.02,24.63-46.87,17.69c-10.41-6.1-11.9-24.34-3.46-44.69c4.28-10.32,10.33-19.58,19.46-26.19
			c10.97-7.94,24.16-5.75,30.26,4.72c4.12,7.08,4.12,14.29-1.14,20.95c-2.61,3.3-6.09,6.17-10.42,4.74
			C918.08,863.25,927.4,854.69,921.87,848.88z"/>
		<path class="st5" d="M1493.4,847.24c-1.22,8.45-8.11,11.67-13.66,15.36c-13.5,9-13.37,17.25-0.1,25.99
			c2.42,1.59,4.45,3.88,7.02,5.1c5.8,2.77,7.59,6.97,5.16,12.75c-3.27,7.76-8.8,3.03-13.2,1.71c-3.2-0.96-6.75-2.9-8.71-5.49
			c-10.52-13.93-20.56-17.46-32.01-0.79c-3.25,4.74-8.16,3.03-11.85-1.04c-3.81-4.2-3.77-8.16,0.37-12.11
			c2.52-2.41,4.63-5.33,7.41-7.35c10.52-7.65,13.35-16.65,6.11-28.15c-2.92-4.63-5.05-9.75,1.48-13.34
			c6.98-3.84,11.5-0.16,13.19,6.19c3.53,13.28,8.95,10.12,15.93,2.8c3.17-3.32,6.86-6.49,10.91-8.56
			C1488.75,836.58,1491.97,840.93,1493.4,847.24z"/>
		<path class="st6" d="M1329.41,891.12c2.08-7.67,4.08-17.36,7.35-26.59c8.9-25.08,18.41-49.95,27.52-74.95
			c1.93-5.3,4.4-10.55,10.76-8.75c6.22,1.76,8.97,7.5,7.61,13.87c-1.08,5.04-3.29,9.9-5.4,14.66
			c-13.17,29.68-26.35,59.34-31.05,91.9c-0.66,4.57-2.18,10.74-7.96,9.11C1330.31,908.13,1329.75,900.28,1329.41,891.12z"/>
		<path class="st7" d="M1623.4,863.2c2.41-15.72,9.16-29.8,15.4-44.07c6.03-13.79,12.1-27.55,17.91-41.43
			c2.36-5.64,2.69-14.15,12-10.13c8.52,3.69,7.22,11.19,3.62,17.79c-9.44,17.29-17.61,35.12-23.95,53.75
			c-2.98,8.75-5.65,17.63-7.9,26.6c-1.42,5.67-1.4,12.75-9.69,11.28C1623.52,875.71,1623.61,868.98,1623.4,863.2z"/>
		<path class="st4" d="M736.71,878.78c9.79-11.9,17.65-21.67,25.8-31.19c2.17-2.54,5.26-5.42,8.93-3.28
			c4.57,2.66,3.31,7.11,1.48,10.81c-7.8,15.77-17.97,29.88-31.59,41.12c-6.43,5.3-13.71,5.45-16.68-3.54
			c-4.54-13.73-8.06-27.83-11.22-41.95c-1.21-5.4,1.36-10.48,7.54-11.88c7.38-1.67,8.77,3.97,9.87,9.16
			C732.75,857.02,734.31,866.1,736.71,878.78z"/>
		<path class="st8" d="M1063.13,891.21c4.03-12.12,9.06-26.9,13.82-41.77c1.47-4.6,4.84-5.29,8.01-3.51
			c5.61,3.15,10.49,6.93,7.6,15.13c-4.23,12.01-7.71,24.3-11.39,36.5c-1.56,5.18-3.29,10.95-9.84,10.07
			C1064.13,906.66,1063.21,900.37,1063.13,891.21z"/>
		<path class="st9" d="M844.35,894.19c1.47-15.77,9-29.77,13.12-44.77c1.08-3.92,4.69-5.53,8.23-3.48
			c5.69,3.3,10.17,7.39,7.45,15.38c-4.08,11.99-7.38,24.25-11.32,36.29c-1.57,4.8-2.99,11.1-9.78,10.11
			C844.61,906.66,844.39,900.17,844.35,894.19z"/>
		<path class="st10" d="M1106.85,814.31c-2.37,7.99-5.57,14.49-14.97,14.39c-6.59-0.07-10.33-4.54-8.47-9.87
			c2.37-6.8,2.79-17.14,14.02-16.36C1104.38,802.96,1106.65,808.32,1106.85,814.31z"/>
		<path class="st10" d="M887.59,814.42c-2.16,6.94-4.84,13.91-14.18,14.28c-6.24,0.25-11.09-3.34-9.3-9.16
			c2.12-6.87,2.49-17.14,13.25-17.1C883.77,802.45,887.51,807.1,887.59,814.42z"/>
		<path class="st11" d="M79.86,878.69c5.14,1.12,10.68,2.71,10.77,9.16c0.14,9.17-7.21,11.45-14.28,11.83
			c-5.43,0.29-10.94-2.63-10.17-9.26C67.04,883.13,73.03,880.22,79.86,878.69z"/>
		<path class="st8" d="M118.74,878.8c5.38,1.37,10.57,3.25,10.04,9.9c-0.73,9.09-8.12,10.77-15.1,10.81
			c-5.59,0.03-10.56-3.54-9.02-10.02C106.28,882.69,111.81,879.36,118.74,878.8z"/>
		<path class="st12" d="M52.61,887.85c-1.1,8.57-7.19,11.06-13.52,11.83c-5.46,0.67-11.29-1.98-11.12-8.19
			c0.21-8.08,6.57-12.17,14.04-12.45C47.56,878.84,51.51,882.55,52.61,887.85z"/>
		<path class="st13" d="M1619.32,908.77c-8.04-0.4-11.7-3.64-10.75-10.01c1.1-7.35,6.7-10.75,13.52-10.92
			c5.77-0.14,10.67,3.61,10.36,9.42C1632,905.78,1624.83,907.74,1619.32,908.77z"/>
		<path class="st14" d="M763.75,702.26c-48.3,0-96.63-0.8-144.9,0.41c-18.1,0.45-13.94-10.42-14.05-20.07
			c-0.12-9.99-3.33-19.95,14.51-19.78c97.18,0.94,194.38,0.96,291.56,0.01c18.89-0.18,14.67,10.68,15.33,21.12
			c0.73,11.58,0.34,19.15-15.8,18.75C861.54,701.48,812.64,702.26,763.75,702.26z"/>
		<path class="st15" d="M1090.97,663.63c48.34,0,96.7,0.76,145.01-0.4c17.57-0.42,16.13,9.01,16.43,20.65
			c0.31,12.13-1.03,18.86-16.51,18.74c-96.67-0.74-193.36-0.77-290.03,0.01c-16.8,0.14-15.48-8.74-15.51-19.69
			c-0.03-11.05-1.1-20.06,15.6-19.69C994.28,664.33,1042.63,663.64,1090.97,663.63z"/>
		<path class="st16" d="M1421.04,702.26c-48.91,0-97.83-0.69-146.71,0.41c-15.39,0.35-15.78-7.11-14.71-17.87
			c0.96-9.65-5.45-22.08,14.29-21.92c97.81,0.82,195.63,0.62,293.44,0.07c12.59-0.07,13.92,4.99,13.78,15.3
			c-0.32,24.01,0.11,24.01-23.84,24.01C1511.87,702.26,1466.45,702.26,1421.04,702.26z"/>
		<path class="st17" d="M992.63,845.93c3.75,1.07,7.76,2.49,6.36,5.29c-2.84,5.72-7.67,10.28-14.85,9.84
			c-1.74-0.11-4.88-3.43-4.8-3.56C982.85,852.23,987.04,847.64,992.63,845.93z"/>
		<path class="st18" d="M324.62,858.49c5.57-6.14,9.05-13.77,18.19-11.8c3.05,0.66,4.6,4.05,2.27,6.69
			C340.17,858.95,334.91,864.71,324.62,858.49z"/>
		<path class="st19" d="M1411.87,851.02c-2.56,5.52-6.72,9.32-12.84,10.38c-2.94,0.51-7.54-1.08-6.79-3.43
			c1.96-6.14,6.7-10.71,13.52-11.79C1408.95,845.68,1411.05,847.75,1411.87,851.02z"/>
		<path class="st18" d="M524.44,858.14c6.14-5.68,9.48-13.94,18.7-11.38c2.62,0.72,4.21,4.03,1.58,6.93
			C539.65,859.32,534.36,864.59,524.44,858.14z"/>
		<path class="st20" d="M820.8,858.82c-0.56,1.88-0.73,2.42-0.89,2.98c-3.13,11.34-6.97,22.22-19.42,26.72c-3.46,1.25-5.98-1-6-4.05
			c-0.06-13.52,8.77-21.91,18.1-29.91c1.93-1.65,4.31-2.54,6.1-0.7C820.1,855.31,820.41,857.81,820.8,858.82z"/>
		<path class="st21" d="M1541.99,857.72c-0.1,2.16,0,2.78-0.18,3.3c-3.78,10.8-6.6,22.28-18.82,27.25c-3.3,1.34-6.46-0.1-6.65-3.12
			c-0.81-13.5,7.65-22.18,17.06-30C1538.75,850.7,1541.49,852.97,1541.99,857.72z"/>
	</g>
	<path class="st22" d="M24.33,104.24h268.23c0,0,301.91-1.25,301.91,301.91S283.82,708.07,283.82,708.07l-259.5,4.99V104.24z
		 M181.52,593.29c0,0,247.02,44.91,247.02-184.64S185.26,217.77,181.52,217.77V593.29z"/>
	<path class="st22" d="M594.47,629.47L760.4,184.09h133.49l164.68,445.38H931.31l-27.45-91.07l-150.96-2.5l-36.18,93.57H594.47z
		 M776.62,451.07h96.06l-46.16-138.48L776.62,451.07z"/>
	<polygon class="st22" points="1113.46,629.47 1226.99,629.47 1226.99,350.02 1304.34,525.92 1387.93,525.92 1459.04,350.02 
		1459.04,629.47 1581.3,629.47 1581.3,184.09 1442.82,184.09 1347.38,401.17 1251.94,184.09 1113.46,184.09 	"/>
</g>
</svg>
