<?xml version="1.0" encoding="utf-8"?>
<!-- Generator: Adobe Illustrator 26.1.0, SVG Export Plug-In . SVG Version: 6.00 Build 0)  -->
<svg version="1.1" id="Layer_1" xmlns="http://www.w3.org/2000/svg" xmlns:xlink="http://www.w3.org/1999/xlink" x="0px" y="0px"
	 viewBox="0 0 1700 1000" style="enable-background:new 0 0 1700 1000;" xml:space="preserve">
<style type="text/css">
	.st0{fill:#027DB5;}
	.st1{fill:#BAB6BC;}
	.st2{fill:#89AE72;}
	.st3{fill:#E9394B;}
	.st4{fill:#E6BB83;}
</style>
<g>
	<polygon class="st0" points="593.3,315.58 564.13,353.64 34.48,353.64 63.65,315.58 	"/>
	<polygon class="st1" points="756.55,315.58 723.67,353.13 564.13,353.64 593.3,315.58 	"/>
	<polygon class="st2" points="945.82,315.74 917.12,353.13 723.67,353.13 756.55,315.58 	"/>
	<polygon class="st3" points="1135.87,315.74 1107.17,353.13 913.72,353.13 946.6,315.58 	"/>
	<polygon class="st4" points="1665.52,315.74 1636.35,353.79 1107.17,353.13 1135.87,315.74 	"/>
	<path class="st0" d="M66.34,470.92h49.23c49.23,0,76.96,33.3,76.96,76.87c0,48.81-27.04,83.71-77.42,83.71H66.34V470.92z
		 M70.96,627.4h44.61c43.45,0,72.11-28.97,72.11-79.37c0-41.75-25.89-72.99-72.8-72.99H70.96V627.4z"/>
	<path class="st0" d="M223.74,573.57c0,35.35,17.79,56.11,42.76,56.11c22.65,0,33.51-12.09,40.21-26.91h4.62
		c-6.93,17.79-20.1,31.02-44.6,31.02c-35.36,0-47.61-31.25-47.61-59.31c0-36.27,19.88-59.08,48.08-59.08
		c35.59,0,46.68,30.8,46.68,52.47c0,2.51,0,3.19-0.23,5.7H223.74z M309.48,569.46c0-27.37-13.87-49.95-42.53-49.95
		c-25.42,0-41.6,20.76-42.99,49.95H309.48z"/>
	<path class="st0" d="M338.84,601.4c3.93,19.16,15.26,28.74,37.9,28.74c23.34,0,34.44-11.87,34.44-26.24
		c0-14.6-6.01-22.81-35.59-30.56c-28.89-7.53-35.36-15.74-35.36-30.34c0-14.37,11.09-27.6,35.59-27.6
		c23.57,0,36.28,13.69,38.13,30.8h-4.62c-1.85-12.55-10.17-26.69-33.74-26.69c-22.19,0-30.74,11.4-30.74,23.04
		c0,13.23,6.24,20.3,32.59,26.91c30.05,7.53,38.6,17.34,38.6,33.99c0,18.93-15.48,30.79-39.29,30.79
		c-27.04,0-39.29-12.77-42.52-32.85H338.84z"/>
	<path class="st0" d="M446.08,460.2h4.62v20.76h-4.62V460.2z M446.08,518.14h4.62V631.5h-4.62V518.14z"/>
	<path class="st1" d="M576.66,627.63c0,36.27-11.55,56.8-49,56.8c-27.5,0-40.91-15.51-43.45-32.62h4.62
		c3.47,16.65,16.41,28.51,39.06,28.51c34.44,0,44.14-18.93,44.14-53.37v-25.09c-6.01,19.39-20.1,29.66-42.06,29.66
		c-27.04,0-47.84-20.98-47.84-56.57c0-39.69,24.73-59.53,49.92-59.53c25.19,0,36.51,14.14,40.21,27.6c0-12.54,0.23-23.27,0.23-24.86
		h4.39c0,2.74-0.23,15.97-0.23,30.79V627.63z M486.99,574.71c0,33.53,19.41,52.47,43.22,52.47c34.44,0,42.06-26.92,42.06-54.52
		c0-22.58-3.7-52.92-40.45-52.92C504.32,519.73,486.99,542.77,486.99,574.71z"/>
	<path class="st2" d="M616.88,545.74c0-11.18-0.23-25.09-0.23-27.6h4.62c0.23,5.24,0.46,15.06,0.23,28.51
		c4.16-12.32,15.95-31.25,43.68-31.25c19.19,0,38.83,10.95,38.83,43.79v72.31h-4.85v-71.85c0-22.58-11.09-39.92-34.67-39.92
		c-27.5,0-42.99,22.82-42.99,49.5v62.27h-4.62V545.74z"/>
	<path class="st3" d="M870.03,631.5V470.92h7.39c28.2,40.83,98.45,142.79,107.01,155.79l0.46,0.68c-0.69-4.33-0.69-49.95-0.69-75.95
		v-80.52h4.62V631.5h-6.7c-27.04-39.46-97.07-141.42-107.7-156.7l-0.46-0.69c1.16,21.44,0.69,45.62,0.69,75.05v82.34H870.03z"/>
	<path class="st4" d="M1151.59,470.92h52.46c29.12,0,46.22,14.37,46.22,38.78c0,19.61-11.79,32.39-29.81,35.58
		c15.02,2.97,36.28,13.69,36.28,41.29c0,29.43-21.73,44.94-53.85,44.94h-51.31V470.92z M1204.98,543.46
		c24.26,0,40.44-11.4,40.44-33.53c0-24.41-17.79-34.9-43.45-34.9h-45.76v68.42H1204.98z M1156.21,627.4h45.76
		c25.66,0,49.92-9.58,49.92-40.6c0-26-20.34-39.23-47.61-39.23h-48.08V627.4z"/>
	<path class="st4" d="M1370.93,600.48c0,11.18,0.23,26.01,0.23,31.02h-4.62c-0.23-1.6-0.69-16.88-0.46-28.05
		c-5.32,17.11-18.26,30.34-41.14,30.34c-16.18,0-39.75-7.3-39.75-42.66v-72.99h4.62v74.82c0,18.71,9.94,36.5,35.36,36.5
		c23.8,0,40.91-15.96,40.91-49.04v-62.27h4.85V600.48z"/>
	<path class="st4" d="M1401.68,518.14c31.43,77.55,42.06,102.65,44.14,109.72h0.23c3.47-9.12,15.71-39.46,43.68-109.72h5.08
		l-45.99,114.73c-15.95,39.24-23.34,50.64-42.76,50.64c-3.47,0-6.93-0.23-8.78-0.68l0.46-4.56c2.08,0.45,5.08,0.68,8.55,0.68
		c14.1,0,21.95-6.62,37.21-44.94l-46.91-115.87H1401.68z"/>
	<polygon class="st2" points="774.08,477.66 779.79,477.66 779.79,509.06 785.82,509.06 785.82,515.4 774.08,515.4 	"/>
	<polygon class="st3" points="1068.09,502.98 1062.38,502.98 1062.38,471.59 1056.35,471.59 1056.35,465.24 1068.09,465.24 	"/>
</g>
</svg>
