<?xml version="1.0" encoding="utf-8"?>
<!-- Generator: Adobe Illustrator 26.1.0, SVG Export Plug-In . SVG Version: 6.00 Build 0)  -->
<svg version="1.1" id="Layer_1" xmlns="http://www.w3.org/2000/svg" xmlns:xlink="http://www.w3.org/1999/xlink" x="0px" y="0px"
	 viewBox="0 0 1700 1000" style="enable-background:new 0 0 1700 1000;" xml:space="preserve">
<style type="text/css">
	.st0{fill:#DE001E;}
	.st1{fill:#FFFFFF;}
	.st2{fill:#858585;}
</style>
<g>
	<path class="st0" d="M941.78,392.92c-107.07,8.8-110,101.2-110,101.2c0,117.34-117.34,112.94-117.34,112.94H28.77V392.92H941.78z"
		/>
	<polygon class="st1" points="178.63,412.49 120.58,412.49 120.58,474.09 54.03,474.09 54.03,529.09 121.22,529.09 121.22,589.96 
		178.88,589.96 178.88,527.62 244.76,527.62 244.76,473.84 179.36,473.84 	"/>
	<polygon class="st1" points="383.98,408.45 281.31,408.45 281.31,589.96 383.98,589.96 383.98,547.3 326.29,547.3 326.29,520.41 
		383.98,520.41 383.98,476.41 326.78,476.41 326.78,450.01 383.98,450.01 	"/>
	<path class="st1" d="M589.32,477.39h-46.45c0,0-13.69-31.78-43.51-31.78c-29.82,0-49.38,25.42-49.38,49.87s13.69,56.22,48.89,56.22
		s44.49-30.31,44.49-30.31h47.91c0,0-18.09,72.36-87.51,72.36s-100.71-55.49-100.71-92.52s25.42-97.17,94.11-97.17
		S587.85,468.1,589.32,477.39z"/>
	<path class="st1" d="M800.89,499.35c0,53.87-43.67,97.54-97.54,97.54c-53.87,0-97.54-43.67-97.54-97.54
		c0-53.87,43.67-97.54,97.54-97.54C757.22,401.81,800.89,445.48,800.89,499.35z M703.35,445.49c-27,0-48.89,24.11-48.89,53.86
		c0,29.74,21.89,53.86,48.89,53.86s48.89-24.11,48.89-53.86C752.24,469.6,730.35,445.49,703.35,445.49z"/>
	<path class="st2" d="M970.14,422.59c0,0-78.71,6.93-75.78,76.31s65.02,76.23,75.78,74.27c10.76-1.96,48.4-1.96,71.38-52.8
		l-89.47-0.98v-17.11l112.45-0.49c0,0,5.38,82.71-93.87,91.95c0,0-93.87-2-96.8-94.4V483.7c0,0,13.74-79.65,95.36-79.65
		c0,0,66.47-1.02,85.53,53.25l-24.45-0.49C1030.28,456.81,1016.59,425.52,970.14,422.59z"/>
	<path class="st2" d="M1210.68,465.12c0,44.98-30.8,53.78-48.89,54.27l42.53,68.45h-23.47l-46.93-80.18c0,0,56.22,8.31,58.18-40.58
		s-54.27-40.09-54.27-40.09l-27.87,0.49v160.36h-22V406.46h69.42C1157.39,406.46,1210.68,406.95,1210.68,465.12z"/>
	<path class="st2" d="M1216.55,587.84l77.25-181.38h19.56l74.31,181.38h-24.45l-21.51-51.82l-82.14,1.47l-18.09,50.36H1216.55z
		 M1264.46,520.86h70.89l-33.25-88.49L1264.46,520.86z"/>
	<path class="st2" d="M1403.31,587.84V408.41h66.98c0,0,47.91,4.4,47.91,50.85s-35.2,57.69-53.29,58.18c-18.09,0.49-38.13,0-38.13,0
		v70.4H1403.31z M1425.8,499.35c0,0,74.31,11.73,74.31-37.65s-74.31-36.67-74.31-36.67V499.35z"/>
	<polygon class="st2" points="1564.16,406.46 1539.22,406.46 1539.22,587.84 1564.16,587.84 1564.16,506.19 1645.8,506.68 
		1645.8,587.84 1671.23,587.84 1671.23,406.46 1646.78,406.46 1646.78,487.13 1564.65,487.13 	"/>
</g>
</svg>
