<?xml version="1.0" encoding="utf-8"?>
<!-- Generator: Adobe Illustrator 26.1.0, SVG Export Plug-In . SVG Version: 6.00 Build 0)  -->
<svg version="1.1" id="Layer_1" xmlns="http://www.w3.org/2000/svg" xmlns:xlink="http://www.w3.org/1999/xlink" x="0px" y="0px"
	 viewBox="0 0 1700 1000" style="enable-background:new 0 0 1700 1000;" xml:space="preserve">
<style type="text/css">
	.st0{fill:#5A5A5A;}
	.st1{fill:#575757;}
</style>
<g>
	<g>
		<path class="st0" d="M34.24,305.62h111.03v55.02c0,0,17.69-65.34,80.57-64.36h28v121.35h-50.11c0,0-45.69,8.35-47.66,38.32
			c-2.46,30.46-2.46,151.81-2.46,151.81H34.24V305.62z"/>
		<path class="st1" d="M315.75,331.66l27.51,2.46l-4.42-19.16l23.58,2.95l1.97-22.11l20.14,15.23l0.98-25.55l22.6,14.74l6.88-22.11
			l17.69,16.21l13.76-16.21l15.72,17.69l10.81-17.69l12.77,22.6l16.7-13.76l6.88,24.07l19.16-14.74l1.97,24.56l22.11-8.84
			l-0.49,20.63l20.14-1.47l1.97,21.13h19.16l-9.83,25.55l25.06-3.93l-7.37,28.49l21.13,0.98l-15.23,17.2l19.16,11.3l-19.16,16.21
			l23.58,11.79l-24.07,14.25l22.6,13.76l-24.56,13.26l19.16,17.69l-26.04,5.9l14.74,21.62l-24.07,2.46l8.84,20.14
			c0,0-25.55-0.49-26.53-1.97c-0.98-1.47,6.39,23.09,6.39,23.09l-24.07-3.93l3.93,22.11l-23.09-5.4v25.55l-24.56-14.74l-3.44,19.16
			l-18.67-12.77l-12.28,16.7l-13.26-14.74l-13.76,14.74l-12.28-16.21l-13.26,16.21l-11.79-18.18l-15.23,18.18l-10.32-22.11
			l-17.69,11.3l-3.93-18.18l-21.13,3.44v-17.69h-19.65l-0.49-20.63h-18.67v-22.6h-17.69l7.86-27.02L273,522.28l14.74-21.62
			l-24.07-8.84l22.11-19.16l-22.11-7.37l19.16-17.2l-16.7-13.26l22.11-11.79L273,405.35l22.11-5.9l-12.77-22.6h26.04l-9.83-22.6
			h25.55L315.75,331.66z M317.22,430.9l-20.14-0.98l9.83,20.14l-24.07,7.37l19.65,13.26l-21.13,17.2l16.7,8.84l-14.25,19.65
			l16.21,2.46l-3.93,23.58l14.74,0.98v19.16l20.63,0.98l-0.49,18.67l20.14-5.9l1.47,21.62l21.62-10.32l7.37,19.65l14.25-16.21
			l15.72,18.18l10.32-23.09l21.13,16.7v-24.56l26.04,9.83l-5.4-25.55l22.6,5.4l-7.86-24.56l25.55-1.47l-11.3-17.69l20.14-7.86
			l-16.21-18.18l17.69-11.79l-19.16-14.25l14.74-20.63l-21.62-2.46L499,425.5l-23.09,2.46v-20.14l-19.65,0.49v-22.6l-20.63,7.37
			l-8.35-18.18l-17.2,15.72l-12.77-17.2l-12.77,20.63l-20.14-18.18l-1.47,25.06l-27.02-11.3l1.47,22.6l-24.56-7.86L317.22,430.9z"/>
		<polygon class="st1" points="437.59,405.84 451.34,398.47 455.76,412.72 471.98,411.25 471.49,426.97 486.72,431.39 
			480.33,447.11 492.12,455.46 480.82,465.78 488.19,479.54 474.43,483.96 475.42,500.66 459.2,500.17 455.27,514.91 440.04,508.52 
			431.2,520.81 420.88,509.02 407.13,516.88 401.72,502.14 386,503.61 386.49,487.89 371.75,483.96 378.14,468.73 365.86,459.89 
			377.65,449.08 369.79,435.32 384.04,431.39 383.05,414.69 399.27,414.69 402.7,399.95 417.44,406.83 426.78,394.54 		"/>
		<path class="st0" d="M636.56,516.39h117.91c0,0,2.46,36.36,39.79,33.9c37.34-2.46,38.32,0,43.23-24.56
			c4.91-24.56-53.55-31.93-62.89-33.9c-9.33-1.97-124.79-11.3-128.23-97.77c0,0,2.46-103.17,141.49-98.26
			c139.04,4.91,152.79,59.45,152.79,89.91l-103.66,2.46c0,0-2.46-30.46-39.79-31.44c-37.34-0.98-34.88,27.02-34.88,27.02
			s-2.46,8.35,27.02,22.11c0,0,162.84,28.82,163.6,105.14c0,0,18.67,103.66-148.37,109.56C803.6,620.54,640,624.96,636.56,516.39z"
			/>
		<path class="st0" d="M1341.07,515.89h117.91c0,0,2.46,36.36,39.79,33.9c37.34-2.46,38.32,0,43.23-24.56
			c4.91-24.56-53.55-31.93-62.89-33.9c-9.33-1.97-124.79-11.3-128.23-97.77c0,0,2.46-103.17,141.49-98.26s152.79,59.45,152.79,89.91
			l-103.66,2.46c0,0-2.46-30.46-39.79-31.44c-37.34-0.98-34.88,27.02-34.88,27.02s-2.46,8.35,27.02,22.11
			c0,0,165.08,31.45,163.6,105.14c0,0,18.67,103.66-148.37,109.56C1508.11,620.05,1344.51,623.98,1341.07,515.89z"/>
		<path class="st0" d="M1146.03,295.3c153.28-3.44,159.18,87.45,159.18,87.45s-4.91,158.69-3.44,185.71
			c0.98,27.02,18.67,39.79,18.67,39.79h-123.81v-33.9c-30.46,34.88-87.45,43.23-122.82,45.69
			c-34.88,2.46-102.68-13.26-102.68-103.17s158.69-93.35,158.69-93.35c49.13,0.98,56.01-28.99,56.01-28.99
			c2.46-25.55-40.78-28-40.78-28c-38.32,0.98-45.69,28-45.69,28h-113C984.4,293.34,1146.03,295.3,1146.03,295.3z M1138.66,483.96
			c-46.67,14.25-46.67,32.43-46.67,32.43s-4.91,32.92,38.32,31.93c43.23-0.98,55.02-31.93,55.02-31.93v-46.67
			C1178.46,479.54,1138.66,483.96,1138.66,483.96z"/>
	</g>
	<g>
		<g>
			<path class="st0" d="M355.05,721.25v-61.41h12.28l14.74,43.23c1.47,3.93,2.46,6.88,2.95,8.84c0.49-2.46,1.97-5.4,3.44-9.83
				l14.74-42.74H414v61.41h-7.86v-51.09l-17.69,51.09h-7.37l-17.69-52.08v52.08h-8.35V721.25z"/>
			<path class="st0" d="M419.9,721.25l23.58-61.41h8.84l25.06,61.41h-9.33l-7.37-18.67h-25.55l-6.88,18.67H419.9z M437.59,695.71
				h20.63l-6.39-17.2c-1.97-4.91-3.44-9.33-4.42-12.77c-0.98,3.93-1.97,7.86-3.44,11.79L437.59,695.71z"/>
			<path class="st0" d="M480.82,701.6l7.86-0.49c0.49,2.95,0.98,5.4,2.46,7.37c1.47,1.97,3.44,3.44,6.39,4.91
				c2.95,0.98,5.9,1.97,9.33,1.97c2.95,0,5.9-0.49,8.35-1.47c2.46-0.98,3.93-1.97,5.4-3.93c0.98-1.47,1.97-3.44,1.97-5.4
				s-0.49-3.44-1.47-4.91c-0.98-1.47-2.95-2.46-5.4-3.44c-1.47-0.49-5.4-1.47-10.81-2.95c-5.4-1.47-9.33-2.46-11.79-3.93
				c-2.95-1.47-4.91-3.44-6.39-5.9c-1.47-2.46-1.97-4.91-1.97-7.86c0-2.95,0.98-5.9,2.46-8.84c1.47-2.95,4.42-4.91,7.86-5.9
				c3.44-1.47,6.88-1.97,11.3-1.97c4.42,0,8.35,0.49,11.79,1.97c3.44,1.47,5.9,3.44,7.86,6.39c1.97,2.95,2.95,5.9,2.95,9.83
				l-7.86,0.49c-0.49-3.93-1.97-6.88-4.42-8.84c-2.46-1.97-5.9-2.95-10.81-2.95s-8.35,0.98-10.81,2.46
				c-2.46,1.97-3.44,3.93-3.44,6.39c0,1.97,0.98,3.93,2.46,5.4c1.47,1.47,5.4,2.95,12.28,4.42c6.39,1.47,11.3,2.95,13.76,3.93
				c3.44,1.47,6.39,3.93,7.86,6.39c1.47,2.46,2.46,5.4,2.46,8.84c0,3.44-0.98,6.39-2.95,9.33c-1.97,2.95-4.42,4.91-7.86,6.88
				c-3.44,1.47-7.37,2.46-11.79,2.46c-5.4,0-10.32-0.98-13.76-2.46s-6.88-3.93-8.84-7.37C482.29,708.97,480.82,705.53,480.82,701.6z
				"/>
			<path class="st0" d="M584.48,699.64l8.35,1.97c-1.47,6.88-4.91,11.79-9.33,15.23c-4.42,3.44-9.83,5.4-16.21,5.4
				c-6.39,0-11.79-1.47-16.21-3.93s-7.37-6.39-9.33-11.79c-1.97-4.91-3.44-10.81-3.44-16.21c0-6.39,0.98-11.79,3.44-16.7
				s5.9-8.35,10.32-10.81c4.42-2.46,9.33-3.93,14.74-3.93c5.9,0,11.3,1.47,15.23,4.91c4.42,2.95,6.88,7.37,8.84,13.26l-7.86,1.97
				c-1.47-4.42-3.44-7.86-6.39-9.83c-2.95-1.97-5.9-2.95-10.32-2.95c-4.91,0-8.84,0.98-11.79,3.44s-5.4,5.4-6.88,9.33
				c-1.47,3.93-1.97,7.86-1.97,11.79c0,5.4,0.98,9.83,2.46,13.76c1.47,3.93,3.93,6.88,6.88,8.84c3.44,1.97,6.88,2.95,10.32,2.95
				c4.42,0,8.35-1.47,11.3-3.93C579.57,709.95,583.5,704.55,584.48,699.64z"/>
			<path class="st0" d="M602.66,721.25v-61.41h8.35v25.06h31.93v-25.06h8.35v61.41h-8.35v-28.99h-31.93v28.99H602.66z"/>
			<path class="st0" d="M665.55,721.25v-61.41h8.35v61.41H665.55z"/>
			<path class="st0" d="M688.15,721.25v-61.41h8.35l32.43,48.15v-48.15h7.86v61.41h-8.35l-32.43-48.15v48.15H688.15z"/>
			<path class="st0" d="M750.05,721.25v-61.41h44.22v7.37h-36.36v18.67h33.9v7.37h-33.9v20.63h37.83v7.37H750.05z"/>
			<path class="st0" d="M807.04,721.25v-61.41h8.35l32.43,48.15v-48.15h7.86v61.41h-8.35l-32.43-48.15v48.15H807.04z"/>
			<path class="st0" d="M868.45,721.25v-61.41h23.09c4.91,0,8.35,0.49,11.3,1.97c2.95,1.47,4.91,2.95,6.88,5.9
				c1.47,2.46,2.46,5.4,2.46,7.86c0,2.46-0.49,4.91-1.97,7.37c-1.47,2.46-3.44,4.42-6.39,5.4c3.93,0.98,6.39,2.95,8.35,5.4
				s2.95,5.9,2.95,9.33c0,2.95-0.49,5.4-1.97,7.86c-0.98,2.46-2.95,4.42-4.42,5.9c-1.97,1.47-3.93,2.46-6.88,2.95
				c-2.46,0.49-5.9,0.98-9.83,0.98h-23.58V721.25z M876.8,685.39h13.26c3.44,0,6.39,0,7.86-0.49c1.97-0.49,3.44-1.47,4.42-2.95
				c0.98-1.47,1.47-3.44,1.47-5.4c0-1.97-0.49-3.93-1.47-5.4c-0.98-1.47-2.46-2.46-4.42-2.95s-4.91-0.98-9.33-0.98h-12.28v18.18
				H876.8z M876.8,713.88h15.23c2.46,0,4.42,0,5.4-0.49c1.97-0.49,3.44-0.98,4.91-1.47c1.47-0.98,2.46-1.97,2.95-3.44
				c0.49-1.47,0.98-3.44,0.98-5.4c0-2.46-0.49-4.42-1.97-5.9c-0.98-1.47-2.95-2.95-4.91-3.44s-4.91-0.98-8.84-0.98h-14.25v21.13
				H876.8z"/>
			<path class="st0" d="M919.54,721.25l23.58-61.41h8.84l25.06,61.41h-9.33l-7.37-18.67h-25.55l-6.88,18.67H919.54z M937.23,695.71
				h20.63l-6.39-17.2c-1.97-4.91-3.44-9.33-4.42-12.77c-0.98,3.93-1.97,7.86-3.44,11.79L937.23,695.71z"/>
			<path class="st0" d="M1023.7,659.84h8.35v35.37c0,6.39-0.49,10.81-1.97,14.74c-1.47,3.44-3.93,6.39-7.37,8.84
				c-3.44,2.46-8.35,3.44-14.25,3.44c-5.9,0-10.32-0.98-14.25-2.95c-3.44-1.97-6.39-4.91-7.86-8.35c-1.47-3.93-2.46-8.84-2.46-15.23
				v-35.37h8.35v35.37c0,5.4,0.49,9.33,1.47,11.79c0.98,2.46,2.46,4.42,4.91,5.9c2.46,1.47,5.4,1.97,8.84,1.97
				c5.9,0,10.32-1.47,12.77-3.93c2.46-2.46,3.93-7.86,3.93-15.72v-35.86H1023.7z"/>
			<path class="st0" d="M1097.39,697.18v-7.37h26.04v22.6c-3.93,2.95-7.86,5.4-12.28,7.37c-4.42,1.47-8.35,2.46-13.27,2.46
				c-5.9,0-11.3-1.47-16.21-3.93c-4.91-2.46-8.84-6.39-11.3-11.3c-2.46-4.91-3.93-10.32-3.93-16.21c0-5.9,1.47-11.3,3.93-16.7
				c2.46-5.4,5.9-8.84,10.81-11.3s10.32-3.93,16.21-3.93c4.42,0,8.35,0.49,11.79,1.97c3.44,1.47,6.39,3.44,8.35,5.9
				s3.44,5.9,4.42,9.83l-7.37,1.97c-0.98-2.95-1.97-5.4-3.44-7.37s-3.44-3.44-5.9-4.42c-2.46-0.98-5.4-1.47-8.35-1.47
				c-3.93,0-6.88,0.49-9.83,1.47c-2.95,0.98-4.91,2.46-6.39,4.42c-1.47,1.97-2.95,3.93-3.93,5.9c-1.47,3.93-2.46,7.86-2.46,12.28
				c0,5.4,0.98,9.83,2.95,13.76c1.97,3.44,4.42,6.39,8.35,8.35c3.44,1.97,7.37,2.46,11.3,2.46c3.44,0,6.88-0.49,10.32-1.97
				s5.9-2.95,7.37-4.42v-11.3h-17.2V697.18z"/>
			<path class="st0" d="M1135.22,721.25v-61.41h12.28l14.74,43.23c1.47,3.93,2.46,6.88,2.95,8.84c0.49-2.46,1.97-5.4,3.44-9.83
				l14.74-42.74h10.81v61.41h-7.86v-51.09l-17.69,51.09h-7.37l-17.69-52.08v52.08h-8.35V721.25z"/>
			<path class="st0" d="M1206.46,721.25v-61.41h23.09c4.91,0,8.35,0.49,11.3,1.97c2.95,1.47,4.91,2.95,6.88,5.9
				c1.47,2.46,2.46,5.4,2.46,7.86c0,2.46-0.49,4.91-1.97,7.37c-1.47,2.46-3.44,4.42-6.39,5.4c3.93,0.98,6.39,2.95,8.35,5.4
				c1.97,2.46,2.95,5.9,2.95,9.33c0,2.95-0.49,5.4-1.97,7.86c-0.98,2.46-2.95,4.42-4.42,5.9c-1.97,1.47-3.93,2.46-6.88,2.95
				c-2.46,0.49-5.9,0.98-9.83,0.98h-23.58V721.25z M1214.81,685.39h13.27c3.44,0,6.39,0,7.86-0.49c1.97-0.49,3.44-1.47,4.42-2.95
				c0.98-1.47,1.47-3.44,1.47-5.4c0-1.97-0.49-3.93-1.47-5.4c-0.98-1.47-2.46-2.46-4.42-2.95s-4.91-0.98-9.33-0.98h-12.28v18.18
				H1214.81z M1214.81,713.88h15.23c2.46,0,4.42,0,5.4-0.49c1.97-0.49,3.44-0.98,4.91-1.47c1.47-0.98,2.46-1.97,2.95-3.44
				c0.49-1.47,0.98-3.44,0.98-5.4c0-2.46-0.49-4.42-1.97-5.9c-0.98-1.47-2.95-2.95-4.91-3.44c-1.97-0.49-4.91-0.98-8.84-0.98h-14.25
				v21.13H1214.81z"/>
			<path class="st0" d="M1264.43,721.25v-61.41h8.35v25.06h31.93v-25.06h8.35v61.41h-8.35v-28.99h-31.93v28.99H1264.43z"/>
		</g>
	</g>
</g>
</svg>
