<?xml version="1.0" encoding="utf-8"?>
<!-- Generator: Adobe Illustrator 26.1.0, SVG Export Plug-In . SVG Version: 6.00 Build 0)  -->
<svg version="1.1" id="Layer_1" xmlns="http://www.w3.org/2000/svg" xmlns:xlink="http://www.w3.org/1999/xlink" x="0px" y="0px"
	 viewBox="0 0 1700 1000" style="enable-background:new 0 0 1700 1000;" xml:space="preserve">
<style type="text/css">
	.st0{fill:#009BDF;}
	.st1{fill:#808285;}
</style>
<g>
	<g>
		<path class="st0" d="M187.38,429.62c4.98,4.98,7.74,11.06,7.74,17.98v9.68H54.08v25.17h115.04c6.91,0,12.72,2.49,17.98,7.74
			c4.98,4.98,7.74,11.06,7.74,17.98v44.25c0,6.91-2.49,12.72-7.74,17.98c-4.98,4.98-11.06,7.74-17.98,7.74H44.68
			c-6.91,0-13-2.49-18.25-7.74c-4.98-4.98-7.74-11.06-7.74-17.98v-9.68h141.04v-25.44H44.96c-6.91,0-13-2.49-18.25-7.74
			c-4.98-4.98-7.74-11.06-7.74-17.98v-43.97c0-6.91,2.49-13,7.74-17.98c4.98-4.98,11.06-7.74,18.25-7.74H169.4
			C176.32,421.88,182.12,424.36,187.38,429.62"/>
		<path class="st0" d="M382.07,457.27H276.43v85.45h105.64V457.27z M409.45,570.1c-4.98,4.98-11.06,7.74-17.98,7.74H276.43v35.12
			c0,6.91-2.49,12.72-7.74,17.98c-4.98,4.98-11.06,7.74-17.98,7.74h-9.68V447.87c0-6.91,2.49-13,7.74-17.98
			c4.98-4.98,11.06-7.74,18.25-7.74h124.45c6.91,0,13,2.49,17.98,7.74c4.98,4.98,7.74,11.06,7.74,17.98v104.54
			C417.19,558.77,414.42,564.85,409.45,570.1"/>
		<path class="st1" d="M828.97,457.27H723.33v85.45h105.64V457.27L828.97,457.27z M856.35,570.1c-4.98,4.98-11.06,7.74-17.98,7.74
			H723.33v35.12c0,6.91-2.49,12.72-7.74,17.98c-4.98,4.98-11.06,7.74-17.98,7.74h-9.68V447.87c0-6.91,2.49-13,7.74-17.98
			c4.98-4.98,11.06-7.74,18.25-7.74h124.45c6.91,0,13,2.49,17.98,7.74c4.98,4.98,7.74,11.06,7.74,17.98v104.54
			C864.09,558.77,861.6,564.85,856.35,570.1"/>
		<path class="st1" d="M909.44,577.85V447.59c0-6.91,2.49-12.72,7.74-17.98c4.98-4.98,11.06-7.74,17.98-7.74h36.5
			c6.91,0,13,2.49,18.25,7.74c4.98,4.98,7.74,11.06,7.74,17.98v9.68h-52.82v94.86c0,6.91-2.49,13-7.74,17.98
			c-4.98,4.98-11.06,7.74-18.25,7.74L909.44,577.85L909.44,577.85z"/>
		<path class="st1" d="M1066.52,577.85h-9.13c-6.91,0-13-2.49-18.25-7.74c-4.98-4.98-7.74-11.06-7.74-17.98V421.88h9.68
			c6.91,0,12.72,2.49,17.98,7.74c4.98,4.98,7.74,11.06,7.74,17.98v130.25H1066.52z M1031.4,361.59h35.4v35.4h-35.4V361.59z"/>
		<path class="st1" d="M1287.21,577.85h-9.13c-6.91,0-13-2.49-18.25-7.74c-4.98-4.98-7.74-11.06-7.74-17.98v-94.86h-105.64v94.86
			c0,6.91-2.49,12.72-7.74,17.98c-4.98,4.98-11.06,7.74-17.98,7.74h-9.68V447.59c0-6.91,2.49-13,7.74-17.98
			c4.98-4.98,11.06-7.74,18.25-7.74h124.45c6.91,0,12.72,2.49,17.98,7.74c4.98,4.98,7.74,11.06,7.74,17.98V577.85L1287.21,577.85z"
			/>
		<path class="st1" d="M1421.06,431.55c0,6.91-2.49,12.72-7.74,17.98c-4.98,4.98-11.06,7.74-17.98,7.74h-27.1v85.45h52.82v9.68
			c0,6.91-2.49,12.72-7.74,17.98c-4.98,4.98-11.06,7.74-17.98,7.74h-36.5c-6.91,0-13-2.49-18.25-7.74
			c-4.98-4.98-7.74-11.06-7.74-17.98V387.03h9.68c6.91,0,12.72,2.49,17.98,7.74c4.98,4.98,7.74,11.06,7.74,17.98v9.68h52.82V431.55
			L1421.06,431.55z"/>
		<path class="st1" d="M1627.36,429.62c4.98,4.98,7.74,11.06,7.74,17.98v9.68h-140.76v25.17h115.04c6.91,0,12.72,2.49,17.98,7.74
			c4.98,4.98,7.74,11.06,7.74,17.98v44.25c0,6.91-2.49,12.72-7.74,17.98c-4.98,4.98-11.06,7.74-17.98,7.74h-124.45
			c-6.91,0-13-2.49-18.25-7.74c-4.98-4.98-7.74-11.06-7.74-17.98v-9.68h141.04v-25.44h-114.77c-6.91,0-13-2.49-18.25-7.74
			c-4.98-4.98-7.74-11.06-7.74-17.98v-43.97c0-6.91,2.49-13,7.74-17.98c4.98-4.98,11.06-7.74,18.25-7.74h124.45
			C1616.3,421.88,1622.11,424.36,1627.36,429.62"/>
		<path class="st0" d="M496.83,542.45V457h105.64v44.25v40.93C602.48,542.45,496.83,542.45,496.83,542.45z M637.6,475.8v-28.21
			c0-6.91-2.49-12.72-7.74-17.98c-4.98-4.98-11.06-7.74-17.98-7.74H487.43c-6.91,0-13,2.49-18.25,7.74
			c-4.98,4.98-7.74,11.06-7.74,17.98v104.54c0,6.91,2.49,13,7.74,17.98c4.98,4.98,11.06,7.74,18.25,7.74H602.2v24.06v1.38H462.82
			v9.68c0,6.91,2.49,13,7.74,17.98c4.98,4.98,11.06,7.74,18.25,7.74h123.06c6.91,0,13-2.49,17.98-7.74
			c4.98-4.98,7.74-11.06,7.74-17.98V475.8L637.6,475.8z"/>
	</g>
	<g>
		<path class="st0" d="M1656.12,402.24c10.51,0,18.81-8.57,18.81-18.81c0-10.51-8.57-18.81-18.81-18.81
			c-10.51,0-18.81,8.57-18.81,18.81C1637.59,393.94,1645.89,402.24,1656.12,402.24l2.49,1.66l-2.49,1.66
			c-12.17,0-22.12-9.96-22.12-22.12s9.96-22.12,22.12-22.12c12.17,0,22.12,9.96,22.12,22.12s-9.96,22.12-22.12,22.12"/>
		<path class="st0" d="M1652.81,382.33h4.98c2.21,0,3.32-0.83,3.32-2.77c0-1.94-1.11-2.77-3.32-2.77h-4.98V382.33z M1648.38,373.2
			h11.06c3.6,0,6.08,2.49,6.08,5.53c0,2.49-0.83,4.15-3.32,4.98l0,0c2.21,0.55,2.77,2.77,3.04,4.7c0.28,1.38,0,3.6,0.83,4.7h-4.42
			c-0.55-1.38-0.55-3.32-0.55-4.98c-0.28-2.21-1.11-3.04-3.32-3.04h-4.42v8.02h-4.42v-20.19h-0.55V373.2z"/>
	</g>
</g>
</svg>
